<?xml version="1.0" encoding="utf-8"?>
<!-- Generator: Adobe Illustrator 19.1.0, SVG Export Plug-In . SVG Version: 6.00 Build 0)  -->
<svg version="1.1" id="Livello_1" xmlns="http://www.w3.org/2000/svg" xmlns:xlink="http://www.w3.org/1999/xlink" x="0px" y="0px"
	 viewBox="-408 286.3 24 24" style="enable-background:new -408 286.3 24 24;" xml:space="preserve">
<style type="text/css">
	.st0{fill:none;}
</style>
<path class="st0" d="M-408,286.3h24v24h-24V286.3z"/>
<path d="M-387.8,291h-16.4c-1,0-1.8,0.8-1.8,1.8v10.9c0,1,0.8,1.8,1.8,1.8h16.4c1,0,1.8-0.8,1.8-1.8v-10.9
	C-386,291.8-386.8,291-387.8,291z M-387.8,303.7h-16.4v-10.9h16.4V303.7z"/>
<path d="M-391.6,302.1l-1.4-1.4c0.5-0.7,0.9-1.5,0.9-2.4c0-2.1-1.7-3.8-3.8-3.8c-0.9,0-1.7,0.3-2.4,0.9l-1.4-1.4l-0.5,0.5l1.4,1.4
	c-0.5,0.7-0.9,1.5-0.9,2.4c0,2.1,1.7,3.8,3.8,3.8c0.9,0,1.7-0.3,2.4-0.9l1.4,1.4L-391.6,302.1z M-396,301.4c-1.7,0-3.1-1.4-3.1-3.1
	c0-0.7,0.2-1.4,0.6-1.9l4.3,4.3C-394.6,301.1-395.3,301.4-396,301.4z M-396,295.2c1.7,0,3.1,1.4,3.1,3.1c0,0.7-0.2,1.4-0.6,1.9
	l-4.3-4.3C-397.3,295.5-396.7,295.2-396,295.2z"/>
</svg>
