<?xml version="1.0" encoding="utf-8"?>
<!-- Generator: Adobe Illustrator 19.1.0, SVG Export Plug-In . SVG Version: 6.00 Build 0)  -->
<svg version="1.1" id="Livello_1" xmlns="http://www.w3.org/2000/svg" xmlns:xlink="http://www.w3.org/1999/xlink" x="0px" y="0px"
	 viewBox="-408 286.2 24 24.1" style="enable-background:new -408 286.2 24 24.1;" xml:space="preserve">
<style type="text/css">
	.st0{fill:none;}
</style>
<path class="st0" d="M-408,286.3h24v24h-24V286.3z"/>
<g>
	<path d="M-391.7,300.9h-0.9l-0.3-0.3c1.1-1.3,1.8-3,1.8-4.9c0-4.1-3.3-7.5-7.5-7.5c-4.1,0-7.5,3.3-7.5,7.5c0,4.1,3.3,7.5,7.5,7.5
		c1.8,0,3.5-0.7,4.9-1.8l0.3,0.3v0.9l5.7,5.7l1.7-1.7L-391.7,300.9z M-398.6,300.9c-2.9,0-5.2-2.3-5.2-5.2s2.3-5.2,5.2-5.2
		s5.2,2.3,5.2,5.2S-395.7,300.9-398.6,300.9z"/>
	<path d="M-395.7,296.3h-2.3v2.3h-1.1v-2.3h-2.3v-1.1h2.3v-2.3h1.1v2.3h2.3V296.3z"/>
</g>
</svg>
