<?xml version="1.0" encoding="utf-8"?>
<!-- Generator: Adobe Illustrator 19.1.0, SVG Export Plug-In . SVG Version: 6.00 Build 0)  -->
<svg version="1.1" id="Livello_1" xmlns="http://www.w3.org/2000/svg" xmlns:xlink="http://www.w3.org/1999/xlink" x="0px" y="0px"
	 viewBox="-408 286.3 24 24" style="enable-background:new -408 286.3 24 24;" xml:space="preserve">
<style type="text/css">
	.st0{fill:none;}
	.st1{fill:#FFFFFF;}
</style>
<path class="st0" d="M-408,286.3h24v24h-24V286.3z"/>
<g>
	<rect x="-397.9" y="296.4" width="11.5" height="11.7"/>
	<rect x="-396.8" y="304.4" class="st1" width="10.3" height="0.8"/>
	<rect x="-396.8" y="306.3" class="st1" width="10.3" height="0.8"/>
	<rect x="-396.8" y="302.5" class="st1" width="10.3" height="0.8"/>
	<g>
		<path class="st1" d="M-391.4,300.6h-1.4l-0.3,0.8h-0.8l1.4-3.8h0.7l1.4,3.8h-0.8L-391.4,300.6z M-392.6,299.9h1l-0.5-1.4
			L-392.6,299.9z"/>
	</g>
</g>
<path d="M-406,288.3v20h20v-20H-406z M-386.6,307.7h-18.8v-18.8h18.8V307.7z"/>
<polygon points="-400.9,294.1 -402,295.3 -399,295.3 -399,292.2 -400.2,293.4 -402.4,291.1 -401.3,290 -404.3,290 -404.3,293 
	-403.2,291.9 "/>
</svg>
