<?xml version="1.0" encoding="utf-8"?>
<!-- Generator: Adobe Illustrator 19.1.0, SVG Export Plug-In . SVG Version: 6.00 Build 0)  -->
<svg version="1.1" id="Livello_1" xmlns="http://www.w3.org/2000/svg" xmlns:xlink="http://www.w3.org/1999/xlink" x="0px" y="0px"
	 viewBox="-408 286.3 24 24" style="enable-background:new -408 286.3 24 24;" xml:space="preserve">
<style type="text/css">
	.st0{fill:none;}
	.st1{opacity:0.5;}
</style>
<path class="st0" d="M-408,286.3h24v24h-24V286.3z"/>
<path d="M-387.8,291h-16.4c-1,0-1.8,0.8-1.8,1.8v10.9c0,1,0.8,1.8,1.8,1.8h16.4c1,0,1.8-0.8,1.8-1.8v-10.9
	C-386,291.8-386.8,291-387.8,291z M-387.8,303.7h-16.4v-10.9h16.4V303.7z"/>
<g>
	<path class="st1" d="M-404.3,304.8c0.2,0.9,1,1.7,1.9,1.7h12.7c0.9,0,1.8-0.8,1.9-1.7H-404.3z"/>
	<path d="M-404.3,292v12.4h16.6V292H-404.3z M-399.1,299.6l2.3,2.6l3.3-4.2l4.2,5.5H-402L-399.1,299.6z"/>
	<path class="st1" d="M-387.7,291.7c0-1-1-1.9-2-1.9h-12.7c-1,0-1.9,0.9-2,1.9H-387.7z"/>
</g>
</svg>
