<?xml version="1.0" encoding="utf-8"?>
<!-- Generator: Adobe Illustrator 19.1.0, SVG Export Plug-In . SVG Version: 6.00 Build 0)  -->
<svg version="1.1" id="Livello_1" xmlns="http://www.w3.org/2000/svg" xmlns:xlink="http://www.w3.org/1999/xlink" x="0px" y="0px"
	 viewBox="-408 286.3 24 24" style="enable-background:new -408 286.3 24 24;" xml:space="preserve">
<style type="text/css">
	.st0{fill:none;}
</style>
<path class="st0" d="M-408,286.3h24v24h-24V286.3z"/>
<path d="M-387.8,291h-16.4c-1,0-1.8,0.8-1.8,1.8v10.9c0,1,0.8,1.8,1.8,1.8h16.4c1,0,1.8-0.8,1.8-1.8v-10.9
	C-386,291.8-386.8,291-387.8,291z M-387.8,303.7h-16.4v-10.9h16.4V303.7z"/>
<path d="M-399.8,303.3h7.7c0.6,0,1.2-0.6,1.2-1.2v-7.7c0-0.6-0.6-1.2-1.2-1.2h-7.7c-0.6,0-1.2,0.6-1.2,1.2v7.7
	C-401,302.7-400.4,303.3-399.8,303.3z M-397.9,299.2l1.4,1.6l2-2.6l2.6,3.3h-7.7L-397.9,299.2z"/>
</svg>
