<?xml version="1.0" encoding="utf-8"?>
<!-- Generator: Adobe Illustrator 19.1.0, SVG Export Plug-In . SVG Version: 6.00 Build 0)  -->
<svg version="1.1" id="Livello_1" xmlns="http://www.w3.org/2000/svg" xmlns:xlink="http://www.w3.org/1999/xlink" x="0px" y="0px"
	 viewBox="-408 286.3 24 24" style="enable-background:new -408 286.3 24 24;" xml:space="preserve">
<style type="text/css">
	.st0{fill:none;}
	.st1{fill:#FFFFFF;}
</style>
<path class="st0" d="M-1224,858.9h24v24h-24V858.9z"/>
<g>
	<path d="M-387.8,291h-16.4c-1,0-1.8,0.8-1.8,1.8v10.9c0,1,0.8,1.8,1.8,1.8h16.4c1,0,1.8-0.8,1.8-1.8v-10.9
		C-386,291.8-386.8,291-387.8,291z M-404.2,292.8h2.2v10.9h-2.2V292.8z M-387.8,303.7h-2.2v-10.9h2.2V303.7z"/>
	<g>
		<path class="st1" d="M-400.5,297.8h3.5c0.3,0,0.5-0.3,0.5-0.5v-3.5c0-0.3-0.3-0.5-0.5-0.5h-3.5c-0.3,0-0.5,0.3-0.5,0.5v3.5
			C-401.1,297.6-400.8,297.8-400.5,297.8z M-399.6,295.9l0.6,0.7l0.9-1.2l1.2,1.5h-3.5L-399.6,295.9z"/>
		<path class="st1" d="M-395,297.8h3.5c0.3,0,0.5-0.3,0.5-0.5v-3.5c0-0.3-0.3-0.5-0.5-0.5h-3.5c-0.3,0-0.5,0.3-0.5,0.5v3.5
			C-395.5,297.6-395.3,297.8-395,297.8z M-394.2,295.9l0.6,0.7l0.9-1.2l1.2,1.5h-3.5L-394.2,295.9z"/>
		<rect x="-401.1" y="298.7" class="st1" width="10.1" height="0.9"/>
		<rect x="-401.1" y="300.6" class="st1" width="10.1" height="0.9"/>
		<rect x="-401.1" y="302.4" class="st1" width="10.1" height="0.9"/>
	</g>
</g>
</svg>
