<?xml version="1.0" encoding="utf-8"?>
<!-- Generator: Adobe Illustrator 19.1.0, SVG Export Plug-In . SVG Version: 6.00 Build 0)  -->
<svg version="1.1" id="Livello_1" xmlns="http://www.w3.org/2000/svg" xmlns:xlink="http://www.w3.org/1999/xlink" x="0px" y="0px"
	 viewBox="-408 286.3 24 24" style="enable-background:new -408 286.3 24 24;" xml:space="preserve">
<style type="text/css">
	.st0{fill:#FFFFFF;}
</style>
<g>
	<path d="M-387.8,291h-16.4c-1,0-1.8,0.8-1.8,1.8v10.9c0,1,0.8,1.8,1.8,1.8h16.4c1,0,1.8-0.8,1.8-1.8v-10.9
		C-386,291.8-386.8,291-387.8,291z"/>
	<g>
		<path class="st0" d="M-402.5,298.9h5.2c0.4,0,0.7-0.4,0.7-0.7V293c0-0.4-0.4-0.7-0.7-0.7h-5.2c-0.4,0-0.7,0.4-0.7,0.7v5.2
			C-403.3,298.6-402.9,298.9-402.5,298.9z M-401.3,296.2l0.9,1.1l1.3-1.6l1.6,2.2h-5.2L-401.3,296.2z"/>
		<path class="st0" d="M-394.6,298.9h5.2c0.4,0,0.7-0.4,0.7-0.7V293c0-0.4-0.4-0.7-0.7-0.7h-5.2c-0.4,0-0.7,0.4-0.7,0.7v5.2
			C-395.4,298.6-395,298.9-394.6,298.9z M-393.4,296.2l0.9,1.1l1.3-1.6l1.6,2.2h-5.2L-393.4,296.2z"/>
		<rect x="-403.3" y="300.3" class="st0" width="14.5" height="1.3"/>
		<rect x="-403.3" y="302.9" class="st0" width="14.5" height="1.3"/>
	</g>
</g>
</svg>
