<?xml version="1.0" encoding="utf-8"?>
<!-- Generator: Adobe Illustrator 19.1.0, SVG Export Plug-In . SVG Version: 6.00 Build 0)  -->
<svg version="1.1" id="Livello_1" xmlns="http://www.w3.org/2000/svg" xmlns:xlink="http://www.w3.org/1999/xlink" x="0px" y="0px"
	 viewBox="-408 286.3 24 24" style="enable-background:new -408 286.3 24 24;" xml:space="preserve">
<style type="text/css">
	.st0{fill:none;}
	.st1{fill:#FFFFFF;}
</style>
<path class="st0" d="M-408,286.3h24v24h-24V286.3z"/>
<path d="M-406,288.3v20h20v-20H-406z M-386.6,307.7h-18.8v-18.8h18.8V307.7z"/>
<g>
	<rect x="-401.4" y="292.9" width="10.8" height="10.8"/>
	<g>
		<g>
			<path class="st1" d="M-399.9,297.8h3.1c0.3,0,0.4-0.3,0.4-0.4v-3.1c0-0.3-0.3-0.4-0.4-0.4h-3.1c-0.3,0-0.4,0.3-0.4,0.4v3.1
				C-400.5,297.7-400.2,297.8-399.9,297.8z M-399.1,296.2l0.5,0.6l0.8-1.1l1.1,1.3h-3.1L-399.1,296.2z"/>
			<path class="st1" d="M-395.1,297.8h3.1c0.3,0,0.4-0.3,0.4-0.4v-3.1c0-0.3-0.3-0.4-0.4-0.4h-3.1c-0.3,0-0.4,0.3-0.4,0.4v3.1
				C-395.5,297.7-395.3,297.8-395.1,297.8z M-394.4,296.2l0.5,0.6l0.8-1.1l1.1,1.3h-3.1L-394.4,296.2z"/>
			<rect x="-400.5" y="298.6" class="st1" width="8.9" height="0.8"/>
			<rect x="-400.5" y="300.3" class="st1" width="8.9" height="0.8"/>
			<rect x="-400.5" y="301.9" class="st1" width="8.9" height="0.8"/>
		</g>
	</g>
</g>
<polygon points="-395.8,290.2 -395.1,290.2 -396,289.3 -396.9,290.2 -396.2,290.2 -396.2,291.6 -396.9,291.6 -396,292.5 
	-395.1,291.6 -395.8,291.6 "/>
<polygon points="-395.8,305 -395.1,305 -396,304.1 -396.9,305 -396.2,305 -396.2,306.4 -396.9,306.4 -396,307.3 -395.1,306.4 
	-395.8,306.4 "/>
<polygon points="-404.1,298.1 -404.1,297.4 -405,298.3 -404.1,299.2 -404.1,298.5 -402.7,298.5 -402.7,299.2 -401.8,298.3 
	-402.7,297.4 -402.7,298.1 "/>
<polygon points="-389.3,298.1 -389.3,297.4 -390.2,298.3 -389.3,299.2 -389.3,298.5 -387.9,298.5 -387.9,299.2 -387,298.3 
	-387.9,297.4 -387.9,298.1 "/>
</svg>
