<?xml version="1.0" encoding="UTF-8"?>
<svg width="20px" height="20px" viewBox="0 0 20 20" version="1.1" xmlns="http://www.w3.org/2000/svg" xmlns:xlink="http://www.w3.org/1999/xlink">
    <!-- Generator: Sketch 52 (66869) - http://www.bohemiancoding.com/sketch -->
    <title>Artboard</title>
    <desc>Created with Sketch.</desc>
    <g id="Artboard" stroke="none" stroke-width="1" fill="none" fill-rule="evenodd">
        <path d="M20,20 L0,20 L20,20 Z" id="Rectangle" fill=""></path>
        <g id="repairing-service" transform="translate(12.000000, 1.000000)" fill="" fill-rule="nonzero">
            <path d="M106.66391,47.1160072 C106.495009,45.6261668 104.740749,44.5053484 103.223876,44.5053484 C98.321574,44.5053484 93.9708616,41.6549399 92.1462648,37.2431788 C90.2837231,32.7255243 91.4854674,27.4579071 95.1379001,24.1385428 C96.28828,23.0965713 96.4284912,21.3518536 95.4641342,20.140728 C92.9542146,16.9841 90.1027904,14.1323163 86.9885281,11.661015 C85.770125,10.6928479 83.9797713,10.8276212 82.9224028,11.9869462 C79.7336389,15.4855498 74.0053397,16.7856075 69.5787374,14.9560835 C64.973979,13.0367106 62.0674884,8.41270451 62.353001,3.44947318 C62.4469379,1.88949569 61.2956326,0.533970153 59.7264701,0.352897246 C55.7297563,-0.10551518 51.6978741,-0.11880914 47.6895917,0.321725201 C46.1403272,0.491337798 44.9899474,1.81477447 45.0413119,3.35504022 C45.2148406,8.26967983 42.2754952,12.8120886 37.7151601,14.6626995 C33.3417733,16.4326299 27.6532701,15.1421989 24.4709845,11.6743089 C23.419169,10.5319451 21.6602818,10.3916709 20.4335493,11.3392094 C17.2276639,13.8315978 14.3119184,16.6852151 11.7788616,19.816172 C10.7918302,21.033257 10.9375943,22.797228 12.0976918,23.8428667 C15.8223125,27.1842349 17.0231313,32.4972349 15.0893271,37.0676068 C13.2429814,41.4248169 8.6761679,44.2316762 3.44855699,44.2316762 C1.7521401,44.1775835 0.544842861,45.3066533 0.35743183,46.8350003 C-0.11271535,50.8153954 -0.117805526,54.8732622 0.334757408,58.8862046 C0.503658708,60.3824627 2.30974576,61.4936545 3.84327701,61.4936545 C8.50310191,61.3763009 12.9741276,64.2322103 14.8524026,68.7553657 C16.7214227,73.2730201 15.5182901,78.5383453 11.8598417,81.8622937 C10.7154776,82.9042652 10.5692507,84.6448572 11.5354587,85.8546076 C14.0199274,88.9915238 16.874128,91.8451411 19.9976452,94.3375295 C21.2239149,95.3157816 23.0073275,95.1787163 24.0702488,94.018016 C27.2715069,90.511161 32.9988806,89.2133954 37.4074359,91.0465867 C42.0256139,92.960917 44.9307162,97.5844647 44.6470546,102.549071 C44.5540432,104.109049 45.7081249,105.4687 47.2717345,105.645647 C49.3170598,105.882646 51.3730283,106 53.4354751,106 C55.3928792,106 57.3507461,105.894107 59.3086129,105.678194 C60.8597284,105.508582 62.0082572,104.18377 61.9559672,102.643046 C61.7768856,97.7306983 64.7227094,93.1878311 69.2774915,91.3408875 C73.6800312,89.5594968 79.3430835,90.8632217 82.5272201,94.3260692 C83.5845885,95.4661409 85.3328326,95.6045814 86.5646553,94.6607102 C89.7649878,92.1747397 92.6751804,89.3224976 95.219343,86.1832893 C96.2072999,84.9684963 96.0670887,83.2022333 94.9005128,82.1547609 C91.1768176,78.8156848 89.9695204,73.5003927 91.9033246,68.9346049 C93.7209802,64.6360716 98.1179669,61.749907 102.847203,61.749907 L103.508926,61.7673267 C105.044308,61.8906396 106.455213,60.7193959 106.640773,59.1676698 C107.113234,55.1836074 107.118324,51.1303248 106.66391,47.1160072 Z M53.4997964,83.5552108 C36.4648278,83.5552108 22.6561054,69.8757257 22.6561054,53.0006475 C22.6561054,36.1255693 36.4652905,22.4460841 53.4997964,22.4460841 C70.5343023,22.4460841 84.3434875,36.1255693 84.3434875,53.0006475 C84.3434875,58.7285107 82.7493369,64.0859767 79.9807438,68.6673505 L66.4751182,55.287667 C67.4528948,53.0038563 67.9693163,50.5279708 67.9688535,47.97278 C67.9688535,42.9692084 66.0017318,38.2654385 62.4298164,34.7278698 C58.8588264,31.1903011 54.1106176,29.2420483 49.0607001,29.2420483 C47.375389,29.2420483 45.6979446,29.4639199 44.0751039,29.9017038 C43.3643302,30.0937786 42.7831246,30.6741287 42.5938626,31.3796254 C42.4004359,32.1011666 42.618388,32.8405858 43.1875623,33.4048915 C43.1875623,33.4048915 49.8552303,40.0610399 52.0861157,42.2705878 C52.319801,42.5020861 52.3193383,43.0544731 52.2864835,43.2534241 L52.2656601,43.3987408 C52.0407668,45.8283267 51.6071764,48.7447465 51.2494758,49.8655649 C51.2013505,49.9127814 51.1560017,49.9526632 51.1069509,50.001255 C51.0555864,50.0521387 51.0083866,50.1011889 50.958873,50.1516142 C49.8126579,50.5160521 46.8233363,50.9506271 44.3319264,51.1715819 L44.3323892,51.1582879 L44.2204053,51.1862511 C44.2005073,51.1885431 44.1634879,51.1912936 44.1144371,51.1912936 C43.8451205,51.1912936 43.4490122,51.1165724 43.0889979,50.7603859 C40.7669521,48.4600724 34.3607341,42.1591936 34.3607341,42.1591936 C33.7860069,41.591679 33.1964719,41.4724918 32.8036029,41.4724918 C31.8878339,41.4724918 31.0678528,42.1280216 30.8096421,43.0682254 C29.0461274,49.5332159 30.9156103,56.4873324 35.6897328,61.2172318 C39.2616482,64.7552589 44.0103198,66.7035117 49.0611628,66.7035117 C51.6404939,66.7035117 54.1397704,66.1923818 56.4446947,65.2237564 L70.0970099,78.7482981 C65.3039149,81.7866557 59.6121725,83.5552108 53.4997964,83.5552108 Z" id="Shape"></path>
        </g>
        <g id="repairing-service" fill="" fill-rule="nonzero">
            <path d="M19.9371794,8.88981267 C19.9056091,8.60871071 19.5777101,8.39723555 19.2941825,8.39723555 C18.3778643,8.39723555 17.564647,7.85942263 17.2236009,7.02701486 C16.8754623,6.17462723 17.1000874,5.18073719 17.7827851,4.55444203 C17.9978093,4.35784364 18.024017,4.02865163 17.8437634,3.80013736 C17.3746195,3.20454718 16.8416431,2.66647478 16.259538,2.2001915 C16.0317991,2.01751847 15.6971535,2.04294739 15.4995146,2.26168796 C14.9034839,2.92180185 13.8327738,3.16709575 13.0053715,2.82190254 C12.144669,2.45975672 11.6013997,1.58730274 11.6547665,0.650843996 C11.6723248,0.356508622 11.4571276,0.100749086 11.1638262,0.0665843859 C10.4167769,-0.0199085245 9.66315403,-0.0224168189 8.91394237,0.060702868 C8.62436022,0.0927052449 8.40933596,0.342410277 8.4189368,0.633026456 C8.45137208,1.56031695 7.90196173,2.4173752 7.04956264,2.76654708 C6.23210717,3.1004962 5.16883553,2.85701866 4.5740158,2.20269979 C4.37741477,1.98715946 4.0486508,1.96069263 3.81935502,2.13947348 C3.22012408,2.60973543 2.67512493,3.1481538 2.20165638,3.73890038 C2.01716453,3.96853905 2.04441016,4.30136377 2.2612508,4.4986541 C2.95744159,5.12910093 3.1818937,6.13155376 2.82043498,6.99388807 C2.47532363,7.81600319 1.62171363,8.34559928 0.644590091,8.34559928 C0.327502822,8.33539311 0.101839787,8.54842515 0.0668096878,8.83679252 C-0.0210682898,9.58781046 -0.0220197246,10.3534457 0.0625714782,11.1106046 C0.0941418146,11.3929175 0.431728179,11.6025763 0.718369535,11.6025763 C1.58936484,11.5804341 2.42507057,12.119285 2.77615001,12.9727105 C3.12549957,13.8250981 2.90061498,14.8185557 2.21679284,15.4457158 C2.002893,15.6423142 1.97556088,15.9707278 2.1561605,16.1989826 C2.62054717,16.7908535 3.15404261,17.3292719 3.7378776,17.7995339 C3.96708689,17.9841097 4.30043505,17.9582484 4.49911193,17.7392483 C5.09747792,17.0775775 6.16801506,16.8327161 6.99204409,17.1786013 C7.85525493,17.5397957 8.39826471,18.4121632 8.34524385,19.3488814 C8.32785854,19.6432167 8.54357476,19.8997547 8.83583823,19.933141 C9.21814203,19.9778578 9.60243519,20 9.98793927,20 C10.3538092,20 10.7197656,19.9800201 11.085722,19.939282 C11.3756502,19.9072796 11.5903285,19.6573151 11.5805546,19.3666124 C11.5470814,18.4397544 12.0977027,17.5826096 12.9490638,17.2341297 C13.7719684,16.8980183 14.8304829,17.1440041 15.4256486,17.7973715 C15.6232876,18.0124794 15.9500622,18.0386003 16.1803094,17.8605114 C16.7785024,17.3914603 17.3224636,16.8533014 17.798008,16.260998 C17.9826729,16.0317918 17.9564652,15.6985346 17.7384136,15.5008983 C17.0423958,14.8708839 16.8167328,13.8679986 17.1781915,13.0065292 C17.5179402,12.1954852 18.3398069,11.6509259 19.2237763,11.6509259 L19.3474628,11.6542126 C19.6344502,11.6774792 19.8981706,11.4564898 19.9328547,11.1637113 C20.0211652,10.4120014 20.0221166,9.64723109 19.9371794,8.88981267 Z M9.99996195,15.7651341 C6.81585566,15.7651341 4.23478605,13.1840992 4.23478605,10.0001222 C4.23478605,6.81614514 6.81594215,4.2351102 9.99996195,4.2351102 C13.1839817,4.2351102 15.7651378,6.81614514 15.7651378,10.0001222 C15.7651378,11.0808511 15.4671658,12.0916937 14.9496717,12.9561039 L12.4252557,10.4316353 C12.6080177,10.0007276 12.7045451,9.5335794 12.7044586,9.05146792 C12.7044586,8.1073978 12.3367723,7.21989405 11.6691246,6.55242826 C11.0016498,5.88496247 10.1141341,5.5173676 9.17022431,5.5173676 C8.8552129,5.5173676 8.54167189,5.55923017 8.23833717,5.6418309 C8.10548228,5.67807143 7.99684572,5.78757145 7.96146965,5.92068404 C7.92531513,6.05682388 7.96605384,6.19633695 8.07244154,6.30280972 C8.07244154,6.30280972 9.31873463,7.55868678 9.73572256,7.97558261 C9.77940206,8.01926153 9.77931557,8.12348548 9.77317449,8.16102341 L9.76928226,8.18844166 C9.72724614,8.64685409 9.64620119,9.19712198 9.57934127,9.40859715 C9.57034589,9.41750592 9.56186947,9.4250308 9.5527011,9.43419905 C9.54310026,9.44379976 9.53427786,9.4530545 9.525023,9.46256872 C9.31077718,9.53133059 8.75202547,9.61332587 8.28634139,9.65501545 L8.28642788,9.65250715 L8.26549631,9.65778322 C8.26177707,9.65821569 8.25485754,9.65873464 8.24568917,9.65873464 C8.19534962,9.65873464 8.12131069,9.6446363 8.05401831,9.57743131 C7.61999105,9.14340988 6.42256711,7.95456483 6.42256711,7.95456483 C6.31514148,7.84748661 6.20494803,7.82499845 6.13151456,7.82499845 C5.96034279,7.82499845 5.80707529,7.94868331 5.7588116,8.12608027 C5.42918269,9.34588979 5.77861874,10.6579872 6.67097809,11.5504211 C7.33862583,12.2179734 8.226228,12.5855682 9.1703108,12.5855682 C9.65242876,12.5855682 10.1195832,12.4891286 10.5504102,12.3063691 L13.1022448,14.8581695 C12.2063392,15.4314445 11.1424621,15.7651341 9.99996195,15.7651341 Z" id="Shape"></path>
        </g>
    </g>
</svg>