<?xml version="1.0" encoding="UTF-8"?>
<svg width="20px" height="20px" viewBox="0 0 20 20" version="1.1" xmlns="http://www.w3.org/2000/svg" xmlns:xlink="http://www.w3.org/1999/xlink">
    <!-- Generator: Sketch 52.2 (67145) - http://www.bohemiancoding.com/sketch -->
    <title>Mobile</title>
    <desc>Created with Sketch.</desc>
    <g id="Mobile" stroke="none" stroke-width="1" fill="none" fill-rule="evenodd">
        <g id="Group" transform="translate(3.000000, 0.000000)" fill="">
            <path d="M9.71181145,8 L9.71181145,4.04176611 C9.71091867,3.07607399 8.93152397,2.2947494 7.96821712,2.29295943 L6.03178288,2.29295943 C5.06936881,2.2947494 4.28818855,3.07607399 4.28729578,4.04176611 L4.28729578,6 L2,6 L2,4.04176611 C2.00089278,1.80966587 3.80519596,0.000894988067 6.03178288,-8.8817842e-15 L7.96821712,-8.8817842e-15 C10.1956968,0.000894988067 11.9991072,1.80966587 12,4.04176611 L12,8 L14,8 L14,14.1378228 C14,17.3762306 11.2852351,20 7.93430796,20 L6.06657806,20 C2.71565091,20 0,17.3762306 0,14.1378228 L0,8 L9.71181145,8 Z M7.88912094,13.4606934 C8.46148978,13.2321301 8.86462882,12.6876873 8.86462882,12.0516479 C8.86462882,11.2093023 8.15758496,10.5270367 7.28662743,10.5270367 C6.41478387,10.5270367 5.70862604,11.2093023 5.70862604,12.0516479 C5.70862604,12.6859752 6.10910702,13.229562 6.6788178,13.4598374 L6.6788178,16.1452418 C6.6788178,16.4679698 6.94993988,16.7290626 7.28396937,16.7290626 C7.61799886,16.7290626 7.88912094,16.4679698 7.88912094,16.1452418 L7.88912094,13.4606934 Z" id="Combined-Shape"></path>
        </g>
    </g>
</svg>