<?xml version="1.0" encoding="utf-8"?>
<!-- Generator: Adobe Illustrator 21.0.2, SVG Export Plug-In . SVG Version: 6.00 Build 0)  -->
<svg version="1.1" id="Livello_1" xmlns="http://www.w3.org/2000/svg" xmlns:xlink="http://www.w3.org/1999/xlink" x="0px" y="0px"
	 viewBox="0 0 24 24" style="enable-background:new 0 0 24 24;" xml:space="preserve">
<g>
	<g>
		<circle cx="12" cy="19.7" r="0.7"/>
		<path d="M16.2,2H7.8C7,2,6.3,2.7,6.3,3.5v17.1C6.3,21.3,7,22,7.8,22h8.4c0.8,0,1.5-0.7,1.5-1.5V3.5C17.7,2.7,17,2,16.2,2z M13,3
			h0.3c0.2,0,0.3,0.1,0.3,0.3c0,0.2-0.1,0.3-0.3,0.3H13c-0.2,0-0.3-0.1-0.3-0.3C12.7,3.1,12.8,3,13,3z M10.7,3H12
			c0.2,0,0.3,0.1,0.3,0.3c0,0.2-0.1,0.3-0.3,0.3h-1.3c-0.2,0-0.3-0.1-0.3-0.3C10.3,3.1,10.5,3,10.7,3z M12,21
			c-0.7,0-1.3-0.6-1.3-1.3c0-0.7,0.6-1.3,1.3-1.3c0.7,0,1.3,0.6,1.3,1.3C13.3,20.4,12.7,21,12,21z M17,17.3H7V4.7h10V17.3z"/>
	</g>
</g>
<g>
	<g>
		<rect x="7.8" y="5.4" width="2.2" height="2.2"/>
		<rect x="10.9" y="5.4" width="2.2" height="2.2"/>
		<rect x="13.9" y="5.4" width="2.2" height="2.2"/>
	</g>
	<g>
		<rect x="7.8" y="8.5" width="5.3" height="5.3"/>
		<rect x="10.9" y="8.5" width="2.2" height="2.2"/>
		<rect x="13.9" y="8.5" width="2.2" height="2.2"/>
	</g>
	<g>
		<rect x="7.8" y="11.5" width="2.2" height="2.2"/>
		<rect x="10.9" y="11.5" width="2.2" height="2.2"/>
		<rect x="13.9" y="11.5" width="2.2" height="4.4"/>
	</g>
	<g>
		<rect x="7.8" y="14.6" width="3.8" height="2.2"/>
		<rect x="10.9" y="14.6" width="2.2" height="2.2"/>
		<rect x="13.9" y="14.6" width="2.2" height="2.2"/>
	</g>
</g>
</svg>
