<?xml version="1.0" encoding="utf-8"?>
<!-- Generator: Adobe Illustrator 24.0.0, SVG Export Plug-In . SVG Version: 6.00 Build 0)  -->
<svg version="1.1" id="Layer_1" xmlns="http://www.w3.org/2000/svg" xmlns:xlink="http://www.w3.org/1999/xlink" x="0px" y="0px"
	 viewBox="0 0 28.3 28.3" style="enable-background:new 0 0 28.3 28.3;" xml:space="preserve">
<style type="text/css">
	.st0{fill:#FFFFFF;}
</style>
<rect y="7.5" width="28.3" height="13.3"/>
<g>
	<path d="M15,24.3l-2.6-2.6l1.8-1.1c0.1-0.1,0.2-0.2,0.2-0.4c0-0.2-0.1-0.3-0.3-0.4l-8.2-3.3c-0.2-0.1-0.3,0-0.5,0.1
		c-0.1,0.1-0.2,0.3-0.1,0.5l3.3,8.2c0.1,0.2,0.2,0.3,0.4,0.3s0.3-0.1,0.4-0.2l1.1-1.8l2.6,2.6c0.1,0.1,0.2,0.1,0.3,0.1
		s0.2,0,0.3-0.1l1.3-1.3C15.2,24.7,15.2,24.5,15,24.3z"/>
	<path d="M4.1,14.7c-0.2-0.2-0.4-0.2-0.6,0c-0.2,0.2-0.2,0.4,0,0.6l1,1c0.1,0.1,0.2,0.1,0.3,0.1c0.1,0,0.2,0,0.3-0.1
		c0.2-0.2,0.2-0.4,0-0.6L4.1,14.7z"/>
	<path d="M4.5,17.6c0-0.2-0.2-0.4-0.4-0.4H2.7c-0.2,0-0.4,0.2-0.4,0.4c0,0.2,0.2,0.4,0.4,0.4H4C4.3,18.1,4.5,17.9,4.5,17.6z"/>
	<path d="M6.5,15.6c0.2,0,0.4-0.2,0.4-0.4v-1.4c0-0.2-0.2-0.4-0.4-0.4c-0.2,0-0.4,0.2-0.4,0.4v1.4C6.1,15.4,6.3,15.6,6.5,15.6z"/>
	<path d="M8.1,16.2c0.1,0,0.2,0,0.3-0.1l1-1c0.2-0.2,0.2-0.4,0-0.6c-0.2-0.2-0.4-0.2-0.6,0l-1,1c-0.2,0.2-0.2,0.4,0,0.6
		C7.9,16.1,8,16.2,8.1,16.2z"/>
</g>
<g>
	<path class="st0" d="M13.9,20.8l0.3-0.2c0.1-0.1,0.2-0.2,0.2-0.4s-0.1-0.3-0.3-0.4l-8.2-3.3c-0.2-0.1-0.3,0-0.5,0.1
		c-0.1,0.1-0.2,0.3-0.1,0.5l1.5,3.7C6.8,20.8,13.9,20.8,13.9,20.8z"/>
</g>
</svg>
