<?xml version="1.0" encoding="utf-8"?>
<!-- Generator: Adobe Illustrator 24.0.1, SVG Export Plug-In . SVG Version: 6.00 Build 0)  -->
<svg version="1.1" id="Layer_1" xmlns="http://www.w3.org/2000/svg" xmlns:xlink="http://www.w3.org/1999/xlink" x="0px" y="0px"
	 viewBox="0 0 28.3 28.3" style="enable-background:new 0 0 28.3 28.3;" xml:space="preserve">
<path d="M0,0v2v2.6v20.5v0.2v2.9h28.3v-1.4v-4V4.6V1.2V0H0z M1.9,25.4v-0.2V4.6V2V1.9h24.4v24.5H1.9V25.4z"/>
<g>
	<g>
		<g>
			<path d="M22.7,10.8H5.6c-0.2,0-0.4,0.2-0.4,0.4v0.8c0,0.2,0.2,0.4,0.4,0.4h17.1c0.2,0,0.4-0.2,0.4-0.4v-0.8
				C23.1,11,22.9,10.8,22.7,10.8z"/>
			<path d="M22.7,15.8H5.6c-0.2,0-0.4,0.2-0.4,0.4v0.8c0,0.2,0.2,0.4,0.4,0.4h17.1c0.2,0,0.4-0.2,0.4-0.4v-0.8
				C23.1,16,22.9,15.8,22.7,15.8z"/>
			<path d="M16.8,20.8H5.6c-0.2,0-0.4,0.2-0.4,0.4V22c0,0.2,0.2,0.4,0.4,0.4h11.2c0.2,0,0.4-0.2,0.4-0.4v-0.8
				C17.1,21,17,20.8,16.8,20.8z"/>
			<path d="M22.7,5.8H5.6C5.4,5.8,5.2,6,5.2,6.3v0.8c0,0.2,0.2,0.4,0.4,0.4h17.1c0.2,0,0.4-0.2,0.4-0.4V6.3
				C23.1,6,22.9,5.8,22.7,5.8z"/>
		</g>
	</g>
</g>
</svg>
