<?xml version="1.0" encoding="utf-8"?>
<!-- Generator: Adobe Illustrator 24.0.1, SVG Export Plug-In . SVG Version: 6.00 Build 0)  -->
<svg version="1.1" id="Layer_1" xmlns="http://www.w3.org/2000/svg" xmlns:xlink="http://www.w3.org/1999/xlink" x="0px" y="0px"
	 viewBox="0 0 28.3 28.3" style="enable-background:new 0 0 28.3 28.3;" xml:space="preserve">
<g>
	<g>
		<g id="radio-button-on">
			<path d="M6.3,11c-1.8,0-3.2,1.4-3.2,3.2s1.4,3.2,3.2,3.2s3.2-1.4,3.2-3.2S8,11,6.3,11z M6.3,7.8C2.9,7.8,0,10.6,0,14.1
				s2.9,6.3,6.3,6.3s6.3-2.9,6.3-6.3S9.8,7.8,6.3,7.8z M6.3,19.2c-2.7,0-5-2.3-5-5s2.3-5,5-5s5,2.3,5,5S9.1,19.2,6.3,19.2z"/>
		</g>
	</g>
	<g>
		<g id="check-circle-outline-blank">
			<path d="M22,7.8c-3.5,0-6.3,2.9-6.3,6.3s2.9,6.3,6.3,6.3s6.3-2.9,6.3-6.3S25.5,7.8,22,7.8z M22,19.2c-2.7,0-5-2.3-5-5s2.3-5,5-5
				s5,2.3,5,5S24.8,19.2,22,19.2z"/>
		</g>
	</g>
</g>
</svg>
