<?xml version="1.0" encoding="utf-8"?>
<!-- Generator: Adobe Illustrator 24.0.1, SVG Export Plug-In . SVG Version: 6.00 Build 0)  -->
<svg version="1.1" id="Layer_1" xmlns="http://www.w3.org/2000/svg" xmlns:xlink="http://www.w3.org/1999/xlink" x="0px" y="0px"
	 viewBox="0 0 28.3 28.3" style="enable-background:new 0 0 28.3 28.3;" xml:space="preserve">
<g>
	<g>
		<g id="radio-button-on">
			<path d="M7.6,11.5c-1.5,0-2.7,1.2-2.7,2.7s1.2,2.7,2.7,2.7s2.7-1.2,2.7-2.7S9,11.5,7.6,11.5z M7.6,8.8c-2.9,0-5.3,2.4-5.3,5.3
				s2.4,5.3,5.3,5.3s5.3-2.4,5.3-5.3S10.5,8.8,7.6,8.8z M7.6,18.4c-2.3,0-4.2-1.9-4.2-4.2s1.9-4.2,4.2-4.2s4.2,1.9,4.2,4.2
				S9.9,18.4,7.6,18.4z"/>
		</g>
	</g>
	<g>
		<g id="check-circle-outline-blank">
			<path d="M20.7,8.8c-2.9,0-5.3,2.4-5.3,5.3s2.4,5.3,5.3,5.3s5.3-2.4,5.3-5.3S23.7,8.8,20.7,8.8z M20.7,18.4
				c-2.3,0-4.2-1.9-4.2-4.2s1.9-4.2,4.2-4.2s4.2,1.9,4.2,4.2S23.1,18.4,20.7,18.4z"/>
		</g>
	</g>
</g>
</svg>
