<?xml version="1.0" encoding="utf-8"?>
<!-- Generator: Adobe Illustrator 24.0.1, SVG Export Plug-In . SVG Version: 6.00 Build 0)  -->
<svg version="1.1" id="Layer_1" xmlns="http://www.w3.org/2000/svg" xmlns:xlink="http://www.w3.org/1999/xlink" x="0px" y="0px"
	 viewBox="0 0 28.3 28.3" style="enable-background:new 0 0 28.3 28.3;" xml:space="preserve">
<g>
	<g>
		<path d="M22.7,10.4C22.5,7.9,20.3,6,17.6,6c-0.5,0-1.1,0.1-1.6,0.2c-1-1.3-2.5-2.1-4.2-2.1C9,4.2,6.6,6.4,6.6,9.1
			c0,0.2,0,0.3,0,0.5c-1.5,0.9-2.5,2.5-2.5,4.2c0,2.7,2.3,4.9,5.2,4.9c0.5,0,0.8-0.4,0.8-0.8S9.8,17,9.3,17c-1.9,0-3.5-1.5-3.5-3.2
			c0-1.3,0.8-2.4,2.1-3c0.4-0.2,0.6-0.6,0.5-1C8.3,9.6,8.3,9.3,8.3,9.1c0-1.8,1.6-3.2,3.5-3.2c1.3,0,2.5,0.7,3.1,1.8
			C15.1,8,15.6,8.2,16,8c0.5-0.2,1-0.4,1.6-0.4c1.9,0,3.5,1.4,3.5,3.2c0,0.2,0.1,0.4,0.3,0.6c0.7,0.6,1.1,1.4,1.1,2.3
			c0,1.8-1.6,3.2-3.5,3.2c-0.6,0-1.2-0.2-1.8-0.4c-0.4-0.2-0.9-0.1-1.1,0.3c-0.2,0.4-0.1,0.9,0.3,1.1c0.8,0.4,1.7,0.7,2.6,0.7
			c2.8,0,5.2-2.2,5.2-4.9C24.1,12.5,23.6,11.3,22.7,10.4L22.7,10.4z"/>
		<path d="M16.3,13.8l-2.4-2.5c-0.2-0.2-0.4-0.3-0.6-0.3l0,0c-0.2,0-0.4,0.1-0.6,0.3l-2.4,2.5c-0.3,0.3-0.3,0.9,0,1.2
			c0.3,0.3,0.9,0.3,1.2,0l1-1v9.4c0,0.5,0.4,0.8,0.8,0.8c0.5,0,0.8-0.4,0.8-0.8v-9.4l1,1c0.3,0.3,0.8,0.3,1.2,0
			C16.6,14.6,16.6,14.1,16.3,13.8L16.3,13.8z"/>
	</g>
</g>
</svg>
