<?xml version="1.0" encoding="utf-8"?>
<!-- Generator: Adobe Illustrator 24.0.1, SVG Export Plug-In . SVG Version: 6.00 Build 0)  -->
<svg version="1.1" id="Layer_1" xmlns="http://www.w3.org/2000/svg" xmlns:xlink="http://www.w3.org/1999/xlink" x="0px" y="0px"
	 viewBox="0 0 28.3 28.3" style="enable-background:new 0 0 28.3 28.3;" xml:space="preserve">
<g>
	<g>
		<path d="M26.2,8.9c-0.3-3.5-3.4-6.2-7.2-6.2c-0.7,0-1.5,0.1-2.3,0.3c-1.4-1.8-3.5-3-5.9-3C6.9,0.1,3.5,3.2,3.5,7
			c0,0.3,0,0.4,0,0.7C1.4,9,0,11.3,0,13.7c0,3.8,3.2,6.9,7.3,6.9c0.7,0,1.1-0.6,1.1-1.1c0-0.6-0.4-1.3-1.1-1.3
			c-2.7,0-4.9-2.1-4.9-4.5c0-1.8,1.1-3.4,3-4.2C5.9,9.2,6.2,8.6,6.1,8C5.9,7.7,5.9,7.3,5.9,7c0-2.5,2.3-4.5,4.9-4.5
			c1.8,0,3.5,1,4.4,2.5c0.3,0.4,1,0.7,1.5,0.4c0.7-0.3,1.4-0.6,2.3-0.6c2.7,0,4.9,2,4.9,4.5c0,0.3,0.1,0.6,0.4,0.8
			c1,0.8,1.5,2,1.5,3.2c0,2.5-2.3,4.5-4.9,4.5c-0.8,0-1.7-0.3-2.5-0.6c-0.6-0.3-1.3-0.1-1.5,0.4c-0.3,0.6-0.1,1.3,0.4,1.5
			c1.1,0.6,2.4,1,3.7,1c3.9,0,7.3-3.1,7.3-6.9C28.2,11.8,27.5,10.1,26.2,8.9L26.2,8.9z"/>
		<path d="M17.2,13.7l-3.4-3.5c-0.3-0.3-0.6-0.4-0.8-0.4l0,0c-0.3,0-0.6,0.1-0.8,0.4l-3.4,3.5c-0.4,0.4-0.4,1.3,0,1.7s1.3,0.4,1.7,0
			l1.4-1.4v13.2c0,0.7,0.6,1.1,1.1,1.1c0.7,0,1.1-0.6,1.1-1.1V13.9l1.4,1.4c0.4,0.4,1.1,0.4,1.7,0C17.6,14.8,17.6,14.1,17.2,13.7
			L17.2,13.7z"/>
	</g>
</g>
</svg>
