<?xml version="1.0" encoding="utf-8"?>
<!-- Generator: Adobe Illustrator 24.0.1, SVG Export Plug-In . SVG Version: 6.00 Build 0)  -->
<svg version="1.1" id="Layer_1" xmlns="http://www.w3.org/2000/svg" xmlns:xlink="http://www.w3.org/1999/xlink" x="0px" y="0px"
	 viewBox="0 0 28.3 28.3" style="enable-background:new 0 0 28.3 28.3;" xml:space="preserve">
<g>
	<path d="M19.4,17.4l4.2-1.4c0.3-0.1,0.5-0.4,0.5-0.7s-0.2-0.6-0.5-0.7l-12.2-4.1c-0.3-0.1-0.5,0-0.7,0.2c-0.2,0.2-0.3,0.5-0.2,0.7
		l4.1,12.2c0.1,0.3,0.4,0.5,0.7,0.5s0.6-0.2,0.7-0.5l1.4-4.2l5.4,5.4c0.3,0.3,0.6,0.4,1,0.4c0.4,0,0.7-0.1,1-0.4
		c0.6-0.6,0.6-1.5,0-2L19.4,17.4z"/>
	<path d="M11.9,9.1l3.5,1.2h6.9V6H6v4.3h3.2c0.1-0.2,0.3-0.5,0.4-0.7C10.1,9.3,10.6,9,11.2,9C11.4,9,11.6,9.1,11.9,9.1z"/>
	<path d="M23,3.1H5.3c-1.2,0-2.2,1-2.2,2.2V11c0,1.2,1,2.2,2.2,2.2h4.3l-0.4-1.3c0,0,0-0.1,0-0.1H5.3c-0.4,0-0.7-0.3-0.7-0.7V5.3
		c0-0.4,0.3-0.7,0.7-0.7H23c0.4,0,0.7,0.3,0.7,0.7V11c0,0.4-0.3,0.7-0.7,0.7h-3.3l4,1.3c0.9-0.3,1.5-1.1,1.5-2V5.3
		C25.2,4.1,24.2,3.1,23,3.1z"/>
</g>
</svg>
