<?xml version="1.0" encoding="utf-8"?>
<!-- Generator: Adobe Illustrator 24.0.1, SVG Export Plug-In . SVG Version: 6.00 Build 0)  -->
<svg version="1.1" id="Layer_1" xmlns="http://www.w3.org/2000/svg" xmlns:xlink="http://www.w3.org/1999/xlink" x="0px" y="0px"
	 viewBox="0 0 28.3 28.3" style="enable-background:new 0 0 28.3 28.3;" xml:space="preserve">
<g>
	<path d="M20.8,18.3l5.4-1.8c0.4-0.1,0.6-0.5,0.6-0.9c0-0.4-0.3-0.8-0.6-0.9L10.6,9.5c-0.4-0.1-0.6,0-0.9,0.3s-0.4,0.6-0.3,0.9
		l5.2,15.6c0.1,0.4,0.5,0.6,0.9,0.6s0.8-0.3,0.9-0.6l1.8-5.4l6.9,6.9c0.4,0.4,0.8,0.5,1.3,0.5s0.9-0.1,1.3-0.5
		c0.8-0.8,0.8-1.9,0-2.6L20.8,18.3z"/>
	<path d="M11.3,7.7l4.5,1.5h8.8V3.7H3.7v5.5h4.1C7.9,9,8.2,8.6,8.3,8.3C9,8,9.6,7.6,10.4,7.6C10.6,7.6,10.9,7.7,11.3,7.7z"/>
	<path d="M25.4,0H2.8C1.3,0,0,1.3,0,2.8v7.3c0,1.5,1.3,2.8,2.8,2.8h5.5l-0.5-1.7v-0.1h-5c-0.5,0-0.9-0.4-0.9-0.9V2.8
		C1.9,2.3,2.3,2,2.8,2h22.6c0.5,0,0.9,0.4,0.9,0.9v7.3c0,0.5-0.4,0.9-0.9,0.9h-4.2l5.1,1.7c1.1-0.4,1.9-1.4,1.9-2.6V2.8
		C28.3,1.3,27,0,25.4,0z"/>
</g>
</svg>
