<?xml version="1.0" encoding="utf-8"?>
<!-- Generator: Adobe Illustrator 24.0.1, SVG Export Plug-In . SVG Version: 6.00 Build 0)  -->
<svg version="1.1" id="Layer_1" xmlns="http://www.w3.org/2000/svg" xmlns:xlink="http://www.w3.org/1999/xlink" x="0px" y="0px"
	 viewBox="0 0 28.3 28.3" style="enable-background:new 0 0 28.3 28.3;" xml:space="preserve">
<path d="M28.3,20.8H0V7.5h28.3V20.8z M1.9,18.9h24.4V9.4H1.9V18.9z"/>
<g>
	<path d="M7.1,17.6H5.7v-5.2l-1.6,0.5v-1.1l2.8-1h0.1V17.6z"/>
	<path d="M16.4,17.6h-4.7v-0.9l2.2-2.4c0.3-0.3,0.5-0.6,0.7-0.9c0.1-0.2,0.2-0.5,0.2-0.7c0-0.3-0.1-0.5-0.2-0.7
		c-0.2-0.2-0.4-0.3-0.7-0.3c-0.3,0-0.5,0.1-0.7,0.3s-0.3,0.5-0.3,0.8h-1.4c0-0.4,0.1-0.8,0.3-1.1s0.5-0.6,0.8-0.8s0.8-0.3,1.2-0.3
		c0.7,0,1.3,0.2,1.6,0.5c0.4,0.3,0.6,0.8,0.6,1.4c0,0.3-0.1,0.7-0.3,1c-0.2,0.4-0.5,0.8-0.9,1.2l-1.6,1.6h2.9V17.6z"/>
	<path d="M21,13.5h0.7c0.3,0,0.6-0.1,0.8-0.3c0.2-0.2,0.2-0.4,0.2-0.7c0-0.3-0.1-0.5-0.2-0.6c-0.2-0.2-0.4-0.2-0.7-0.2
		c-0.3,0-0.5,0.1-0.7,0.2c-0.2,0.1-0.3,0.3-0.3,0.6h-1.4c0-0.4,0.1-0.7,0.3-1c0.2-0.3,0.5-0.5,0.8-0.7c0.3-0.2,0.7-0.2,1.1-0.2
		c0.7,0,1.3,0.2,1.7,0.5s0.6,0.8,0.6,1.4c0,0.3-0.1,0.6-0.3,0.9s-0.4,0.5-0.8,0.6c0.4,0.1,0.7,0.3,0.9,0.6c0.2,0.3,0.3,0.6,0.3,1
		c0,0.6-0.2,1.1-0.7,1.5c-0.4,0.4-1,0.5-1.8,0.5c-0.7,0-1.2-0.2-1.7-0.5c-0.4-0.4-0.7-0.8-0.7-1.4h1.4c0,0.3,0.1,0.5,0.3,0.6
		s0.4,0.2,0.7,0.2c0.3,0,0.6-0.1,0.8-0.3c0.2-0.2,0.3-0.4,0.3-0.7c0-0.7-0.4-1-1.1-1H21V13.5z"/>
</g>
</svg>
