<?xml version="1.0" encoding="utf-8"?>
<!-- Generator: Adobe Illustrator 24.0.1, SVG Export Plug-In . SVG Version: 6.00 Build 0)  -->
<svg version="1.1" id="Layer_1" xmlns="http://www.w3.org/2000/svg" xmlns:xlink="http://www.w3.org/1999/xlink" x="0px" y="0px"
	 viewBox="0 0 28.3 28.3" style="enable-background:new 0 0 28.3 28.3;" xml:space="preserve">
<g>
	<path d="M17.9,16.7c0-0.4-0.3-0.6-0.8-0.6c-0.2,0-0.4,0-0.5,0v1.2h0.4C17.5,17.3,17.9,17.1,17.9,16.7z"/>
	<path d="M25.2,24.7l-2.6-14.2c-0.1-0.6-0.6-1-1.2-1h-4.2c0.8-0.8,1.3-1.9,1.3-3.1c0-2.4-1.9-4.3-4.3-4.3c-2.4,0-4.3,1.9-4.3,4.3
		c0,1.2,0.5,2.3,1.3,3.1H6.9c-0.6,0-1.1,0.4-1.2,1L3.1,24.7c-0.1,0.4,0,0.7,0.3,1C3.6,26,4,26.2,4.3,26.2H24c0.4,0,0.7-0.2,0.9-0.4
		C25.1,25.5,25.2,25.1,25.2,24.7z M14.2,4.5c1.1,0,1.9,0.9,1.9,1.9s-0.9,1.9-1.9,1.9s-1.9-0.9-1.9-1.9C12.2,5.4,13.1,4.5,14.2,4.5z
		 M13.5,20.3l-0.1-1.9c0-0.6,0-1.3,0-2h0c-0.2,0.6-0.4,1.3-0.6,1.9l-0.6,1.9h-0.9l-0.5-1.9c-0.2-0.6-0.3-1.3-0.4-1.9h0
		c0,0.7-0.1,1.4-0.1,2l-0.1,1.9h-1l0.3-4.9H11l0.5,1.7c0.2,0.6,0.3,1.2,0.4,1.8h0c0.1-0.6,0.3-1.2,0.5-1.8l0.5-1.6h1.5l0.3,4.9H13.5
		z M18.6,19.9c-0.4,0.3-1,0.4-1.9,0.4c-0.6,0-1,0-1.2-0.1v-4.9c0.3-0.1,0.9-0.1,1.4-0.1c0.7,0,1.1,0.1,1.5,0.3
		c0.3,0.2,0.6,0.5,0.6,1c0,0.4-0.3,0.9-0.8,1.1v0c0.6,0.2,1,0.6,1,1.2C19.1,19.3,18.9,19.6,18.6,19.9z"/>
	<path d="M17,18.1h-0.4v1.4c0.1,0,0.2,0,0.4,0c0.5,0,1-0.2,1-0.7C18,18.3,17.5,18.1,17,18.1z"/>
</g>
</svg>
