<?xml version="1.0" encoding="utf-8"?>
<!-- Generator: Adobe Illustrator 24.0.1, SVG Export Plug-In . SVG Version: 6.00 Build 0)  -->
<svg version="1.1" id="Livello_1" xmlns="http://www.w3.org/2000/svg" xmlns:xlink="http://www.w3.org/1999/xlink" x="0px" y="0px"
	 viewBox="0 0 566.9 566.9" style="enable-background:new 0 0 566.9 566.9;" xml:space="preserve">
<style type="text/css">
	.st0{fill:#FFFFFF;}
</style>
<g>
	<rect x="0.1" y="0.5" width="120.3" height="565.9"/>
	<path class="st0" d="M120.5,566.9H0V0h120.5V566.9z M0.2,565.9h120V1H0.2V565.9z"/>
</g>
<g>
	<rect x="148.9" y="0.5" width="120.3" height="565.9"/>
	<path class="st0" d="M269.3,566.9H148.8V0h120.5V566.9z M149,565.9h120V1H149V565.9z"/>
</g>
<g>
	<rect x="297.7" y="0.5" width="120.3" height="565.9"/>
	<path class="st0" d="M418.1,566.9H297.6V0h120.5V566.9z M297.8,565.9h120V1h-120V565.9z"/>
</g>
<g>
	<rect x="446.5" y="0.5" width="120.3" height="565.9"/>
	<path class="st0" d="M566.9,566.9H446.4V0h120.5V566.9z M446.6,565.9h120V1h-120V565.9z"/>
</g>
</svg>
