<?xml version="1.0" encoding="UTF-8"?>
<svg width="20px" height="20px" viewBox="0 0 20 20" version="1.1" xmlns="http://www.w3.org/2000/svg" xmlns:xlink="http://www.w3.org/1999/xlink">
    <!-- Generator: Sketch 52 (66869) - http://www.bohemiancoding.com/sketch -->
    <title>Combined Shape</title>
    <desc>Created with Sketch.</desc>
    <g id="Page-1" stroke="none" stroke-width="1" fill="none" fill-rule="evenodd">
        <g id="Artboard" fill="" fill-rule="nonzero">
            <path d="M5.38134144,16.5328721 C6.68600548,17.456933 8.27958269,18 10,18 C14.418278,18 18,14.418278 18,10 C18,8.27958269 17.456933,6.68600548 16.5328721,5.38134144 L5.38134144,16.5328721 Z M3.90442435,15.1813621 L15.1813621,3.90442435 C13.7854574,2.71671702 11.9764278,2 10,2 C5.581722,2 2,5.581722 2,10 C2,11.9764278 2.71671702,13.7854574 3.90442435,15.1813621 Z M10,20 C4.4771525,20 0,15.5228475 0,10 C0,4.4771525 4.4771525,0 10,0 C15.5228475,0 20,4.4771525 20,10 C20,15.5228475 15.5228475,20 10,20 Z" id="Combined-Shape"></path>
        </g>
    </g>
</svg>