<?xml version="1.0" encoding="UTF-8"?>
<svg width="20px" height="20px" viewBox="0 0 20 20" version="1.1" xmlns="http://www.w3.org/2000/svg" xmlns:xlink="http://www.w3.org/1999/xlink">
    <!-- Generator: Sketch 52.2 (67145) - http://www.bohemiancoding.com/sketch -->
    <title>Mobile</title>
    <desc>Created with Sketch.</desc>
    <g id="Mobile" stroke="none" stroke-width="1" fill="none" fill-rule="evenodd">
        <path d="M17.5,5 C16.1192881,5 15,3.88071187 15,2.5 C15,1.11928813 16.1192881,4.4408921e-16 17.5,4.4408921e-16 C18.8807119,4.4408921e-16 20,1.11928813 20,2.5 C20,3.88071187 18.8807119,5 17.5,5 Z M17.5,4 C18.3284271,4 19,3.32842712 19,2.5 C19,1.67157288 18.3284271,1 17.5,1 C16.6715729,1 16,1.67157288 16,2.5 C16,3.32842712 16.6715729,4 17.5,4 Z" id="Oval" fill="" fill-rule="nonzero"></path>
        <path d="M17.5,12.5 C16.1192881,12.5 15,11.3807119 15,10 C15,8.61928813 16.1192881,7.5 17.5,7.5 C18.8807119,7.5 20,8.61928813 20,10 C20,11.3807119 18.8807119,12.5 17.5,12.5 Z M17.5,11.5 C18.3284271,11.5 19,10.8284271 19,10 C19,9.17157288 18.3284271,8.5 17.5,8.5 C16.6715729,8.5 16,9.17157288 16,10 C16,10.8284271 16.6715729,11.5 17.5,11.5 Z" id="Oval" fill="" fill-rule="nonzero"></path>
        <path d="M17.5,20 C16.1192881,20 15,18.8807119 15,17.5 C15,16.1192881 16.1192881,15 17.5,15 C18.8807119,15 20,16.1192881 20,17.5 C20,18.8807119 18.8807119,20 17.5,20 Z M17.5,19 C18.3284271,19 19,18.3284271 19,17.5 C19,16.6715729 18.3284271,16 17.5,16 C16.6715729,16 16,16.6715729 16,17.5 C16,18.3284271 16.6715729,19 17.5,19 Z" id="Oval" fill="" fill-rule="nonzero"></path>
        <path d="M2.5,5 C1.11928813,5 2.22044605e-15,3.88071187 2.22044605e-15,2.5 C2.22044605e-15,1.11928813 1.11928813,4.4408921e-16 2.5,4.4408921e-16 C3.88071187,4.4408921e-16 5,1.11928813 5,2.5 C5,3.88071187 3.88071187,5 2.5,5 Z M2.5,4 C3.32842712,4 4,3.32842712 4,2.5 C4,1.67157288 3.32842712,1 2.5,1 C1.67157288,1 1,1.67157288 1,2.5 C1,3.32842712 1.67157288,4 2.5,4 Z" id="Oval" fill="" fill-rule="nonzero"></path>
        <path d="M2.5,12.5 C1.11928813,12.5 2.22044605e-15,11.3807119 2.22044605e-15,10 C2.22044605e-15,8.61928813 1.11928813,7.5 2.5,7.5 C3.88071187,7.5 5,8.61928813 5,10 C5,11.3807119 3.88071187,12.5 2.5,12.5 Z M2.5,11.5 C3.32842712,11.5 4,10.8284271 4,10 C4,9.17157288 3.32842712,8.5 2.5,8.5 C1.67157288,8.5 1,9.17157288 1,10 C1,10.8284271 1.67157288,11.5 2.5,11.5 Z" id="Oval" fill="" fill-rule="nonzero"></path>
        <path d="M2.5,20 C1.11928813,20 2.22044605e-15,18.8807119 2.22044605e-15,17.5 C2.22044605e-15,16.1192881 1.11928813,15 2.5,15 C3.88071187,15 5,16.1192881 5,17.5 C5,18.8807119 3.88071187,20 2.5,20 Z M2.5,19 C3.32842712,19 4,18.3284271 4,17.5 C4,16.6715729 3.32842712,16 2.5,16 C1.67157288,16 1,16.6715729 1,17.5 C1,18.3284271 1.67157288,19 2.5,19 Z" id="Oval" fill="" fill-rule="nonzero"></path>
        <path d="M10,5 C8.61928813,5 7.5,3.88071187 7.5,2.5 C7.5,1.11928813 8.61928813,4.4408921e-16 10,4.4408921e-16 C11.3807119,4.4408921e-16 12.5,1.11928813 12.5,2.5 C12.5,3.88071187 11.3807119,5 10,5 Z M10,4 C10.8284271,4 11.5,3.32842712 11.5,2.5 C11.5,1.67157288 10.8284271,1 10,1 C9.17157288,1 8.5,1.67157288 8.5,2.5 C8.5,3.32842712 9.17157288,4 10,4 Z" id="Oval" fill="" fill-rule="nonzero"></path>
        <path d="M10,12.5 C8.61928813,12.5 7.5,11.3807119 7.5,10 C7.5,8.61928813 8.61928813,7.5 10,7.5 C11.3807119,7.5 12.5,8.61928813 12.5,10 C12.5,11.3807119 11.3807119,12.5 10,12.5 Z" id="Combined-Shape" fill="" fill-rule="nonzero"></path>
        <path d="M10,20 C8.61928813,20 7.5,18.8807119 7.5,17.5 C7.5,16.1192881 8.61928813,15 10,15 C11.3807119,15 12.5,16.1192881 12.5,17.5 C12.5,18.8807119 11.3807119,20 10,20 Z M10,19 C10.8284271,19 11.5,18.3284271 11.5,17.5 C11.5,16.6715729 10.8284271,16 10,16 C9.17157288,16 8.5,16.6715729 8.5,17.5 C8.5,18.3284271 9.17157288,19 10,19 Z" id="Oval" fill="" fill-rule="nonzero"></path>
    </g>
</svg>