<?xml version="1.0" encoding="UTF-8"?>
<svg width="20px" height="20px" viewBox="0 0 20 20" version="1.1" xmlns="http://www.w3.org/2000/svg" xmlns:xlink="http://www.w3.org/1999/xlink">
    <!-- Generator: Sketch 52.2 (67145) - http://www.bohemiancoding.com/sketch -->
    <title>Mobile</title>
    <desc>Created with Sketch.</desc>
    <g id="Mobile" stroke="none" stroke-width="1" fill="none" fill-rule="evenodd">
        <path d="M10,12.5 C8.61928813,12.5 7.5,11.3807119 7.5,10 C7.5,8.61928813 8.61928813,7.5 10,7.5 C11.3807119,7.5 12.5,8.61928813 12.5,10 C12.5,11.3807119 11.3807119,12.5 10,12.5 Z" id="Combined-Shape" fill=""></path>
        <path d="M17.5,5 C16.1192881,5 15,3.8807119 15,2.5 C15,1.11928813 16.1192881,0 17.5,0 C18.8807119,0 20,1.11928813 20,2.5 C20,3.8807119 18.8807119,5 17.5,5 Z" id="Combined-Shape" fill=""></path>
        <path d="M17.5,12.5 C16.1192881,12.5 15,11.3807119 15,10 C15,8.61928813 16.1192881,7.5 17.5,7.5 C18.8807119,7.5 20,8.61928813 20,10 C20,11.3807119 18.8807119,12.5 17.5,12.5 Z" id="Combined-Shape" fill=""></path>
        <path d="M2.5,12.5 C1.11928813,12.5 0,11.3807119 0,10 C0,8.61928813 1.11928813,7.5 2.5,7.5 C3.8807119,7.5 5,8.61928813 5,10 C5,11.3807119 3.8807119,12.5 2.5,12.5 Z" id="Combined-Shape" fill=""></path>
        <path d="M17.5,20 C16.1192881,20 15,18.8807119 15,17.5 C15,16.1192881 16.1192881,15 17.5,15 C18.8807119,15 20,16.1192881 20,17.5 C20,18.8807119 18.8807119,20 17.5,20 Z" id="Combined-Shape" fill=""></path>
        <path d="M10.5,20 C9.11928813,20 8,18.8807119 8,17.5 C8,16.1192881 9.11928813,15 10.5,15 C11.8807119,15 13,16.1192881 13,17.5 C13,18.8807119 11.8807119,20 10.5,20 Z" id="Combined-Shape" fill=""></path>
        <path d="M10,5 C8.61928813,5 7.5,3.8807119 7.5,2.5 C7.5,1.11928813 8.61928813,0 10,0 C11.3807119,0 12.5,1.11928813 12.5,2.5 C12.5,3.8807119 11.3807119,5 10,5 Z" id="Combined-Shape" fill=""></path>
        <path d="M2.5,20 C1.11928813,20 0,18.8807119 0,17.5 C0,16.1192881 1.11928813,15 2.5,15 C3.8807119,15 5,16.1192881 5,17.5 C5,18.8807119 3.8807119,20 2.5,20 Z" id="Combined-Shape" fill=""></path>
        <path d="M2.5,5 C1.11928813,5 0,3.8807119 0,2.5 C0,1.11928813 1.11928813,0 2.5,0 C3.8807119,0 5,1.11928813 5,2.5 C5,3.8807119 3.8807119,5 2.5,5 Z" id="Combined-Shape" fill=""></path>
    </g>
</svg>