<?xml version="1.0" encoding="utf-8"?>
<!-- Generator: Adobe Illustrator 23.0.4, SVG Export Plug-In . SVG Version: 6.00 Build 0)  -->
<svg version="1.1" id="Layer_1" xmlns="http://www.w3.org/2000/svg" xmlns:xlink="http://www.w3.org/1999/xlink" x="0px" y="0px"
	 viewBox="0 0 500 500" style="enable-background:new 0 0 500 500;" xml:space="preserve">
<path d="M494.1,305.4l-62.7-29.7l62.7-30c3.5-1.7,5.6-4.7,5.6-8c0-3.3-2.2-6.3-5.6-8l-159-75.5c-3.5-1.7-7.9-1.7-11.4,0l-10.1,4.8
	l-1.3-7.7l62.3-60.7L288.5,78L250,0l-38.5,78l-86.1,12.5l62.3,60.7l-1.3,7.8l-10.3-4.9c-3.5-1.7-7.9-1.7-11.4,0l-159,75.5
	c-3.5,1.7-5.6,4.7-5.6,8c0,3.3,2.1,6.4,5.6,8l62.7,30L5.6,305.4c-3.5,1.7-5.6,4.7-5.6,8c0,3.3,3.3,6.3,6.8,8L90,360.5v56.8
	c0,1.1-0.5,2.1,0.7,2.7l157.8,75.1c0.3,0.1,0.3,0.2,0.6,0.3c0.3,0.1,0.5,0.1,0.8,0.1c0.7,0,1.2-0.1,1.8-0.4l159.5-75.5
	c1.2-0.6,2.3-1.6,2.3-2.7v-56.7l81-38.8c3.5-1.7,5.4-4.7,5.4-8C500,310.1,497.6,307.1,494.1,305.4z M329.4,172.9l136.5,64.8
	l-57,27.2l-84-40l-7.9-46.2L329.4,172.9z M33.9,237.7l136.5-64.8l12.6,6l-7.9,45.9l-84.3,40.1L33.9,237.7z M98.6,268.4l-0.3,0.1
	l-0.6-0.3C98,268.3,98.4,268.3,98.6,268.4z M170.4,378.5l-136.5-65l56.9-27l136.5,64.8L170.4,378.5z M329.4,378.5l-57.1-27.3
	l136.6-64.8l57,27.1L329.4,378.5z"/>
</svg>
