<?xml version="1.0" encoding="iso-8859-1"?>
<!-- Generator: Adobe Illustrator 19.0.0, SVG Export Plug-In . SVG Version: 6.00 Build 0)  -->
<svg version="1.1" id="Layer_1" xmlns="http://www.w3.org/2000/svg" xmlns:xlink="http://www.w3.org/1999/xlink" x="0px" y="0px"
	 viewBox="0 0 499.996 499.996" style="enable-background:new 0 0 499.996 499.996;" xml:space="preserve">
<g>
	<g>
		<path d="M494.128,226.969l-62.656-36.38l62.688-36.656c3.48-2.04,5.62-5.772,5.612-9.808c-0.008-4.036-2.156-7.756-5.644-9.792
			L335.08,41.953c-3.524-2.048-7.872-2.04-11.4-0.008l-73.788,42.864l-73.8-42.864c-3.524-2.04-7.876-2.04-11.4,0.008L5.648,134.332
			c-3.492,2.036-5.64,5.756-5.648,9.792c-0.008,4.036,2.132,7.768,5.616,9.808l62.688,36.656l-62.656,36.38
			c-3.496,2.036-5.644,5.764-5.648,9.808c0,4.036,3.312,7.764,6.796,9.8L90.044,294.4v69.52c0,1.348-0.456,2.596,0.72,3.276
			l157.812,91.884c0.292,0.168,0.312,0.296,0.632,0.38c0.312,0.088,0.496,0.12,0.824,0.12c0.66,0,1.24-0.164,1.824-0.5l159.48-92.38
			c1.164-0.68,2.288-1.916,2.288-3.264v-69.408l80.964-47.448c3.488-2.036,5.408-5.764,5.408-9.8
			C499.992,232.736,497.624,229.004,494.128,226.969z M170.392,316.332L33.9,236.801l56.936-33.068l136.492,79.32L170.392,316.332z
			 M97.704,181.488c0.344,0.04,0.656,0.1,0.892,0.208l-0.268,0.152L97.704,181.488z M90.812,177.469l-56.944-33.288l136.524-79.304
			l56.944,33.072L90.812,177.469z M329.38,64.873l136.528,79.304l-56.968,33.308L272.792,98.149
			c-0.12-0.068-0.236-0.136-0.356-0.204L329.38,64.873z M329.384,316.332l-57.144-33.404l136.632-79.236l57.008,33.108
			L329.384,316.332z"/>
	</g>
</g>
<g>
</g>
<g>
</g>
<g>
</g>
<g>
</g>
<g>
</g>
<g>
</g>
<g>
</g>
<g>
</g>
<g>
</g>
<g>
</g>
<g>
</g>
<g>
</g>
<g>
</g>
<g>
</g>
<g>
</g>
</svg>
