<svg xmlns="http://www.w3.org/2000/svg" viewBox="0 0 20 20.09">
  <path d="M18.53,0H8.44A1.45,1.45,0,0,0,7,1.47v.64H8.35V1.47a.09.09,0,0,1,.09-.09H18.53a.09.09,0,0,1,.1.09V11.65c0,.09-.1.09-.1.09h-.82v1.38h.82A1.45,1.45,0,0,0,20,11.65V1.47A1.45,1.45,0,0,0,18.53,0ZM15.05,3.49H4.77A1.33,1.33,0,0,0,3.49,4.86V5.6H4.77V5a.09.09,0,0,1,.09-.09H15a.09.09,0,0,1,.09.09V15.14a.09.09,0,0,1-.09.09h-.74v1.28h.83a1.33,1.33,0,0,0,1.28-1.37V4.86A1.27,1.27,0,0,0,15.05,3.49ZM11.56,7H1.28A1.34,1.34,0,0,0,0,8.35V18.72a1.33,1.33,0,0,0,1.28,1.37H11.56a1.33,1.33,0,0,0,1.28-1.37V8.35A1.28,1.28,0,0,0,11.56,7Zm.09,11.56a.32.32,0,0,1-.09.19H1.47a.09.09,0,0,1-.09-.09V8.35a.09.09,0,0,1,.09-.09H11.56a.09.09,0,0,1,.09.09ZM4.28,10H4.1C4,10,4,10.09,4,10.18v6.61c0,.09,0,.09.09.18h.18L9,13.67l.09-.09A.44.44,0,0,0,9,13.3Z" transform="translate(0 0)"/>
</svg>
