<svg xmlns="http://www.w3.org/2000/svg" xml:space="preserve" style="enable-background:new 0 0 384 384" viewBox="0 0 384 384"><path d="M213.333 170.667H256v42.667h-42.667zM256 128h42.667v42.667H256z"/><path d="M341.333 0H42.667C19.2 0 0 19.2 0 42.667v298.667C0 364.8 19.2 384 42.667 384h298.667C364.8 384 384 364.8 384 341.333V42.667C384 19.2 364.8 0 341.333 0zM128 320H85.333v-42.667H128V320zm85.333 0h-42.667v-42.667h42.667V320zm85.334 0H256v-42.667h42.667V320zm42.666-149.333h-42.667v42.667h42.667V256h-42.667v-42.667H256V256h-42.667v-42.667h-42.667V256H128v-42.667H85.333V256H42.667v-42.667h42.667v-42.667H42.667v-128h298.667v128.001z"/><path d="M170.667 128h42.667v42.667h-42.667zM128 170.667h42.667v42.667H128zM85.333 128H128v42.667H85.333z"/></svg>