<?xml version="1.0" encoding="UTF-8"?>
<svg width="77px" height="77px" viewBox="0 0 77 77" version="1.1" xmlns="http://www.w3.org/2000/svg" xmlns:xlink="http://www.w3.org/1999/xlink">
    <!-- Generator: Sketch 52.4 (67378) - http://www.bohemiancoding.com/sketch -->
    <title>Combined Shape</title>
    <desc>Created with Sketch.</desc>
    <g id="Page-1" stroke="none" stroke-width="1" fill="none" fill-rule="evenodd">
        <g id="-" transform="translate(-56.000000, -49.000000)" fill="">
            <path d="M81,76 L81,101 L106,101 L106,126 L56,126 L56,76 L81,76 Z M83,49 L133,49 L133,99 L83,99 L83,49 Z M108.5,63 C102.148714,63 97,68.1487143 97,74.5 C97,80.8512857 102.148714,86 108.5,86 C114.851286,86 120,80.8512857 120,74.5 C120,68.1487143 114.851286,63 108.5,63 Z M105.394343,79.2554396 L105.394343,69.7445604 L113.627635,74.5 L105.394343,79.2554396 Z M129,53.8076797 L128.192293,53 L125.5,55.692293 L122.80768,53 L122,53.8076797 L124.692293,56.5 L122,59.192293 L122.80768,60 L125.5,57.3076797 L128.192293,60 L129,59.192293 L126.30768,56.5 L129,53.8076797 Z" id="Combined-Shape"></path>
        </g>
    </g>
</svg>