<?xml version="1.0" encoding="UTF-8"?>
<svg width="100px" height="100px" viewBox="0 0 100 100" version="1.1" xmlns="http://www.w3.org/2000/svg" xmlns:xlink="http://www.w3.org/1999/xlink">
    <!-- Generator: Sketch 51.3 (57544) - http://www.bohemiancoding.com/sketch -->
    <title>Mobile</title>
    <desc>Created with Sketch.</desc>
    <defs></defs>
    <g id="Mobile" stroke="none" stroke-width="1" fill="none" fill-rule="evenodd" transform="rotate(45,50,50)">
        <g id="add" fill="" fill-rule="nonzero">
            <path d="M94.202542,44.2031461 L55.797458,44.2031461 L55.797458,5.79890391 C55.797458,2.60082822 53.202132,0 50,0 C46.797868,0 44.202542,2.60082822 44.202542,5.79753721 L44.202542,44.2031461 L5.79745797,44.2031461 C2.59669263,44.2031461 0,46.8039744 0,50.0006833 C0,53.2083259 2.59669263,55.7982206 5.79745797,55.7982206 L44.202542,55.7982206 L44.202542,94.2024628 C44.202542,97.4128388 46.797868,100 50,100 C53.202132,100 55.797458,97.4087387 55.797458,94.2024628 L55.797458,55.7982206 L94.202542,55.7982206 C97.4060407,55.7982206 100,53.2069592 100,50.0006833 C100,46.8039744 97.404674,44.2031461 94.202542,44.2031461 Z" id="Shape"></path>
        </g>
    </g>
</svg>