<?xml version="1.0" encoding="UTF-8"?>
<svg width="20px" height="20px" viewBox="0 0 20 20" version="1.1" xmlns="http://www.w3.org/2000/svg" xmlns:xlink="http://www.w3.org/1999/xlink">
    <!-- Generator: Sketch 52.1 (67048) - http://www.bohemiancoding.com/sketch -->
    <title>Mobile</title>
    <desc>Created with Sketch.</desc>
    <g id="Mobile" stroke="none" stroke-width="1" fill="none" fill-rule="evenodd">
        <path d="M19.937418,8.88961665 C19.9057911,8.60847865 19.5779871,8.39721587 19.2945353,8.39721587 C18.378098,8.39721587 17.5648763,7.85912458 17.2238262,7.02694716 C16.8754089,6.17460341 17.1000718,5.18057445 17.783065,4.55407872 C17.9980538,4.35755001 18.0241739,4.02856349 17.8438631,3.80003654 C17.3748169,3.20442284 16.8416983,2.66640596 16.2596137,2.20012467 C16.0316764,2.01721381 15.6972494,2.04266357 15.4995996,2.26151663 C14.9035247,2.92164771 13.8328224,3.16699234 13.0054616,2.82178345 C12.1444645,2.45960805 11.6015229,1.58717238 11.6546562,0.650665831 C11.672144,0.35650529 11.4571552,0.100742634 11.1638804,0.0665863763 C10.4168892,-0.0198088648 9.66334935,-0.022487787 8.91412564,0.0606332158 C8.62419959,0.0926314532 8.40921078,0.342366534 8.41895932,0.63280635 C8.45155368,1.5600855 7.90206343,2.41726619 7.04962426,2.76641906 C6.23216077,3.10031694 5.16897453,2.85705592 4.57409031,2.20280359 C4.37748234,1.98729918 4.04848771,1.96080762 3.81943421,2.13932802 C3.22008501,2.60955328 2.67498533,3.14801664 2.20162299,3.73871899 C2.01699605,3.96836215 2.04415802,4.30121823 2.2613049,4.49878875 C2.95732092,5.12907961 3.18205826,6.13174066 2.82046927,6.99390712 C2.47525187,7.81588975 1.62169646,8.34564661 0.644535506,8.34564661 C0.327447483,8.33545183 0.101593893,8.54827731 0.0669158787,8.83655911 C-0.0210442346,9.58784796 -0.0220860633,10.35335 0.062599731,11.1107408 C0.0940034262,11.3930694 0.431779191,11.6024719 0.718356514,11.6024719 C1.58917652,11.5802219 2.42524409,12.119355 2.7759683,12.972815 C3.12557626,13.8251587 2.90083892,14.8185924 2.21680393,15.445609 C2.00285695,15.6421377 1.97569499,15.9706033 2.15600578,16.1991303 C2.6206614,16.7909489 3.15385447,17.3294866 3.73802274,17.7996375 C3.96715065,17.9842599 4.30053585,17.9582148 4.49915306,17.7393617 C5.09746043,17.0775935 6.1680883,16.8326954 6.99217485,17.178574 C7.85532997,17.5396332 8.39827158,18.4119944 8.34513831,19.3490219 C8.32779931,19.6433313 8.54382994,19.8995404 8.83591407,19.9331758 C9.21804197,19.9777501 9.60247678,20 9.98795342,20 C10.3538586,20 10.7198381,19.9799081 11.0857433,19.9392033 C11.3757437,19.9072051 11.5905837,19.65747 11.5808352,19.3665093 C11.5472734,18.4397511 12.0977311,17.5825704 12.949054,17.2340128 C13.7720243,16.8978825 14.8307455,17.1438969 15.4257042,17.7974795 C15.6234284,18.0125374 15.9501161,18.038508 16.1804347,17.860583 C16.7786676,17.3914739 17.3226511,16.853457 17.7982459,16.2611176 C17.9827984,16.0319953 17.9567527,15.6986183 17.7384896,15.5011222 C17.0424736,14.8708314 16.81662,13.8680215 17.178209,13.0064503 C17.5181428,12.1954066 18.3399969,11.6508413 19.2239886,11.6508413 L19.3476685,11.6540411 C19.6343947,11.6773329 19.8982006,11.4564706 19.932953,11.1637984 C20.021062,10.4118398 20.0221038,9.64700749 19.937418,8.88961665 Z M10.0158596,13.3567194 C8.17643647,13.3567194 6.68022155,11.8605414 6.68022155,10.0211636 C6.68022155,8.18186029 8.17643647,6.68560782 10.0158596,6.68560782 C11.8552082,6.68560782 13.3514231,8.18186029 13.3514231,10.0211636 C13.3514231,11.8605414 11.8552082,13.3567194 10.0158596,13.3567194 Z" id="Shape" fill="" fill-rule="nonzero"></path>
    </g>
</svg>