<?xml version="1.0" encoding="UTF-8"?>
<svg width="16px" height="23px" viewBox="0 0 16 23" version="1.1" xmlns="http://www.w3.org/2000/svg" xmlns:xlink="http://www.w3.org/1999/xlink">
    <!-- Generator: Sketch 52.4 (67378) - http://www.bohemiancoding.com/sketch -->
    <title>Path</title>
    <desc>Created with Sketch.</desc>
    <g id="Page-1" stroke="none" stroke-width="1" fill="none" fill-rule="evenodd">
        <g id="PICCOLI-IMPIANTI" transform="translate(-680.000000, -665.000000)" fill="">
            <g id="left-arrow-(1)" transform="translate(680.000000, 665.000000)">
                <path d="M4.17651355,4.22559957 C4.48666048,3.92480014 4.97493233,3.92480014 5.28507926,4.22559957 C5.58474825,4.51623685 5.58474825,4.99995483 5.28507926,5.28991464 L-0.335984569,10.7415654 L18.2127577,10.7415654 C18.6451472,10.7415654 19,11.0748837 19,11.4942415 C19,11.9135992 18.6451472,12.2577571 18.2127577,12.2577571 L-0.335984569,12.2577571 L5.28507926,17.6992457 C5.58474825,18.0000452 5.58474825,18.4844406 5.28507926,18.7744004 C4.97493233,19.0751999 4.48666048,19.0751999 4.17651355,18.7744004 L-2.77524826,12.0321575 C-3.07491725,11.7415203 -3.07491725,11.2578023 -2.77524826,10.9678425 L4.17651355,4.22559957 Z" id="Path" transform="translate(8.000000, 11.500000) rotate(-90.000000) translate(-8.000000, -11.500000) "></path>
            </g>
        </g>
    </g>
</svg>