<?xml version="1.0" encoding="UTF-8"?>
<svg width="22px" height="22px" viewBox="0 0 22 22" version="1.1" xmlns="http://www.w3.org/2000/svg" xmlns:xlink="http://www.w3.org/1999/xlink">
    <!-- Generator: Sketch 52.4 (67378) - http://www.bohemiancoding.com/sketch -->
    <title>Mobile Copy</title>
    <desc>Created with Sketch.</desc>
    <g id="Mobile-Copy" stroke="none" stroke-width="1" fill="none" fill-rule="evenodd">
        <path d="" id="Path-14" stroke="#979797"></path>
        <path d="M8.3,19.3506348 L6.3,19.3506348 L6.3,16 L2,16 L2.00007963,1.45040888 L2,-3.37507799e-14 L9.10808102,-3.37507799e-14 L10.4445267,1.3 L17.3236572,1.3 L17.3236572,3.3 L20.3878662,3.3 L20.3878662,21.8357422 L8.3,21.8357422 L8.3,19.3506348 Z M9.7,19.3506348 L9.7,20.4357422 L18.9878662,20.4357422 L18.9878662,4.7 L17.3236572,4.7 L17.3236572,19.3506348 L9.7,19.3506348 Z M11.8837759,2.7 L14,4.75851343 L14,16 L7.7,16 L7.7,17.9506348 L15.9236572,17.9506348 L15.9236572,2.7 L11.8837759,2.7 Z M6.98323451,1.45040888 L3.49115092,1.45040888 L3.49115092,14.5495911 L12.5089287,14.5495911 L12.5089287,6.79901294 L6.88596099,6.79901294 L6.98323451,1.45040888 Z M8.47453911,1.45040888 L8.40364375,5.34860406 L12.4979407,5.34860406 L8.49045907,1.45040888 L8.47453911,1.45040888 Z" id="Combined-Shape" fill="" fill-rule="nonzero"></path>
    </g>
</svg>