<svg xmlns="http://www.w3.org/2000/svg" xmlns:xlink="http://www.w3.org/1999/xlink"><symbol viewBox="0 0 130 70" id="Ico_Margin" xmlns="http://www.w3.org/2000/svg"><path d="M0 0v70h130V0H0zm86 3v32H44V3h42zM3 67V3h40v64H3zm41 0V36h42v31H44zm83 0H87V36h40v31zm0-32H87V3h40v32z"/></symbol><symbol viewBox="0 0 21 21" id="ico-distance-bottom" xmlns="http://www.w3.org/2000/svg"><path d="M0 0v21h21V0H0zm1 1h9v9H1V1zm0 10h9v8H1v-8zm19 9H1h19zm0-1h-9v-8h9v8zm0-9h-9V1h9v9z"/></symbol><symbol viewBox="0 0 21 21" id="ico-distance-left" xmlns="http://www.w3.org/2000/svg"><path d="M0 0v21h21V0H0zm10 1v9H2V1h8zm10 19H1h1v-9h8v9h1v-9h9v9zm0-10h-9V1h9v9z"/></symbol><symbol viewBox="0 0 130 70" id="ico-distance-margin" xmlns="http://www.w3.org/2000/svg"><g stroke="#000" fill="none" fill-rule="evenodd"><path stroke-width="3" d="M1.5 1.5h127v67H1.5z"/><path d="M43.5 3.5v63M86.5 3.5v63M44.5 35.5h82" stroke-linecap="square"/></g></symbol><symbol viewBox="0 0 21 21" id="ico-distance-right" xmlns="http://www.w3.org/2000/svg"><path d="M0 0v21h21V0H0zm19 1v9h-8V1h8zM1 1h9v9H1V1zm19 19H1v-9h9v9h1v-9h8v9h1z"/></symbol><symbol viewBox="0 0 21 21" id="ico-distance-top" xmlns="http://www.w3.org/2000/svg"><path d="M0 0v21h21V0H0zm1 2h9v8H1V2zm19 18H1v-9h9v9h1v-9h9v9zm0-10h-9V2h9v8z"/></symbol></svg>