<svg xmlns="http://www.w3.org/2000/svg" width="512" height="512" viewBox="0 0 612 612.001"><path d="M305.058 329.286V570.82l192.293-36.491V416.644c0-4.926 4.291-8.752 9.185-8.19l23.658 3.661a8.245 8.245 0 017.305 8.19v136.717a8.247 8.247 0 01-6.512 8.061l-210.5 45.261a74.187 74.187 0 01-30.873.069L81.373 566.609a8.245 8.245 0 01-6.545-7.854L71.23 419.907a8.246 8.246 0 017.521-8.427l176.886-15.543a8.242 8.242 0 006.902-5.074l26.648-64.716c3.441-8.351 15.871-5.893 15.871 3.139zM69.23 250.204L13.721 368.855c-2.713 5.798 1.928 12.34 8.297 11.697l208.464-21.064a8.247 8.247 0 006.707-4.858l67.075-151.111-229.056 42.07a8.248 8.248 0 00-5.978 4.615zm235.034-46.686l70.976 155.837a8.245 8.245 0 006.842 4.801l208.069 16.732c6.271.505 10.773-5.916 8.163-11.64L544.05 250.284a8.245 8.245 0 00-6.041-4.692l-233.745-42.074zM245.942 80.473l51.515 89.207c3.967 6.869 13.882 6.868 17.848 0l51.504-89.207c3.967-6.87-.991-15.457-8.923-15.457h-25.748v-54.71C332.138 4.614 327.525 0 321.833 0h-30.914c-5.691 0-10.305 4.614-10.305 10.305v54.71h-25.749c-7.932 0-12.89 8.588-8.923 15.458z" data-original="#000000" class="alactive-path" data-old_color="#000000" fill="#FFF"/></svg>