<svg xmlns="http://www.w3.org/2000/svg" viewBox="0 0 24 24" width="24" height="24"><circle cx="12" cy="19.7" r=".7"/><path d="M16.2 2H7.8c-.8 0-1.5.7-1.5 1.5v17.1c0 .7.7 1.4 1.5 1.4h8.4c.8 0 1.5-.7 1.5-1.5v-17c0-.8-.7-1.5-1.5-1.5zM13 3h.3c.2 0 .3.1.3.3 0 .2-.1.3-.3.3H13c-.2 0-.3-.1-.3-.3 0-.2.1-.3.3-.3zm-2.3 0H12c.2 0 .3.1.3.3 0 .2-.1.3-.3.3h-1.3c-.2 0-.3-.1-.3-.3-.1-.2.1-.3.3-.3zM12 21c-.7 0-1.3-.6-1.3-1.3 0-.7.6-1.3 1.3-1.3.7 0 1.3.6 1.3 1.3 0 .7-.6 1.3-1.3 1.3zm5-3.7H7V4.7h10v12.6z"/><g><path d="M7.8 5.4H10v2.2H7.8zM10.9 5.4h2.2v2.2h-2.2zM13.9 5.4h2.2v2.2h-2.2zM7.8 8.5h5.3v5.3H7.8z"/><path d="M10.9 8.5h2.2v2.2h-2.2zM13.9 8.5h2.2v2.2h-2.2z"/><g><path d="M7.8 11.5H10v2.2H7.8zM10.9 11.5h2.2v2.2h-2.2zM13.9 11.5h2.2v4.4h-2.2z"/></g><g><path d="M7.8 14.6h3.8v2.2H7.8z"/><path d="M10.9 14.6h2.2v2.2h-2.2zM13.9 14.6h2.2v2.2h-2.2z"/></g></g></svg>