<svg version="1.1" id="bjLayer_1" xmlns="http://www.w3.org/2000/svg" x="0" y="0" viewBox="0 0 28.3 28.3" xml:space="preserve" width="28.3" height="28.3"><style>.bjst0{fill:#fff}</style><path d="M0 7.5h28.3v13.3H0z"/><path d="M15 24.3l-2.6-2.6 1.8-1.1c.1-.1.2-.2.2-.4s-.1-.3-.3-.4l-8.2-3.3c-.2-.1-.3 0-.5.1-.1.1-.2.3-.1.5l3.3 8.2c.1.2.2.3.4.3s.3-.1.4-.2l1.1-1.8 2.6 2.6c.1.1.2.1.3.1s.2 0 .3-.1l1.3-1.3c.2-.2.2-.4 0-.6zM4.1 14.7c-.2-.2-.4-.2-.6 0-.2.2-.2.4 0 .6l1 1c.1.1.2.1.3.1.1 0 .2 0 .3-.1.2-.2.2-.4 0-.6l-1-1zM4.5 17.6c0-.2-.2-.4-.4-.4H2.7c-.2 0-.4.2-.4.4s.2.4.4.4H4c.3.1.5-.1.5-.4zM6.5 15.6c.2 0 .4-.2.4-.4v-1.4c0-.2-.2-.4-.4-.4s-.4.2-.4.4v1.4c0 .2.2.4.4.4zM8.1 16.2c.1 0 .2 0 .3-.1l1-1c.2-.2.2-.4 0-.6-.2-.2-.4-.2-.6 0l-1 1c-.2.2-.2.4 0 .6.1 0 .2.1.3.1z"/><g><path class="bjst0" d="M13.9 20.8l.3-.2c.1-.1.2-.2.2-.4s-.1-.3-.3-.4l-8.2-3.3c-.2-.1-.3 0-.5.1-.1.1-.2.3-.1.5l1.5 3.7h7.1z"/></g></svg>