<svg xmlns="http://www.w3.org/2000/svg" viewBox="0 0 28.3 28.3" width="28.3" height="28.3"><path d="M0 0v28.2h28.3V0H0zm1.9 25.4V1.9h24.4v24.5H1.9v-1z"/><path d="M22.7 10.8H5.6c-.2 0-.4.2-.4.4v.8c0 .2.2.4.4.4h17.1c.2 0 .4-.2.4-.4v-.8c0-.2-.2-.4-.4-.4zM22.7 15.8H5.6c-.2 0-.4.2-.4.4v.8c0 .2.2.4.4.4h17.1c.2 0 .4-.2.4-.4v-.8c0-.2-.2-.4-.4-.4zM16.8 20.8H5.6c-.2 0-.4.2-.4.4v.8c0 .2.2.4.4.4h11.2c.2 0 .4-.2.4-.4v-.8c-.1-.2-.2-.4-.4-.4zM22.7 5.8H5.6c-.2 0-.4.2-.4.5v.8c0 .2.2.4.4.4h17.1c.2 0 .4-.2.4-.4v-.8c0-.3-.2-.5-.4-.5z"/></svg>