<svg xmlns="http://www.w3.org/2000/svg" viewBox="0 0 28.3 28.3" width="28.3" height="28.3"><path d="M26.2 8.9c-.3-3.5-3.4-6.2-7.2-6.2-.7 0-1.5.1-2.3.3-1.4-1.8-3.5-3-5.9-3-3.9.1-7.3 3.2-7.3 7v.7C1.4 9 0 11.3 0 13.7c0 3.8 3.2 6.9 7.3 6.9.7 0 1.1-.6 1.1-1.1 0-.6-.4-1.3-1.1-1.3-2.7 0-4.9-2.1-4.9-4.5 0-1.8 1.1-3.4 3-4.2.5-.3.8-.9.7-1.5-.2-.3-.2-.7-.2-1 0-2.5 2.3-4.5 4.9-4.5 1.8 0 3.5 1 4.4 2.5.3.4 1 .7 1.5.4.7-.3 1.4-.6 2.3-.6 2.7 0 4.9 2 4.9 4.5 0 .3.1.6.4.8 1 .8 1.5 2 1.5 3.2 0 2.5-2.3 4.5-4.9 4.5-.8 0-1.7-.3-2.5-.6-.6-.3-1.3-.1-1.5.4-.3.6-.1 1.3.4 1.5 1.1.6 2.4 1 3.7 1 3.9 0 7.3-3.1 7.3-6.9-.1-1.4-.8-3.1-2.1-4.3z"/><path d="M17.2 13.7l-3.4-3.5c-.3-.3-.6-.4-.8-.4-.3 0-.6.1-.8.4l-3.4 3.5c-.4.4-.4 1.3 0 1.7s1.3.4 1.7 0l1.4-1.4v13.2c0 .7.6 1.1 1.1 1.1.7 0 1.1-.6 1.1-1.1V13.9l1.4 1.4c.4.4 1.1.4 1.7 0 .4-.5.4-1.2 0-1.6z"/></svg>