<svg xmlns="http://www.w3.org/2000/svg" viewBox="0 0 28.3 28.3" width="28.3" height="28.3"><path d="M20.8 18.3l5.4-1.8c.4-.1.6-.5.6-.9s-.3-.8-.6-.9L10.6 9.5c-.4-.1-.6 0-.9.3s-.4.6-.3.9l5.2 15.6c.1.4.5.6.9.6s.8-.3.9-.6l1.8-5.4 6.9 6.9c.4.4.8.5 1.3.5s.9-.1 1.3-.5c.8-.8.8-1.9 0-2.6l-6.9-6.9zM11.3 7.7l4.5 1.5h8.8V3.7H3.7v5.5h4.1c.1-.2.4-.6.5-.9.7-.3 1.3-.7 2.1-.7.2 0 .5.1.9.1z"/><path d="M25.4 0H2.8C1.3 0 0 1.3 0 2.8v7.3c0 1.5 1.3 2.8 2.8 2.8h5.5l-.5-1.7v-.1h-5c-.5 0-.9-.4-.9-.9V2.8c0-.5.4-.8.9-.8h22.6c.5 0 .9.4.9.9v7.3c0 .5-.4.9-.9.9h-4.2l5.1 1.7c1.1-.4 1.9-1.4 1.9-2.6V2.8C28.3 1.3 27 0 25.4 0z"/></svg>