<svg xmlns="http://www.w3.org/2000/svg" viewBox="0 0 28.3 28.3" width="28.3" height="28.3"><path d="M28.3 20.8H0V7.5h28.3v13.3zM1.9 18.9h24.4V9.4H1.9v9.5z"/><path d="M7.1 17.6H5.7v-5.2l-1.6.5v-1.1l2.8-1H7v6.8zM16.4 17.6h-4.7v-.9l2.2-2.4c.3-.3.5-.6.7-.9.1-.2.2-.5.2-.7 0-.3-.1-.5-.2-.7-.2-.2-.4-.3-.7-.3-.3 0-.5.1-.7.3s-.3.5-.3.8h-1.4c0-.4.1-.8.3-1.1s.5-.6.8-.8.8-.3 1.2-.3c.7 0 1.3.2 1.6.5.4.3.6.8.6 1.4 0 .3-.1.7-.3 1-.2.4-.5.8-.9 1.2l-1.6 1.6h2.9v1.3zM21 13.5h.7c.3 0 .6-.1.8-.3.2-.2.2-.4.2-.7 0-.3-.1-.5-.2-.6-.2-.2-.4-.2-.7-.2-.3 0-.5.1-.7.2-.2.1-.3.3-.3.6h-1.4c0-.4.1-.7.3-1 .2-.3.5-.5.8-.7.3-.2.7-.2 1.1-.2.7 0 1.3.2 1.7.5s.6.8.6 1.4c0 .3-.1.6-.3.9s-.4.5-.8.6c.4.1.7.3.9.6.2.3.3.6.3 1 0 .6-.2 1.1-.7 1.5-.4.4-1 .5-1.8.5-.7 0-1.2-.2-1.7-.5-.4-.4-.7-.8-.7-1.4h1.4c0 .3.1.5.3.6s.4.2.7.2c.3 0 .6-.1.8-.3.2-.2.3-.4.3-.7 0-.7-.4-1-1.1-1H21v-1z"/></svg>