<svg version="1.1" id="bwLayer_1" xmlns="http://www.w3.org/2000/svg" x="0" y="0" viewBox="0 0 28.3 28.3" xml:space="preserve" width="28.3" height="28.3"><style>.bwst0{opacity:.6;enable-background:new}</style><path d="M28.3 20.8H0V7.5h28.3v13.3zM1.9 18.9h24.4V9.4H1.9v9.5z"/><path class="bwst0" d="M10.5 10.1v2.7h1.8v-.9h.9v4.5h-.9v1.8H16v-1.8h-.9v-4.5h.9v.9h1.8v-2.7h-7.3z"/><path d="M15 24.3l-2.6-2.6 1.8-1.1c.1-.1.2-.2.2-.4s-.1-.3-.3-.4l-8.2-3.3c-.2-.1-.3 0-.5.1-.1.1-.2.3-.1.5l3.3 8.2c.1.2.2.3.4.3s.3-.1.4-.2l1.1-1.8 2.6 2.6c.1.1.2.1.3.1s.2 0 .3-.1l1.3-1.3c.2-.2.2-.4 0-.6z"/></svg>