<svg version="1.1" id="caLivello_1" xmlns="http://www.w3.org/2000/svg" x="0" y="0" viewBox="0 0 566.9 566.9" xml:space="preserve" width="566.9" height="566.9"><style>.cast0{fill:#fff}</style><path d="M.1.5h120.3v565.9H.1z"/><path class="cast0" d="M120.5 566.9H0V0h120.5v566.9zm-120.3-1h120V1H.2v564.9z"/><path d="M148.9.5h120.3v565.9H148.9z"/><path class="cast0" d="M269.3 566.9H148.8V0h120.5v566.9zm-120.3-1h120V1H149v564.9z"/><g><path d="M297.7.5H418v565.9H297.7z"/><path class="cast0" d="M418.1 566.9H297.6V0h120.5v566.9zm-120.3-1h120V1h-120v564.9z"/></g><g><path d="M446.5.5h120.3v565.9H446.5z"/><path class="cast0" d="M566.9 566.9H446.4V0h120.5v566.9zm-120.3-1h120V1h-120v564.9z"/></g></svg>