<svg xmlns="http://www.w3.org/2000/svg" viewBox="0 0 499.996 499.996" width="500" height="500"><path d="M494.128 226.969l-62.656-36.38 62.688-36.656a11.345 11.345 0 00-.032-19.6L335.08 41.953a11.383 11.383 0 00-11.4-.008l-73.788 42.864-73.8-42.864a11.363 11.363 0 00-11.4.008L5.648 134.332a11.34 11.34 0 00-.032 19.6l62.688 36.656-62.656 36.38A11.355 11.355 0 000 236.776c0 4.036 3.312 7.764 6.796 9.8L90.044 294.4v69.52c0 1.348-.456 2.596.72 3.276l157.812 91.884c.292.168.312.296.632.38.312.088.496.12.824.12.66 0 1.24-.164 1.824-.5l159.48-92.38c1.164-.68 2.288-1.916 2.288-3.264v-69.408l80.964-47.448c3.488-2.036 5.408-5.764 5.408-9.8-.004-4.044-2.372-7.776-5.868-9.811zm-323.736 89.363L33.9 236.801l56.936-33.068 136.492 79.32-56.936 33.279zM97.704 181.488c.344.04.656.1.892.208l-.268.152-.624-.36zm-6.892-4.019l-56.944-33.288 136.524-79.304 56.944 33.072-136.524 79.52zM329.38 64.873l136.528 79.304-56.968 33.308-136.148-79.336-.356-.204 56.944-33.072zm.004 251.459l-57.144-33.404 136.632-79.236L465.88 236.8l-136.496 79.532z"/></svg>