<svg xmlns="http://www.w3.org/2000/svg" viewBox="0 0 24 24" width="24" height="24"><path d="M21.3 1.1h-11c-.9 0-1.6.7-1.6 1.6v.7h1.5v-.7c0-.1.1-.1.1-.1h11c.1 0 .1.1.1.1v11.1c0 .1-.1.1-.1.1h-.9v1.5h.9c.9 0 1.6-.7 1.6-1.6V2.7c0-.9-.7-1.6-1.6-1.6z"/><path d="M17.5 4.9H6.3c-.8 0-1.4.7-1.4 1.5v.8h1.4v-.7c0-.1.1-.1.1-.1h11c.1 0 .1.1.1.1v11.1c0 .1-.1.1-.1.1h-.8v1.4h.9c.8 0 1.4-.7 1.4-1.5V6.4c.1-.8-.6-1.5-1.4-1.5z"/><path d="M13.7 8.7H2.5c-.8 0-1.4.7-1.4 1.5v11.3c0 .8.6 1.5 1.4 1.5h11.2c.8 0 1.4-.7 1.4-1.5V10.2c.1-.8-.6-1.5-1.4-1.5zm0 12.8h-11c-.1 0-.1-.1-.1-.1V10.2c0-.1.1-.1.1-.1h11c.1 0 .1.1.1.1v11.1c0 .1-.1.2-.1.2z"/><g><path d="M10.867 15.6l-5.1-3.6h-.2c-.1 0-.1.1-.1.2v7.2c0 .1 0 .1.1.2h.2l5.1-3.6.1-.1c0-.2-.1-.3-.1-.3z"/></g></svg>