<svg xmlns="http://www.w3.org/2000/svg" viewBox="0 0 20 20.09" width="20" height="20.09"><path d="M18.53 0H8.44A1.45 1.45 0 007 1.47v.64h1.35v-.64a.09.09 0 01.09-.09h10.09a.09.09 0 01.1.09v10.18c0 .09-.1.09-.1.09h-.82v1.38h.82A1.45 1.45 0 0020 11.65V1.47A1.45 1.45 0 0018.53 0zm-3.48 3.49H4.77a1.33 1.33 0 00-1.28 1.37v.74h1.28V5a.09.09 0 01.09-.09H15a.09.09 0 01.09.09v10.14a.09.09 0 01-.09.09h-.74v1.28h.83a1.33 1.33 0 001.28-1.37V4.86a1.27 1.27 0 00-1.32-1.37zM11.56 7H1.28A1.34 1.34 0 000 8.35v10.37a1.33 1.33 0 001.28 1.37h10.28a1.33 1.33 0 001.28-1.37V8.35A1.28 1.28 0 0011.56 7zm.09 11.56a.32.32 0 01-.09.19H1.47a.09.09 0 01-.09-.09V8.35a.09.09 0 01.09-.09h10.09a.09.09 0 01.09.09zM4.28 10H4.1c-.1 0-.1.09-.1.18v6.61c0 .09 0 .09.09.18h.18L9 13.67l.09-.09A.44.44 0 009 13.3z"/></svg>