<svg width="100" height="100" xmlns="http://www.w3.org/2000/svg" viewBox="0 0 100 100"><path d="M76.36 100s9.367 0 9.367-9.09V9.09C85.727 0 76.36 0 76.36 0H22.37S13 0 13 9.09v81.82c0 9.09 9.368 9.09 9.368 9.09H76.36zm-27.11-3.436c-1.945 0-3.523-1.528-3.523-3.41 0-1.881 1.578-3.409 3.523-3.409s3.523 1.528 3.523 3.41c-.005 1.886-1.582 3.409-3.523 3.409zm-31.705-14.9V9.25c0-4.705 5.05-4.705 5.05-4.705h53.537s5.05 0 5.05 4.705v72.414c0 4.7-5.05 4.7-5.05 4.7H22.595s-5.05 0-5.05-4.7z" fill="#000" fill-rule="nonzero"/></svg>