<svg width="100" height="100" xmlns="http://www.w3.org/2000/svg" viewBox="0 0 100 100"><path d="M2.14 83a2.13 2.13 0 0 0 1.984-1.315c.247-.593 6.432-14.656 29.558-17.441 4.817-.593 10.586-.897 17.593-.95v17.528c0 .81.43 1.543 1.14 1.93.704.373 1.547.32 2.203-.125l44.43-30.315c.6-.406.952-1.09.952-1.808a2.21 2.21 0 0 0-.952-1.813L54.6 18.372c-.656-.46-1.492-.49-2.205-.11a2.166 2.166 0 0 0-1.135 1.908v16.312C41.595 37.76 0 45.336 0 80.842c0 1.03.716 1.93 1.72 2.135.14.023.286.023.42.023z" fill="#000" fill-rule="nonzero"/></svg>