<svg width="100" height="65" xmlns="http://www.w3.org/2000/svg" viewBox="0 0 100 65"><path d="M97.86 65a2.13 2.13 0 0 1-1.984-1.315c-.247-.593-6.432-14.656-29.558-17.441-4.817-.593-10.586-.897-17.593-.95v17.528c0 .81-.43 1.543-1.14 1.93a2.139 2.139 0 0 1-2.203-.125L.952 34.312A2.187 2.187 0 0 1 0 32.504c0-.726.352-1.387.952-1.813L45.4.372c.656-.46 1.492-.49 2.205-.11A2.166 2.166 0 0 1 48.74 2.17v16.312C58.405 19.76 100 27.336 100 62.842c0 1.03-.716 1.93-1.72 2.135-.14.023-.286.023-.42.023z" fill="#000" fill-rule="nonzero"/></svg>