<svg width="100" height="100" xmlns="http://www.w3.org/2000/svg" xmlns:xlink="http://www.w3.org/1999/xlink" viewBox="0 0 100 100"><defs><path d="M50 100C22.386 100 0 77.614 0 50S22.386 0 50 0s50 22.386 50 50-22.386 50-50 50zM29.402 52.137l.342.513 13.333 14.359c.342.341.684.512 1.197.512.512 0 .854-.17 1.196-.512l27.35-28.377c.684-.683.684-1.709 0-2.393l-2.393-2.393c-.683-.684-1.71-.684-2.393 0h-.17l-22.907 23.76a.826.826 0 0 1-1.196 0l-9.402-10.085-.171-.17c-.684-.684-1.71-.684-2.393 0l-2.393 2.393c-.342.341-.513.854-.513 1.196 0 .342.17.855.513 1.197z" id="fa"/></defs><g fill-rule="evenodd"><mask id="fb" fill="#fff"><use xlink:href="#fa"/></mask><use xlink:href="#fa"/></g></svg>