<svg width="100" height="100" xmlns="http://www.w3.org/2000/svg" viewBox="0 0 100 100"><g fill="#000" fill-rule="nonzero"><path d="M64.217 13.023l-3.428-.94c-.44-.146-.876-.1-1.298.14-.424.239-.71.598-.858 1.077L38.015 84.628c-.147.479-.101.93.138 1.353.24.424.599.71 1.079.857l3.427.94c.442.148.875.101 1.299-.138.424-.241.71-.6.856-1.077l20.62-71.33c.146-.478.1-.93-.14-1.354a1.794 1.794 0 0 0-1.077-.856zM31.034 26.934c0-.48-.178-.903-.533-1.272l-2.666-2.764c-.356-.368-.765-.553-1.227-.553-.462 0-.871.185-1.226.553L.533 48.66C.177 49.028 0 49.452 0 49.93c0 .48.178.904.533 1.272l24.848 25.762c.356.369.764.552 1.227.552.463 0 .871-.184 1.226-.552l2.667-2.763c.355-.368.533-.793.533-1.272s-.178-.903-.533-1.271L9.545 49.93l20.956-21.725c.356-.369.533-.793.533-1.272zM99.467 48.66l-24.85-25.762c-.356-.368-.765-.553-1.226-.553-.463 0-.87.185-1.227.553l-2.666 2.764c-.355.369-.532.792-.532 1.272s.177.903.532 1.271l20.958 21.727-20.958 21.727c-.355.368-.532.792-.532 1.27 0 .48.177.905.532 1.273l2.666 2.763c.356.369.764.552 1.227.552.461 0 .87-.184 1.226-.552l24.85-25.762c.355-.368.533-.793.533-1.272 0-.48-.178-.903-.533-1.271z"/></g></svg>