<svg width="100" height="100" xmlns="http://www.w3.org/2000/svg" viewBox="0 0 100 100"><g fill="none" fill-rule="evenodd"><path stroke="#000" stroke-width="4" d="M2 2h96v96H2z"/><path d="M72.618 51H26.357L37.71 62.315a.989.989 0 0 1 0 1.399.972.972 0 0 1-1.4-.025l-13.02-13a1.006 1.006 0 0 1-.29-.7c0-.265.097-.506.29-.7l13.02-13a.989.989 0 1 1 1.401 1.399L26.381 49h46.261L61.29 37.685a.989.989 0 0 1 0-1.399.972.972 0 0 1 1.4.025l13.02 13c.193.193.29.458.29.7a.965.965 0 0 1-.29.7l-13.02 13a.989.989 0 1 1-1.401-1.399L72.619 51z" fill="#000" fill-rule="nonzero"/></g></svg>