<svg width="100" height="100" xmlns="http://www.w3.org/2000/svg" viewBox="0 0 100 100"><path d="M69.704 0H30.73a7.15 7.15 0 0 0-7.15 7.149v84.818c0 3.949 3.2 7.149 7.15 7.149h38.975a7.15 7.15 0 0 0 7.151-7.149V7.149A7.15 7.15 0 0 0 69.705 0zm-24.27 4.227h9.565a.625.625 0 0 1 0 1.247h-9.565a.624.624 0 0 1 0-1.247zm-9.534-1.5a.998.998 0 1 1 0 1.995.998.998 0 0 1 0-1.995zm-4.521-.598a1.596 1.596 0 1 1 0 3.191 1.596 1.596 0 0 1 0-3.191zm21.334 93.358h-4.99a2.863 2.863 0 1 1 0-5.726h4.99a2.864 2.864 0 1 1 0 5.726zm21.114-7.99h-47.22v-75.88h47.22v75.88z" fill-rule="nonzero"/></svg>