<svg width="100" height="100" xmlns="http://www.w3.org/2000/svg" viewBox="0 0 100 100"><g fill="#000" fill-rule="nonzero"><path d="M98.416 5H1.584C.71 5 0 5.81 0 6.808v86.384C0 94.191.71 95 1.584 95h96.832c.875 0 1.584-.81 1.584-1.808V6.808C100 5.809 99.291 5 98.416 5zm-7.922 75.587l-21.79-25.749a.593.593 0 0 0-.895-.04L52.695 69.974 33.378 42.836a.608.608 0 0 0-.517-.273.626.626 0 0 0-.506.297L9.506 77.843V15.847h80.988v64.74z"/><path d="M64.545 45c5.52 0 10-4.477 10-10 0-5.521-4.48-10-10-10-5.524 0-10 4.479-10 10 0 5.523 4.477 10 10 10z"/></g></svg>