<svg id="akLivello_1" xmlns="http://www.w3.org/2000/svg" viewBox="-408 286.3 24 24" width="24" height="24"><style>.akst0{fill:none}.akst1{fill:#fff}</style><path class="akst0" d="M-2040 1431.5h24v24h-24v-24z"/><path d="M-387.8 291h-16.4c-1 0-1.8.8-1.8 1.8v10.9c0 1 .8 1.8 1.8 1.8h16.4c1 0 1.8-.8 1.8-1.8v-10.9c0-1-.8-1.8-1.8-1.8zm-16.4 1.8h2.2v10.9h-2.2v-10.9zm16.4 10.9h-2.2v-10.9h2.2v10.9z"/><path d="M-404.6 292.4h2.8V304h-2.8zM-390.2 292.6h2.8v11.6h-2.8z"/><path class="akst1" d="M-387.9 298.3l-2.9-1.8v1.3h-10.4v-1.3l-2.9 1.8 2.9 1.8v-1.4H-390.8v1.4z"/></svg>