<!DOCTYPE svg PUBLIC "-//W3C//DTD SVG 1.1//EN" "http://www.w3.org/Graphics/SVG/1.1/DTD/svg11.dtd"><svg xmlns="http://www.w3.org/2000/svg" viewBox="0 0 512 512" width="512" height="512"><path d="M480 0H32C14.328 0 0 14.328 0 32v64c0 17.672 14.328 32 32 32s32-14.328 32-32V64h384v384H64v-32c0-17.672-14.328-32-32-32S0 398.328 0 416v64c0 17.672 14.328 32 32 32h448c17.672 0 32-14.328 32-32V32c0-17.672-14.328-32-32-32z"/><path d="M240.906 348.211A31.95 31.95 0 0 0 256 352a31.998 31.998 0 0 0 17.75-5.375l96-64C378.656 276.688 384 266.703 384 256s-5.344-20.688-14.25-26.625l-96-64c-9.828-6.555-22.484-7.156-32.844-1.586A31.989 31.989 0 0 0 224 192v32H32c-17.672 0-32 14.328-32 32s14.328 32 32 32h192v32c0 11.805 6.5 22.648 16.906 28.211z"/></svg>