<svg id="xLivello_1" xmlns="http://www.w3.org/2000/svg" viewBox="0 0 24 24" width="24" height="24"><style>.xst1{fill:none;stroke:#757575;stroke-width:.5;stroke-miterlimit:10}</style><path class="xst0" d="M22.8 12.3l-2.3 2.3c-.1.1-.4.1-.5 0s-.1-.4 0-.5l2-2.1-2-2.1c-.1-.1-.1-.4 0-.5s.4-.1.5 0l2.3 2.3c.1.1.1.2.1.3s0 .2-.1.3zM1.2 11.7l2.3-2.3c.1-.1.4-.1.5 0s.1.4 0 .5L2 12l2 2.1c.1.1.1.4 0 .5s-.4.1-.5 0l-2.3-2.3c-.1-.1-.1-.2-.1-.3s0-.2.1-.3z"/><g id="xPage-1"><g id="xTablet" transform="translate(-465 -617)"><g id="xGroup-7" transform="translate(465 617)"><path id="xRectangle-3" class="xst1" d="M6.4 7.2h11.2v9.6H6.4z"/></g></g></g><g id="xGroup-6" transform="translate(4.35 20.3)"><g id="xGroup-5"><ellipse id="xOval-3_3_" class="xst0" cx="4.4" cy="-1.2" rx=".9" ry=".9"/><path class="xst0" d="M4.4-.1c-.6 0-1.1-.5-1.1-1.1s.5-1.1 1.1-1.1 1.2.5 1.2 1.1S5-.1 4.4-.1zm0-1.8c-.4 0-.7.3-.7.7s.3.7.7.7.7-.3.7-.7-.3-.7-.7-.7zM7.6-.1C7-.1 6.5-.6 6.5-1.2S7-2.3 7.6-2.3s1.1.5 1.1 1.1S8.2-.1 7.6-.1zm0-1.8c-.4 0-.7.3-.7.7s.3.7.7.7c.4 0 .7-.3.7-.7s-.2-.7-.7-.7zM10.9-.1c-.6 0-1.1-.5-1.1-1.1s.5-1.1 1.1-1.1 1.1.4 1.1 1.1-.5 1.1-1.1 1.1zm0-1.8c-.4 0-.7.3-.7.7s.3.7.7.7.7-.3.7-.7-.3-.7-.7-.7z"/></g></g></svg>