<svg width="100" height="100" xmlns="http://www.w3.org/2000/svg" viewBox="0 0 100 100"><g fill-rule="nonzero"><path d="M74.812 100H3.76A3.76 3.76 0 0 1 0 96.24V25.188a3.76 3.76 0 0 1 3.76-3.76h71.052a3.76 3.76 0 0 1 3.76 3.76V96.24a3.76 3.76 0 0 1-3.76 3.76zM7.519 92.479h63.532V28.948H7.519v63.53z"/><path d="M96.24 78.571h-7.633a3.76 3.76 0 0 1 0-7.519h3.874V7.521H28.948v4.183a3.759 3.759 0 1 1-7.52 0V3.76A3.76 3.76 0 0 1 25.189 0H96.24A3.76 3.76 0 0 1 100 3.76v71.052a3.76 3.76 0 0 1-3.76 3.76z"/></g></svg>