<svg width="100" height="100" xmlns="http://www.w3.org/2000/svg" viewBox="0 0 100 100"><path d="M99.687 44.448c-.158-1.406-1.797-2.462-3.214-2.462-4.583 0-8.649-2.69-10.354-6.851-1.742-4.262-.619-9.232 2.796-12.365A2.777 2.777 0 0 0 89.22 19a49.478 49.478 0 0 0-7.92-8 2.783 2.783 0 0 0-3.801.308c-2.98 3.3-8.334 4.527-12.47 2.8-4.306-1.81-7.02-6.172-6.755-10.855A2.774 2.774 0 0 0 55.82.333a49.92 49.92 0 0 0-11.248-.03 2.782 2.782 0 0 0-2.476 2.861c.163 4.636-2.585 8.922-6.847 10.668-4.087 1.67-9.403.453-12.378-2.818a2.788 2.788 0 0 0-3.773-.317 49.664 49.664 0 0 0-8.089 7.997 2.781 2.781 0 0 0 .299 3.8c3.48 3.151 4.603 8.165 2.795 12.476-1.726 4.11-5.994 6.758-10.88 6.758-1.585-.05-2.714 1.013-2.887 2.455a50.086 50.086 0 0 0-.022 11.37c.157 1.412 1.846 2.46 3.279 2.46 4.354-.112 8.534 2.584 10.288 6.851 1.748 4.262.624 9.229-2.796 12.364a2.779 2.779 0 0 0-.304 3.768 49.657 49.657 0 0 0 7.91 8.002 2.78 2.78 0 0 0 3.806-.301c2.991-3.309 8.344-4.534 12.465-2.804 4.316 1.805 7.03 6.167 6.765 10.852a2.777 2.777 0 0 0 2.454 2.92 49.701 49.701 0 0 0 11.249.031 2.783 2.783 0 0 0 2.475-2.863c-.168-4.634 2.585-8.92 6.841-10.663 4.115-1.68 9.409-.45 12.384 2.817a2.794 2.794 0 0 0 3.773.316 49.78 49.78 0 0 0 8.09-7.997 2.776 2.776 0 0 0-.3-3.8c-3.48-3.152-4.609-8.166-2.801-12.474 1.7-4.055 5.809-6.778 10.229-6.778l.618.016c1.434.117 2.753-.988 2.927-2.451.44-3.76.446-7.584.022-11.37zM50.08 66.784c-9.197 0-16.678-7.481-16.678-16.678 0-9.197 7.481-16.678 16.678-16.678 9.197 0 16.678 7.481 16.678 16.678 0 9.197-7.481 16.678-16.678 16.678z" fill-rule="evenodd"/></svg>