<!DOCTYPE svg PUBLIC "-//W3C//DTD SVG 1.1//EN" "http://www.w3.org/Graphics/SVG/1.1/DTD/svg11.dtd"><svg width="2246" height="2086" viewBox="0 0 2246 2086" xmlns="http://www.w3.org/2000/svg" xmlns:xlink="http://www.w3.org/1999/xlink"><view id="A001-Tablet" viewBox="1952.8000000000002 1471.75 20 20"/><svg width="20" height="20" viewBox="0 0 20 20" x="1952.8000000000002" y="1471.75" xmlns="http://www.w3.org/2000/svg"><path d="M4 14h12V2H4v12zM18 0v20H2V0h16zM9 16v2h2v-2H9z" fill-rule="evenodd"/></svg><view id="A002-Redo" viewBox="1972.8000000000002 1471.75 20 20"/><svg width="20" height="20" viewBox="0 0 20 20" x="1972.8000000000002" y="1471.75" xmlns="http://www.w3.org/2000/svg"><path d="M.393 16.692c.172 0 2.506-3.846 11.204-3.846v3.077c0 .16 8.403-5.567 8.403-5.708 0-.143-8.403-6.216-8.403-6.06V7.36c-1.406.093-4.107.093-6.982 2.408-3.4 2.738-4.357 6.81-4.222 6.837.028.005-.027.086 0 .086z" fill-rule="evenodd"/></svg><view id="A003-Undo" viewBox="1992.8000000000002 1471.75 20 20"/><svg width="20" height="20" viewBox="0 0 20 20" x="1992.8000000000002" y="1471.75" xmlns="http://www.w3.org/2000/svg"><path d="M19.607 16.692c-.172 0-2.506-3.846-11.204-3.846v3.077c0 .16-8.403-5.567-8.403-5.708C0 10.072 8.403 4 8.403 4.155V7.36c1.406.093 4.107.093 6.982 2.408 3.4 2.738 4.357 6.81 4.222 6.837-.028.005.027.086 0 .086z" fill-rule="evenodd"/></svg><view id="A006-Save" viewBox="2012.8000000000002 1471.75 20 20"/><svg width="20" height="20" viewBox="0 0 20 20" x="2012.8000000000002" y="1471.75" xmlns="http://www.w3.org/2000/svg"><path d="M10 20C4.477 20 0 15.523 0 10S4.477 0 10 0s10 4.477 10 10-4.477 10-10 10zm6-15l-8 8-4-4H2l6 6L18 5h-2z" fill-rule="evenodd"/></svg><view id="A006-Save-Clear" viewBox="2032.8000000000002 1471.75 20 20"/><svg width="20" height="20" viewBox="0 0 20 20" x="2032.8000000000002" y="1471.75" xmlns="http://www.w3.org/2000/svg"><path d="M4.002 9H2l6.002 6 10-10h-2l-8 8-4-4z" fill-rule="evenodd"/></svg><view id="A007-Close" viewBox="2052.8 1471.75 20 20"/><svg width="20" height="20" viewBox="0 0 20 20" x="2052.8" y="1471.75" xmlns="http://www.w3.org/2000/svg"><path d="M2 15H0L10 5l10 10h-2l-8-8z" fill-rule="evenodd"/></svg><view id="A008-Code" viewBox="2072.8 1471.75 20 20"/><svg width="20" height="20" viewBox="0 0 20 20" x="2072.8" y="1471.75" xmlns="http://www.w3.org/2000/svg"><g fill-rule="evenodd"><path d="M14 5.846V4l6 5.94L14 16v-2.03l4-4.03zM6 14.154V16l-6-5.94L6 4v2.03l-4 4.03zM8.508 20H6.5l5.02-20h1.98z"/></g></svg><view id="A009-Range" viewBox="2092.8 1471.75 20 20"/><svg width="20" height="20" viewBox="0 0 20 20" x="2092.8" y="1471.75" xmlns="http://www.w3.org/2000/svg"><g fill-rule="evenodd"><path d="M2 2v16h16V2H2zm18-2v20H0V0h20z"/><path d="M18 10l-4-4v3H6V6l-4 4 4 3.845V11h8v3z"/></g></svg><view id="A010-Mobile" viewBox="2112.8 1471.75 20 20"/><svg width="20" height="20" viewBox="0 0 20 20" x="2112.8" y="1471.75" xmlns="http://www.w3.org/2000/svg"><path d="M7 14h6V2H7v12zm8-14v20H5V0h10zM9 16v2h2v-2H9z" fill-rule="nonzero"/></svg><view id="A011-Desktop" viewBox="2132.8 1471.75 20 20"/><svg width="20" height="20" viewBox="0 0 20 20" x="2132.8" y="1471.75" xmlns="http://www.w3.org/2000/svg"><path d="M9 18v-2H0V0h20v16h-9v2h2v2H7v-2h2zM2 2v12h16V2H2z" fill-rule="nonzero"/></svg><view id="A012-Models-List" viewBox="2152.8 1471.75 20 20"/><svg width="20" height="20" viewBox="0 0 20 20" x="2152.8" y="1471.75" xmlns="http://www.w3.org/2000/svg"><path d="M2 11.539v2.41l8 3.83 8-3.83v-2.41l-8 3.555-8-3.555zM2 9.35l8 3.556 8-3.556V6.475l-8 3.829-8-3.83V9.35zm15.82-5.007L10 1.986 2.18 4.343 10 8.086l7.82-3.743zM20 3.3v11.91l-10 4.786L0 15.21v-12L10 0l10 3.21v.09z" fill-rule="evenodd"/></svg><view id="A013-Template-Import" viewBox="0 0 612 612"/><svg viewBox="0 0 612 612.001" width="612" height="612" xmlns="http://www.w3.org/2000/svg"><path d="M305.058 329.286V570.82l192.293-36.491V416.644c0-4.926 4.291-8.752 9.185-8.19l23.658 3.661a8.245 8.245 0 017.305 8.19v136.717a8.247 8.247 0 01-6.512 8.061l-210.5 45.261a74.187 74.187 0 01-30.873.069L81.373 566.609a8.245 8.245 0 01-6.545-7.854L71.23 419.907a8.246 8.246 0 017.521-8.427l176.886-15.543a8.242 8.242 0 006.902-5.074l26.648-64.716c3.441-8.351 15.871-5.893 15.871 3.139zM69.23 250.204L13.721 368.855c-2.713 5.798 1.928 12.34 8.297 11.697l208.464-21.064a8.247 8.247 0 006.707-4.858l67.075-151.111-229.056 42.07a8.248 8.248 0 00-5.978 4.615zm235.034-46.686l70.976 155.837a8.245 8.245 0 006.842 4.801l208.069 16.732c6.271.505 10.773-5.916 8.163-11.64L544.05 250.284a8.245 8.245 0 00-6.041-4.692l-233.745-42.074zM245.942 80.473l51.515 89.207c3.967 6.869 13.882 6.868 17.848 0l51.504-89.207c3.967-6.87-.991-15.457-8.923-15.457h-25.748v-54.71C332.138 4.614 327.525 0 321.833 0h-30.914c-5.691 0-10.305 4.614-10.305 10.305v54.71h-25.749c-7.932 0-12.89 8.588-8.923 15.458z" data-original="#000000" class="alactive-path" data-old_color="#000000"/></svg><view id="B001-Full" viewBox="2172.8 1471.75 20 20"/><svg width="20" height="20" viewBox="0 0 20 20" x="2172.8" y="1471.75" xmlns="http://www.w3.org/2000/svg"><path d="M0 0h20v20H0V0zm18 10l-4-4v3H6V6l-4 4 4 3.845V11h8v3l4-4z" fill-rule="evenodd"/></svg><view id="B002-Boxed" viewBox="2192.8 1471.75 20 20"/><svg width="20" height="20" viewBox="0 0 20 20" x="2192.8" y="1471.75" xmlns="http://www.w3.org/2000/svg"><path d="M4 2h12v16H4V2zm12 8l-4-4v3H8V6l-4 4 4 3.845V11h4v2.944L16 10zM2 2v16h16V2H2zm18-2v20H0V0h20z" fill-rule="nonzero"/></svg><view id="B003-Text" viewBox="2212.8 1471.75 20 20"/><svg width="20" height="20" viewBox="0 0 20 20" x="2212.8" y="1471.75" xmlns="http://www.w3.org/2000/svg"><g fill-rule="evenodd"><path d="M20 20H0h20zM0 0h20v2H0z"/><path d="M11 0v20H9V0z"/></g></svg><view id="B005-RexModel" viewBox="1845.8000000000002 1493.75 20 20"/><svg width="20" height="20" viewBox="0 0 20 20" x="1845.8000000000002" y="1493.75" xmlns="http://www.w3.org/2000/svg"><path d="M2 11v7h16V2H2v7h10V6l4 4-4 4v-3H2zM0 0h20v20H0V0z" fill-rule="evenodd"/></svg><view id="B006-Collapse" viewBox="1865.8000000000002 1493.75 20 20"/><svg width="20" height="20" viewBox="0 0 20 20" x="1865.8000000000002" y="1493.75" xmlns="http://www.w3.org/2000/svg"><g fill-rule="evenodd"><path d="M0 0h20v4H0zM0 8h20v4H0zM0 16h20v4H0z"/></g></svg><view id="B007-Move" viewBox="1885.8000000000002 1493.75 20 20"/><svg width="20" height="20" viewBox="0 0 20 20" x="1885.8000000000002" y="1493.75" xmlns="http://www.w3.org/2000/svg"><path d="M10 0L6 4h3v12H6l4 4 4-4h-3V4h3z" fill-rule="evenodd"/></svg><view id="B010-Masonry" viewBox="1905.8000000000002 1493.75 20 20"/><svg width="20" height="20" viewBox="0 0 20 20" x="1905.8000000000002" y="1493.75" xmlns="http://www.w3.org/2000/svg"><g fill-rule="evenodd"><path d="M0 9h9v11H0zM11 14h9v6h-9zM11 0h9v12h-9zM0 0h9v7H0z"/></g></svg><view id="B011-Grid" viewBox="1925.8000000000002 1493.75 20 20"/><svg width="20" height="20" viewBox="0 0 20 20" x="1925.8000000000002" y="1493.75" xmlns="http://www.w3.org/2000/svg"><g fill-rule="evenodd"><path d="M0 0h9v9H0zM0 11h9v9H0zM11 0h9v9h-9zM11 11h9v9h-9z"/></g></svg><view id="B012-Full-Height" viewBox="1945.8000000000002 1493.75 20 20"/><svg width="20" height="20" viewBox="0 0 20 20" x="1945.8000000000002" y="1493.75" xmlns="http://www.w3.org/2000/svg"><g fill-rule="evenodd"><path d="M2 2v16h16V2H2zm18-2v20H0V0h20z"/><path d="M10 2L6 6h3v8H6l4 4 3.845-4H11V6h3z"/></g></svg><view id="B013-Row-ID" viewBox="1965.8000000000002 1493.75 20 20"/><svg width="20" height="20" viewBox="0 0 20 20" x="1965.8000000000002" y="1493.75" xmlns="http://www.w3.org/2000/svg"><g fill-rule="evenodd"><path d="M2 2v16h16V2H2zm18-2v20H0V0h20z" fill-rule="nonzero"/><path d="M14 5h2v2h-2zM14 9h2v2h-2zM14 13h2v2h-2z"/></g></svg><view id="B014-Closed" viewBox="1985.8000000000002 1493.75 20 20"/><svg width="20" height="20" viewBox="0 0 20 20" x="1985.8000000000002" y="1493.75" xmlns="http://www.w3.org/2000/svg"><path d="M5 8V4.042A4.038 4.038 0 019.032 0h1.936C13.196 0 15 1.81 15 4.042V8h2v6.138C17 17.376 14.285 20 10.934 20H9.067C5.716 20 3 17.376 3 14.138V8h2zm2.287 0h5.425V4.042c-.001-.966-.78-1.747-1.744-1.749H9.032a1.75 1.75 0 00-1.745 1.749V8zm3.602 5.46c.572-.228.976-.772.976-1.408 0-.843-.707-1.525-1.578-1.525-.872 0-1.578.682-1.578 1.525 0 .634.4 1.178.97 1.408v2.685c0 .323.27.584.605.584a.595.595 0 00.605-.584v-2.684z" fill-rule="evenodd"/></svg><view id="B015-UnClosed" viewBox="2005.8000000000002 1493.75 20 20"/><svg width="20" height="20" viewBox="0 0 20 20" x="2005.8000000000002" y="1493.75" xmlns="http://www.w3.org/2000/svg"><path d="M12.712 8V4.042c-.001-.966-.78-1.747-1.744-1.749H9.032a1.75 1.75 0 00-1.745 1.749V6H5V4.042A4.038 4.038 0 019.032 0h1.936C13.196 0 15 1.81 15 4.042V8h2v6.138C17 17.376 14.285 20 10.934 20H9.067C5.716 20 3 17.376 3 14.138V8h9.712zm-1.823 5.46c.572-.228.976-.772.976-1.408 0-.843-.707-1.525-1.578-1.525-.872 0-1.578.682-1.578 1.525 0 .634.4 1.178.97 1.408v2.685c0 .323.27.584.605.584a.595.595 0 00.605-.584v-2.684z" fill-rule="evenodd"/></svg><view id="B016-New-Adjacent-Row" viewBox="2025.8000000000002 1493.75 20 20"/><svg width="20" height="20" viewBox="0 0 20 20" x="2025.8000000000002" y="1493.75" xmlns="http://www.w3.org/2000/svg"><path d="M4 4v12h12V4H4zM0 0h20v20H0V0z" fill-rule="evenodd"/></svg><view id="B017-Grid-Layout" viewBox="2045.8000000000002 1493.75 20 20"/><svg width="20" height="20" viewBox="0 0 20 20" x="2045.8000000000002" y="1493.75" xmlns="http://www.w3.org/2000/svg"><g fill-rule="evenodd"><path d="M0 0h9v9H0zM0 11h9v9H0zM11 0h9v20h-9z"/></g></svg><view id="B018-Mail" viewBox="0 1690.9 395 395"/><svg viewBox="0 0 395 395" width="395" height="395" y="1690.9" xmlns="http://www.w3.org/2000/svg"><path d="M395 320.089V74.911L258.806 197.5zM197.5 252.682l-38.884-35L22.421 340.271h350.158L236.384 217.682zM372.579 54.729H22.421L197.5 212.318zM0 74.911v245.178L136.194 197.5z"/></svg><view id="B018-Mobile-Grid" viewBox="2006.774 1443.45 24 24"/><svg viewBox="0 0 24 24" width="24" height="24" x="2006.774" y="1443.45" xmlns="http://www.w3.org/2000/svg"><circle cx="12" cy="19.7" r=".7"/><path d="M16.2 2H7.8c-.8 0-1.5.7-1.5 1.5v17.1c0 .7.7 1.4 1.5 1.4h8.4c.8 0 1.5-.7 1.5-1.5v-17c0-.8-.7-1.5-1.5-1.5zM13 3h.3c.2 0 .3.1.3.3 0 .2-.1.3-.3.3H13c-.2 0-.3-.1-.3-.3 0-.2.1-.3.3-.3zm-2.3 0H12c.2 0 .3.1.3.3 0 .2-.1.3-.3.3h-1.3c-.2 0-.3-.1-.3-.3-.1-.2.1-.3.3-.3zM12 21c-.7 0-1.3-.6-1.3-1.3 0-.7.6-1.3 1.3-1.3.7 0 1.3.6 1.3 1.3 0 .7-.6 1.3-1.3 1.3zm5-3.7H7V4.7h10v12.6z"/><g><path d="M7.8 5.4H10v2.2H7.8zM10.9 5.4h2.2v2.2h-2.2zM13.9 5.4h2.2v2.2h-2.2zM7.8 8.5h5.3v5.3H7.8z"/><path d="M10.9 8.5h2.2v2.2h-2.2zM13.9 8.5h2.2v2.2h-2.2z"/><g><path d="M7.8 11.5H10v2.2H7.8zM10.9 11.5h2.2v2.2h-2.2zM13.9 11.5h2.2v4.4h-2.2z"/></g><g><path d="M7.8 14.6h3.8v2.2H7.8z"/><path d="M10.9 14.6h2.2v2.2h-2.2zM13.9 14.6h2.2v2.2h-2.2z"/></g></g></svg><view id="B019-Error" viewBox="1745.8000000000002 500 488.45 488.45"/><svg viewBox="0 0 488.451 488.451" width="488.45" height="488.45" x="1745.8000000000002" y="500" xmlns="http://www.w3.org/2000/svg"><path d="M484.125 412.013l-212.2-367.6c-12.3-21.3-43.1-21.3-55.4 0l-212.2 367.6c-12.3 21.3 3.1 48 27.7 48h424.4c24.6 0 40-26.7 27.7-48zm-239.6-254.4c13.6 0 24.6 11.3 24.2 24.9l-4 139.6c-.3 11-9.3 19.7-20.3 19.7s-20-8.8-20.3-19.7l-3.9-139.6c-.3-13.6 10.6-24.9 24.3-24.9zm-.3 252.5c-13.9 0-25.2-11.3-25.2-25.2 0-13.9 11.3-25.2 25.2-25.2s25.2 11.3 25.2 25.2-11.3 25.2-25.2 25.2z"/></svg><view id="B020-Checked" viewBox="1745.8000000000002 988.45 455 455"/><svg viewBox="0 0 455 455" width="455" height="455" x="1745.8000000000002" y="988.45" xmlns="http://www.w3.org/2000/svg"><path d="M0 0v455h455V0H0zm194.93 319.897l-87.837-87.837 21.213-21.213 66.625 66.624 131.764-131.763 21.213 21.213L194.93 319.897z"/></svg><view id="B021-Form-Background" viewBox="2200.8 988.45 28.3 28.3"/><svg version="1.1" id="beLayer_1" x="2200.8" y="988.45" viewBox="0 0 28.3 28.3" xml:space="preserve" width="28.3" height="28.3" xmlns="http://www.w3.org/2000/svg"><style>.best0{fill:#fff}</style><path d="M0 0h28.3v28.3H0z"/><path class="best0" d="M24 8.9H4.3v-5H24v5zM5 8.1h18.2V4.6H5v3.5zM24 18.7H4.3v-8H24v8zM5 18h18.2v-6.5H5V18zM9.9 20.6h14.2v4.3H9.9zM7.2 23.5H4.3v-2.9h2.9v2.9zM5 22.7h1.4v-1.4H5v1.4z"/></svg><view id="B022-Form-Border" viewBox="2200.8 1016.75 28.3 28.3"/><svg viewBox="0 0 28.3 28.3" width="28.3" height="28.3" x="2200.8" y="1016.75" xmlns="http://www.w3.org/2000/svg"><path d="M28.2 28.3H0V0h28.3v28.3zM1.3 26.9h25.6V1.4H1.3v25.5z"/><path d="M24 8.9H4.3v-5H24v5zM5 8.1h18.2V4.6H5v3.5zM24 18.7H4.3v-8H24v8zM5 18h18.2v-6.5H5V18zM9.9 20.6h14.2v4.3H9.9zM7.2 23.5H4.3v-2.9h2.9v2.9zM5 22.7h1.4v-1.4H5v1.4z"/></svg><view id="B023-Input-Text" viewBox="2200.8 1045.05 28.3 28.3"/><svg viewBox="0 0 28.3 28.3" width="28.3" height="28.3" x="2200.8" y="1045.05" xmlns="http://www.w3.org/2000/svg"><path d="M28.3 20.8H0V7.5h28.3v13.3zM1.9 18.9h24.4V9.4H1.9v9.5z"/><path d="M10.5 10.1v2.7h1.8v-.9h.9v4.5h-.9v1.8H16v-1.8h-.9v-4.5h.9v.9h1.8v-2.7h-7.3z"/></svg><view id="B024-Input-Text-Hover" viewBox="2200.8 1073.35 28.3 28.3"/><svg viewBox="0 0 28.3 28.3" width="28.3" height="28.3" x="2200.8" y="1073.35" xmlns="http://www.w3.org/2000/svg"><path d="M28.3 20.8H0V7.5h28.3v13.3zM1.9 18.9h24.4V9.4H1.9v9.5z"/><path d="M10.5 10.1v2.7h1.8v-.9h.9v4.5h-.9v1.8H16v-1.8h-.9v-4.5h.9v.9h1.8v-2.7h-7.3zM15 24.3l-2.6-2.6 1.8-1.1c.1-.1.2-.2.2-.4s-.1-.3-.3-.4l-8.2-3.3c-.2-.1-.3 0-.5.1-.1.1-.2.3-.1.5l3.3 8.2c.1.2.2.3.4.3s.3-.1.4-.2l1.1-1.8 2.6 2.6c.1.1.2.1.3.1s.2 0 .3-.1l1.3-1.3c.2-.2.2-.4 0-.6z"/></svg><view id="B025-Input-Background" viewBox="2200.8 1101.6499999999999 28.3 28.3"/><svg viewBox="0 0 28.3 28.3" width="28.3" height="28.3" x="2200.8" y="1101.6499999999999" xmlns="http://www.w3.org/2000/svg"><path d="M0 7.5h28.3v13.3H0z"/></svg><view id="B026-Input-Background-Hover" viewBox="2200.8 1129.9499999999998 28.3 28.3"/><svg version="1.1" id="bjLayer_1" x="2200.8" y="1129.9499999999998" viewBox="0 0 28.3 28.3" xml:space="preserve" width="28.3" height="28.3" xmlns="http://www.w3.org/2000/svg"><style>.bjst0{fill:#fff}</style><path d="M0 7.5h28.3v13.3H0z"/><path d="M15 24.3l-2.6-2.6 1.8-1.1c.1-.1.2-.2.2-.4s-.1-.3-.3-.4l-8.2-3.3c-.2-.1-.3 0-.5.1-.1.1-.2.3-.1.5l3.3 8.2c.1.2.2.3.4.3s.3-.1.4-.2l1.1-1.8 2.6 2.6c.1.1.2.1.3.1s.2 0 .3-.1l1.3-1.3c.2-.2.2-.4 0-.6zM4.1 14.7c-.2-.2-.4-.2-.6 0-.2.2-.2.4 0 .6l1 1c.1.1.2.1.3.1.1 0 .2 0 .3-.1.2-.2.2-.4 0-.6l-1-1zM4.5 17.6c0-.2-.2-.4-.4-.4H2.7c-.2 0-.4.2-.4.4s.2.4.4.4H4c.3.1.5-.1.5-.4zM6.5 15.6c.2 0 .4-.2.4-.4v-1.4c0-.2-.2-.4-.4-.4s-.4.2-.4.4v1.4c0 .2.2.4.4.4zM8.1 16.2c.1 0 .2 0 .3-.1l1-1c.2-.2.2-.4 0-.6-.2-.2-.4-.2-.6 0l-1 1c-.2.2-.2.4 0 .6.1 0 .2.1.3.1z"/><g><path class="bjst0" d="M13.9 20.8l.3-.2c.1-.1.2-.2.2-.4s-.1-.3-.3-.4l-8.2-3.3c-.2-.1-.3 0-.5.1-.1.1-.2.3-.1.5l1.5 3.7h7.1z"/></g></svg><view id="B027-Input-Border" viewBox="2200.8 1158.2499999999998 28.3 28.3"/><svg viewBox="0 0 28.3 28.3" width="28.3" height="28.3" x="2200.8" y="1158.2499999999998" xmlns="http://www.w3.org/2000/svg"><path d="M28.3 20.8H0V7.5h28.3v13.3zM1.9 18.9h24.4V9.4H1.9v9.5z"/></svg><view id="B028-Input-Border-Hover" viewBox="2200.8 1186.5499999999997 28.3 28.3"/><svg viewBox="0 0 28.3 28.3" width="28.3" height="28.3" x="2200.8" y="1186.5499999999997" xmlns="http://www.w3.org/2000/svg"><path d="M28.3 20.8H0V7.5h28.3v13.3zM1.9 18.9h24.4V9.4H1.9v9.5z"/><path d="M15 24.3l-2.6-2.6 1.8-1.1c.1-.1.2-.2.2-.4s-.1-.3-.3-.4l-8.2-3.3c-.2-.1-.3 0-.5.1-.1.1-.2.3-.1.5l3.3 8.2c.1.2.2.3.4.3s.3-.1.4-.2l1.1-1.8 2.6 2.6c.1.1.2.1.3.1s.2 0 .3-.1l1.3-1.3c.2-.2.2-.4 0-.6z"/></svg><view id="B029-Input-Text-Area" viewBox="2200.8 1214.8499999999997 28.3 28.3"/><svg viewBox="0 0 28.3 28.3" width="28.3" height="28.3" x="2200.8" y="1214.8499999999997" xmlns="http://www.w3.org/2000/svg"><path d="M0 0v28.2h28.3V0H0zm1.9 25.4V1.9h24.4v24.5H1.9v-1z"/><path d="M22.7 10.8H5.6c-.2 0-.4.2-.4.4v.8c0 .2.2.4.4.4h17.1c.2 0 .4-.2.4-.4v-.8c0-.2-.2-.4-.4-.4zM22.7 15.8H5.6c-.2 0-.4.2-.4.4v.8c0 .2.2.4.4.4h17.1c.2 0 .4-.2.4-.4v-.8c0-.2-.2-.4-.4-.4zM16.8 20.8H5.6c-.2 0-.4.2-.4.4v.8c0 .2.2.4.4.4h11.2c.2 0 .4-.2.4-.4v-.8c-.1-.2-.2-.4-.4-.4zM22.7 5.8H5.6c-.2 0-.4.2-.4.5v.8c0 .2.2.4.4.4h17.1c.2 0 .4-.2.4-.4v-.8c0-.3-.2-.5-.4-.5z"/></svg><view id="B030-Input-Select" viewBox="2200.8 1243.1499999999996 28.3 28.3"/><svg viewBox="0 0 28.3 28.3" width="28.3" height="28.3" x="2200.8" y="1243.1499999999996" xmlns="http://www.w3.org/2000/svg"><path d="M28.3 20.8H0V7.5h28.3v13.3zM1.9 18.9h24.4V9.4H1.9v9.5z"/><path d="M4.8 11.5v1.8H6v-.6h.6v2.9H6v1.2h2.4v-1.2h-.6v-2.9h.6v.6h1.2v-1.8H4.8zM13 11.5l5.3 5.3 5.2-5.3z"/></svg><view id="B031-Input-Radio" viewBox="2200.8 1271.4499999999996 28.3 28.3"/><svg viewBox="0 0 28.3 28.3" width="28.3" height="28.3" x="2200.8" y="1271.4499999999996" xmlns="http://www.w3.org/2000/svg"><path d="M6.3 11c-1.8 0-3.2 1.4-3.2 3.2s1.4 3.2 3.2 3.2 3.2-1.4 3.2-3.2S8 11 6.3 11zm0-3.2C2.9 7.8 0 10.6 0 14.1s2.9 6.3 6.3 6.3 6.3-2.9 6.3-6.3-2.8-6.3-6.3-6.3zm0 11.4c-2.7 0-5-2.3-5-5s2.3-5 5-5 5 2.3 5 5-2.2 5-5 5zM22 7.8c-3.5 0-6.3 2.9-6.3 6.3s2.9 6.3 6.3 6.3 6.3-2.9 6.3-6.3-2.8-6.3-6.3-6.3zm0 11.4c-2.7 0-5-2.3-5-5s2.3-5 5-5 5 2.3 5 5-2.2 5-5 5z"/></svg><view id="B032-Input-Checkbox" viewBox="2200.8 1299.7499999999995 28.3 28.3"/><svg viewBox="0 0 28.3 28.3" width="28.3" height="28.3" x="2200.8" y="1299.7499999999995" xmlns="http://www.w3.org/2000/svg"><path d="M7.7 10.9L5.6 13l6.9 6.9L28.3 4.3l-2.1-2.1-13.7 13.6-4.8-4.9zm17.7 14.2H3.2V2.9h15.7V0H3.2C1.6 0 0 1.3 0 3.2v21.9c0 1.6 1.3 3.2 3.2 3.2h21.9c1.6 0 3.2-1.3 3.2-3.2V12.5h-3.2V25h.3z"/></svg><view id="B033-Input-Upload" viewBox="2200.8 1328.0499999999995 28.3 28.3"/><svg viewBox="0 0 28.3 28.3" width="28.3" height="28.3" x="2200.8" y="1328.0499999999995" xmlns="http://www.w3.org/2000/svg"><path d="M26.2 8.9c-.3-3.5-3.4-6.2-7.2-6.2-.7 0-1.5.1-2.3.3-1.4-1.8-3.5-3-5.9-3-3.9.1-7.3 3.2-7.3 7v.7C1.4 9 0 11.3 0 13.7c0 3.8 3.2 6.9 7.3 6.9.7 0 1.1-.6 1.1-1.1 0-.6-.4-1.3-1.1-1.3-2.7 0-4.9-2.1-4.9-4.5 0-1.8 1.1-3.4 3-4.2.5-.3.8-.9.7-1.5-.2-.3-.2-.7-.2-1 0-2.5 2.3-4.5 4.9-4.5 1.8 0 3.5 1 4.4 2.5.3.4 1 .7 1.5.4.7-.3 1.4-.6 2.3-.6 2.7 0 4.9 2 4.9 4.5 0 .3.1.6.4.8 1 .8 1.5 2 1.5 3.2 0 2.5-2.3 4.5-4.9 4.5-.8 0-1.7-.3-2.5-.6-.6-.3-1.3-.1-1.5.4-.3.6-.1 1.3.4 1.5 1.1.6 2.4 1 3.7 1 3.9 0 7.3-3.1 7.3-6.9-.1-1.4-.8-3.1-2.1-4.3z"/><path d="M17.2 13.7l-3.4-3.5c-.3-.3-.6-.4-.8-.4-.3 0-.6.1-.8.4l-3.4 3.5c-.4.4-.4 1.3 0 1.7s1.3.4 1.7 0l1.4-1.4v13.2c0 .7.6 1.1 1.1 1.1.7 0 1.1-.6 1.1-1.1V13.9l1.4 1.4c.4.4 1.1.4 1.7 0 .4-.5.4-1.2 0-1.6z"/></svg><view id="B034-Input-Button" viewBox="2200.8 1356.3499999999995 28.3 28.3"/><svg viewBox="0 0 28.3 28.3" width="28.3" height="28.3" x="2200.8" y="1356.3499999999995" xmlns="http://www.w3.org/2000/svg"><path d="M20.8 18.3l5.4-1.8c.4-.1.6-.5.6-.9s-.3-.8-.6-.9L10.6 9.5c-.4-.1-.6 0-.9.3s-.4.6-.3.9l5.2 15.6c.1.4.5.6.9.6s.8-.3.9-.6l1.8-5.4 6.9 6.9c.4.4.8.5 1.3.5s.9-.1 1.3-.5c.8-.8.8-1.9 0-2.6l-6.9-6.9zM11.3 7.7l4.5 1.5h8.8V3.7H3.7v5.5h4.1c.1-.2.4-.6.5-.9.7-.3 1.3-.7 2.1-.7.2 0 .5.1.9.1z"/><path d="M25.4 0H2.8C1.3 0 0 1.3 0 2.8v7.3c0 1.5 1.3 2.8 2.8 2.8h5.5l-.5-1.7v-.1h-5c-.5 0-.9-.4-.9-.9V2.8c0-.5.4-.8.9-.8h22.6c.5 0 .9.4.9.9v7.3c0 .5-.4.9-.9.9h-4.2l5.1 1.7c1.1-.4 1.9-1.4 1.9-2.6V2.8C28.3 1.3 27 0 25.4 0z"/></svg><view id="B035-Input-Number" viewBox="2200.8 1384.6499999999994 28.3 28.3"/><svg viewBox="0 0 28.3 28.3" width="28.3" height="28.3" x="2200.8" y="1384.6499999999994" xmlns="http://www.w3.org/2000/svg"><path d="M28.3 20.8H0V7.5h28.3v13.3zM1.9 18.9h24.4V9.4H1.9v9.5z"/><path d="M7.1 17.6H5.7v-5.2l-1.6.5v-1.1l2.8-1H7v6.8zM16.4 17.6h-4.7v-.9l2.2-2.4c.3-.3.5-.6.7-.9.1-.2.2-.5.2-.7 0-.3-.1-.5-.2-.7-.2-.2-.4-.3-.7-.3-.3 0-.5.1-.7.3s-.3.5-.3.8h-1.4c0-.4.1-.8.3-1.1s.5-.6.8-.8.8-.3 1.2-.3c.7 0 1.3.2 1.6.5.4.3.6.8.6 1.4 0 .3-.1.7-.3 1-.2.4-.5.8-.9 1.2l-1.6 1.6h2.9v1.3zM21 13.5h.7c.3 0 .6-.1.8-.3.2-.2.2-.4.2-.7 0-.3-.1-.5-.2-.6-.2-.2-.4-.2-.7-.2-.3 0-.5.1-.7.2-.2.1-.3.3-.3.6h-1.4c0-.4.1-.7.3-1 .2-.3.5-.5.8-.7.3-.2.7-.2 1.1-.2.7 0 1.3.2 1.7.5s.6.8.6 1.4c0 .3-.1.6-.3.9s-.4.5-.8.6c.4.1.7.3.9.6.2.3.3.6.3 1 0 .6-.2 1.1-.7 1.5-.4.4-1 .5-1.8.5-.7 0-1.2-.2-1.7-.5-.4-.4-.7-.8-.7-1.4h1.4c0 .3.1.5.3.6s.4.2.7.2c.3 0 .6-.1.8-.3.2-.2.3-.4.3-.7 0-.7-.4-1-1.1-1H21v-1z"/></svg><view id="B036-Input-Obligatory" viewBox="2200.8 1412.9499999999994 28.3 28.3"/><svg viewBox="0 0 28.3 28.3" width="28.3" height="28.3" x="2200.8" y="1412.9499999999994" xmlns="http://www.w3.org/2000/svg"><path d="M28.3 20.8H0V7.5h28.3v13.3zM1.9 18.9h24.4V9.4H1.9v9.5z"/><path d="M18.3 13.2v1.9l-2.8-.1 1.5 2.3-1.6.9-1.3-2.5-1.3 2.5-1.6-.9 1.5-2.3-2.7.1v-1.8l2.8.1-1.5-2.4 1.6-.9 1.3 2.5 1.3-2.5 1.6 1-1.5 2.3 2.7-.2z"/></svg><view id="B037-Input-Text-Focus" viewBox="1845.8000000000002 1443.45 28.3 28.3"/><svg viewBox="0 0 28.3 28.3" width="28.3" height="28.3" x="1845.8000000000002" y="1443.45" xmlns="http://www.w3.org/2000/svg"><path d="M28.3 20.8H0V7.5h28.3v13.3zM1.9 18.9h24.4V9.4H1.9v9.5z"/><path d="M9.1 10.1v2.7h1.8v-.9h.9v4.5h-.9v1.8h3.7v-1.8h-.9v-4.5h.9v.9h1.8v-2.7H9.1zM18.3 10.1h.9v8.1h-.9z"/></svg><view id="B038-Input-Text-Placeholder" viewBox="1874.1000000000001 1443.45 28.3 28.3"/><svg version="1.1" id="bvLayer_1" x="1874.1000000000001" y="1443.45" viewBox="0 0 28.3 28.3" xml:space="preserve" width="28.3" height="28.3" xmlns="http://www.w3.org/2000/svg"><style>.bvst0{opacity:.6}</style><path d="M28.3 20.8H0V7.5h28.3v13.3zM1.9 18.9h24.4V9.4H1.9v9.5z"/><path class="bvst0" d="M10.5 10.1v2.7h1.8v-.9h.9v4.5h-.9v1.8H16v-1.8h-.9v-4.5h.9v.9h1.8v-2.7h-7.3z"/></svg><view id="B039-Input-Text-Placeholder-Hover" viewBox="1902.4 1443.45 28.3 28.3"/><svg version="1.1" id="bwLayer_1" x="1902.4" y="1443.45" viewBox="0 0 28.3 28.3" xml:space="preserve" width="28.3" height="28.3" xmlns="http://www.w3.org/2000/svg"><style>.bwst0{opacity:.6;enable-background:new}</style><path d="M28.3 20.8H0V7.5h28.3v13.3zM1.9 18.9h24.4V9.4H1.9v9.5z"/><path class="bwst0" d="M10.5 10.1v2.7h1.8v-.9h.9v4.5h-.9v1.8H16v-1.8h-.9v-4.5h.9v.9h1.8v-2.7h-7.3z"/><path d="M15 24.3l-2.6-2.6 1.8-1.1c.1-.1.2-.2.2-.4s-.1-.3-.3-.4l-8.2-3.3c-.2-.1-.3 0-.5.1-.1.1-.2.3-.1.5l3.3 8.2c.1.2.2.3.4.3s.3-.1.4-.2l1.1-1.8 2.6 2.6c.1.1.2.1.3.1s.2 0 .3-.1l1.3-1.3c.2-.2.2-.4 0-.6z"/></svg><view id="B040-Input-Dimension-File" viewBox="1930.7 1443.45 28.3 28.3"/><svg viewBox="0 0 28.3 28.3" width="28.3" height="28.3" x="1930.7" y="1443.45" xmlns="http://www.w3.org/2000/svg"><path d="M17.9 16.7c0-.4-.3-.6-.8-.6h-.5v1.2h.4c.5 0 .9-.2.9-.6z"/><path d="M25.2 24.7l-2.6-14.2c-.1-.6-.6-1-1.2-1h-4.2c.8-.8 1.3-1.9 1.3-3.1 0-2.4-1.9-4.3-4.3-4.3S9.9 4 9.9 6.4c0 1.2.5 2.3 1.3 3.1H6.9c-.6 0-1.1.4-1.2 1L3.1 24.7c-.1.4 0 .7.3 1 .2.3.6.5.9.5H24c.4 0 .7-.2.9-.4.2-.3.3-.7.3-1.1zm-11-20.2c1.1 0 1.9.9 1.9 1.9s-.9 1.9-1.9 1.9-1.9-.9-1.9-1.9c-.1-1 .8-1.9 1.9-1.9zm-.7 15.8l-.1-1.9v-2c-.2.6-.4 1.3-.6 1.9l-.6 1.9h-.9l-.5-1.9c-.2-.6-.3-1.3-.4-1.9 0 .7-.1 1.4-.1 2l-.1 1.9h-1l.3-4.9H11l.5 1.7c.2.6.3 1.2.4 1.8.1-.6.3-1.2.5-1.8l.5-1.6h1.5l.3 4.9h-1.2zm5.1-.4c-.4.3-1 .4-1.9.4-.6 0-1 0-1.2-.1v-4.9c.3-.1.9-.1 1.4-.1.7 0 1.1.1 1.5.3.3.2.6.5.6 1 0 .4-.3.9-.8 1.1.6.2 1 .6 1 1.2-.1.5-.3.8-.6 1.1z"/><path d="M17 18.1h-.4v1.4h.4c.5 0 1-.2 1-.7 0-.5-.5-.7-1-.7z"/></svg><view id="B041-One-Column" viewBox="612 0 566.9 566.9"/><svg version="1.1" id="byLivello_1" x="612" viewBox="0 0 566.9 566.9" xml:space="preserve" width="566.9" height="566.9" xmlns="http://www.w3.org/2000/svg"><style>.byst0{fill:#fff}</style><path d="M0 0h566.9v566.9H0z"/><path class="byst0" d="M567.4 567.4H-.5V-.5h567.9v567.9zm-566.9-1h565.9V.5H.5v565.9z"/></svg><view id="B042-Two-Columns" viewBox="0 612 566.9 566.9"/><svg version="1.1" id="bzLivello_1" y="612" viewBox="0 0 566.9 566.9" xml:space="preserve" width="566.9" height="566.9" xmlns="http://www.w3.org/2000/svg"><style>.bzst0{fill:#fff}</style><path d="M.2.5H269v565.9H.2z"/><path class="bzst0" d="M269.3 566.9H0V0h269.3v566.9zm-268.8-1h268.3V1H.5v564.9z"/><g><path d="M297.9.5h268.8v565.9H297.9z"/><path class="bzst0" d="M566.9 566.9H297.6V0h269.3v566.9zm-268.8-1h268.3V1H298.1v564.9z"/></g></svg><view id="B043-Three-Columns" viewBox="566.9 612 566.9 566.9"/><svg version="1.1" id="caLivello_1" x="566.9" y="612" viewBox="0 0 566.9 566.9" xml:space="preserve" width="566.9" height="566.9" xmlns="http://www.w3.org/2000/svg"><style>.cast0{fill:#fff}</style><path d="M.1.5h169.8v565.9H.1z"/><path class="cast0" d="M170.1 566.9H0V0h170.1v566.9zm-169.8-1h169.4V1H.3v564.9z"/><path d="M198.5.5h169.8v565.9H198.5z"/><path class="cast0" d="M368.5 566.9H198.4V0h170.1v566.9zm-169.8-1h169.4V1H198.7v564.9z"/><g><path d="M396.9.5h169.8v565.9H396.9z"/><path class="cast0" d="M566.9 566.9H396.8V0h170.1v566.9zm-169.8-1h169.4V1H397.1v564.9z"/></g></svg><view id="B044-Four-Columns" viewBox="1178.9 0 566.9 566.9"/><svg version="1.1" id="cbLivello_1" x="1178.9" viewBox="0 0 566.9 566.9" xml:space="preserve" width="566.9" height="566.9" xmlns="http://www.w3.org/2000/svg"><style>.cbst0{fill:#fff}</style><path d="M.1.5h120.3v565.9H.1z"/><path class="cbst0" d="M120.5 566.9H0V0h120.5v566.9zm-120.3-1h120V1H.2v564.9z"/><path d="M148.9.5h120.3v565.9H148.9z"/><path class="cbst0" d="M269.3 566.9H148.8V0h120.5v566.9zm-120.3-1h120V1H149v564.9z"/><g><path d="M297.7.5H418v565.9H297.7z"/><path class="cbst0" d="M418.1 566.9H297.6V0h120.5v566.9zm-120.3-1h120V1h-120v564.9z"/></g><g><path d="M446.5.5h120.3v565.9H446.5z"/><path class="cbst0" d="M566.9 566.9H446.4V0h120.5v566.9zm-120.3-1h120V1h-120v564.9z"/></g></svg><view id="B045-Row-Label" viewBox="2065.8 1493.75 20 20"/><svg data-name="Livello 1" viewBox="0 0 20 20" width="20" height="20" x="2065.8" y="1493.75" xmlns="http://www.w3.org/2000/svg"><path d="M16 5h-2v2h2zm0 4h-2v2h2zM0 0v20h20V0zm18 18H2V2h16zm-2-5h-2v2h2zm-2.7-4H5v2h8.3z"/></svg><view id="C001-Link" viewBox="2085.8 1493.75 20 20"/><svg width="20" height="20" viewBox="0 0 20 20" x="2085.8" y="1493.75" xmlns="http://www.w3.org/2000/svg"><path d="M2 16.59l.384-.385 5.637-5.636 8.456-8.455L14.363 0H20v5.637l-2.114-2.114-8.455 8.455-5.637 5.637-.386.385H18v-8h2v10H0V0h10v2H2v14.59z" fill-rule="evenodd"/></svg><view id="C002-No-Select" viewBox="2105.8 1493.75 20 20"/><svg width="20" height="20" viewBox="0 0 20 20" x="2105.8" y="1493.75" xmlns="http://www.w3.org/2000/svg"><path d="M5.381 16.533A8 8 0 0016.533 5.38L5.38 16.533zM3.904 15.18L15.181 3.904A8 8 0 003.904 15.181zM10 20C4.477 20 0 15.523 0 10S4.477 0 10 0s10 4.477 10 10-4.477 10-10 10z" fill-rule="nonzero"/></svg><view id="C003-Image-Full" viewBox="2125.8 1493.75 20 20"/><svg width="20" height="20" viewBox="0 0 20 20" x="2125.8" y="1493.75" xmlns="http://www.w3.org/2000/svg"><g fill-rule="evenodd"><path d="M11.9 2H2v10.803L3.38 9.77l2.498 4.628L11.9 2zm2.267 0L18 7.918V2h-3.833zM20 0v20H0V0h20z"/><circle cx="3.287" cy="5.587" r="1.587"/></g></svg><view id="C004-Image-Natural" viewBox="2145.8 1493.75 20 20"/><svg width="20" height="20" viewBox="0 0 20 20" x="2145.8" y="1493.75" xmlns="http://www.w3.org/2000/svg"><g transform="translate(1 1)" fill-rule="evenodd"><path d="M7.426 13.815L12.49 3l4.6 7.37v7.307H9.435L1 17.64l4.618-7.302z"/><circle cx="5.328" cy="5.328" r="1.328"/><path d="M1 1v16h16V1H1zm18-2v20H-1V-1h20z"/></g></svg><view id="C005-Layout" viewBox="2165.8 1493.75 20 20"/><svg width="20" height="20" viewBox="0 0 20 20" x="2165.8" y="1493.75" xmlns="http://www.w3.org/2000/svg"><g fill-rule="evenodd"><path d="M10 12.5a2.5 2.5 0 110-5 2.5 2.5 0 010 5zM17.5 5a2.5 2.5 0 110-5 2.5 2.5 0 010 5zM17.5 12.5a2.5 2.5 0 110-5 2.5 2.5 0 010 5zM2.5 12.5a2.5 2.5 0 110-5 2.5 2.5 0 010 5zM17.5 20a2.5 2.5 0 110-5 2.5 2.5 0 010 5zM10.5 20a2.5 2.5 0 110-5 2.5 2.5 0 010 5zM10 5a2.5 2.5 0 110-5 2.5 2.5 0 010 5zM2.5 20a2.5 2.5 0 110-5 2.5 2.5 0 010 5zM2.5 5a2.5 2.5 0 110-5 2.5 2.5 0 010 5z"/></g></svg><view id="C006-Insert-Icon" viewBox="1024 1178.9 500 500"/><svg viewBox="0 0 500 500" width="500" height="500" x="1024" y="1178.9" xmlns="http://www.w3.org/2000/svg"><path d="M494.1 305.4l-62.7-29.7 62.7-30c3.5-1.7 5.6-4.7 5.6-8s-2.2-6.3-5.6-8l-159-75.5c-3.5-1.7-7.9-1.7-11.4 0l-10.1 4.8-1.3-7.7 62.3-60.7L288.5 78 250 0l-38.5 78-86.1 12.5 62.3 60.7-1.3 7.8-10.3-4.9c-3.5-1.7-7.9-1.7-11.4 0l-159 75.5c-3.5 1.7-5.6 4.7-5.6 8s2.1 6.4 5.6 8l62.7 30-62.8 29.8c-3.5 1.7-5.6 4.7-5.6 8s3.3 6.3 6.8 8L90 360.5v56.8c0 1.1-.5 2.1.7 2.7l157.8 75.1c.3.1.3.2.6.3.3.1.5.1.8.1.7 0 1.2-.1 1.8-.4l159.5-75.5c1.2-.6 2.3-1.6 2.3-2.7v-56.7l81-38.8c3.5-1.7 5.4-4.7 5.4-8 .1-3.3-2.3-6.3-5.8-8zM329.4 172.9l136.5 64.8-57 27.2-84-40-7.9-46.2 12.4-5.8zM33.9 237.7l136.5-64.8 12.6 6-7.9 45.9-84.3 40.1-56.9-27.2zm64.7 30.7l-.3.1-.6-.3c.3.1.7.1.9.2zm71.8 110.1l-136.5-65 56.9-27 136.5 64.8-56.9 27.2zm159 0l-57.1-27.3 136.6-64.8 57 27.1-136.5 65z"/></svg><view id="C007-Open-Box" viewBox="1745.8000000000002 0 500 500"/><svg viewBox="0 0 499.996 499.996" width="500" height="500" x="1745.8000000000002" xmlns="http://www.w3.org/2000/svg"><path d="M494.128 226.969l-62.656-36.38 62.688-36.656a11.345 11.345 0 00-.032-19.6L335.08 41.953a11.383 11.383 0 00-11.4-.008l-73.788 42.864-73.8-42.864a11.363 11.363 0 00-11.4.008L5.648 134.332a11.34 11.34 0 00-.032 19.6l62.688 36.656-62.656 36.38A11.355 11.355 0 000 236.776c0 4.036 3.312 7.764 6.796 9.8L90.044 294.4v69.52c0 1.348-.456 2.596.72 3.276l157.812 91.884c.292.168.312.296.632.38.312.088.496.12.824.12.66 0 1.24-.164 1.824-.5l159.48-92.38c1.164-.68 2.288-1.916 2.288-3.264v-69.408l80.964-47.448c3.488-2.036 5.408-5.764 5.408-9.8-.004-4.044-2.372-7.776-5.868-9.811zm-323.736 89.363L33.9 236.801l56.936-33.068 136.492 79.32-56.936 33.279zM97.704 181.488c.344.04.656.1.892.208l-.268.152-.624-.36zm-6.892-4.019l-56.944-33.288 136.524-79.304 56.944 33.072-136.524 79.52zM329.38 64.873l136.528 79.304-56.968 33.308-136.148-79.336-.356-.204 56.944-33.072zm.004 251.459l-57.144-33.404 136.632-79.236L465.88 236.8l-136.496 79.532z"/></svg><view id="C008-Star" viewBox="395 1690.9 306 306"/><svg width="306" height="306" viewBox="0 0 306 306" x="395" y="1690.9" xmlns="http://www.w3.org/2000/svg"><path d="M153 230.775l94.35 68.85-35.7-112.2 94.35-66.3H191.25L153 6.375l-38.25 114.75H0l94.35 66.3-35.7 112.2z"/></svg><view id="C009-RexSlider-Animation" viewBox="1932.8000000000002 1471.75 20 20.09"/><svg viewBox="0 0 20 20.09" width="20" height="20.09" x="1932.8000000000002" y="1471.75" xmlns="http://www.w3.org/2000/svg"><path d="M18.53 0H8.44A1.45 1.45 0 007 1.47v.64h1.35v-.64a.09.09 0 01.09-.09h10.09a.09.09 0 01.1.09v10.18c0 .09-.1.09-.1.09h-.82v1.38h.82A1.45 1.45 0 0020 11.65V1.47A1.45 1.45 0 0018.53 0zm-3.48 3.49H4.77a1.33 1.33 0 00-1.28 1.37v.74h1.28V5a.09.09 0 01.09-.09H15a.09.09 0 01.09.09v10.14a.09.09 0 01-.09.09h-.74v1.28h.83a1.33 1.33 0 001.28-1.37V4.86a1.27 1.27 0 00-1.32-1.37zM11.56 7H1.28A1.34 1.34 0 000 8.35v10.37a1.33 1.33 0 001.28 1.37h10.28a1.33 1.33 0 001.28-1.37V8.35A1.28 1.28 0 0011.56 7zm.09 11.56a.32.32 0 01-.09.19H1.47a.09.09 0 01-.09-.09V8.35a.09.09 0 01.09-.09h10.09a.09.09 0 01.09.09zM4.28 10H4.1c-.1 0-.1.09-.1.18v6.61c0 .09 0 .09.09.18h.18L9 13.67l.09-.09A.44.44 0 009 13.3z"/></svg><view id="C010-RexSlider-Arrow" viewBox="2054.774 1443.45 20 8.81"/><svg viewBox="0 0 20 8.81" width="20" height="8.81" x="2054.774" y="1443.45" xmlns="http://www.w3.org/2000/svg"><path d="M19.91 4.12L17.8 2.01a.43.43 0 00-.46 0 .43.43 0 000 .46l1.84 1.93-1.84 1.93a.43.43 0 000 .46.43.43 0 00.46 0l2.11-2.11a.48.48 0 000-.56zM2.66 2.01a.43.43 0 00-.46 0L.09 4.12a.48.48 0 000 .56L2.2 6.79a.43.43 0 00.46 0 .43.43 0 000-.46L.83 4.4l1.83-1.93a.43.43 0 000-.46zm2.2 6.79h10.28V0H4.86z"/></svg><view id="C011-RexSlider-Dots" viewBox="2234.25 500 10.28 13.03"/><svg viewBox="0 0 10.28 13.03" width="10.28" height="13.03" x="2234.25" y="500" xmlns="http://www.w3.org/2000/svg"><path d="M8.95 10.51a1.28 1.28 0 101.28 1.28 1.25 1.25 0 00-1.28-1.28zm0 2.11a.83.83 0 110-1.66.83.83 0 010 1.66zm-7.62-2.11a1.28 1.28 0 100 2.56 1.28 1.28 0 100-2.56zM0 0v8.8h10.28V0zm5.14 10.51a1.31 1.31 0 00-1.28 1.28 1.29 1.29 0 002.57 0 1.31 1.31 0 00-1.29-1.28zm0 2.11a.83.83 0 010-1.66.77.77 0 01.83.83.83.83 0 01-.83.78z"/></svg><view id="D001-Radius" viewBox="1845.8000000000002 1471.75 22 22"/><svg width="22" height="22" viewBox="0 0 22 22" x="1845.8000000000002" y="1471.75" xmlns="http://www.w3.org/2000/svg"><path d="M2 4.571V2l12.93.005C18.166 2.291 20 4.11 20 7.153V20h-2.575V7.153c0-1.655-.764-2.414-2.609-2.582H2z" fill-rule="evenodd"/></svg><view id="Z001-Plus" viewBox="2185.8 1493.75 20 20"/><svg width="20" height="20" viewBox="0 0 20 20" x="2185.8" y="1493.75" xmlns="http://www.w3.org/2000/svg"><path d="M9 9V0h2v9h9v2h-9v9H9v-9H0V9h9zm1 1.25V15v-4.75z" fill-rule="nonzero"/></svg><view id="Z002-Image-Full" viewBox="2205.8 1493.75 20 20"/><svg width="20" height="20" viewBox="0 0 20 20" x="2205.8" y="1493.75" xmlns="http://www.w3.org/2000/svg"><g transform="translate(0 3)" fill-rule="evenodd"><path d="M5 7l5 10H0z"/><path d="M12.5 2L20 17H5z"/><circle cx="5" cy="2" r="2"/></g></svg><view id="Z003-Close" viewBox="1745.8000000000002 1443.45 100 100"/><svg width="100" height="100" viewBox="0 0 100 100" x="1745.8000000000002" y="1443.45" xmlns="http://www.w3.org/2000/svg"><path d="M85.355 77.157L58.198 50l27.156-27.155a5.8 5.8 0 00.001-8.2 5.8 5.8 0 00-8.199 0L50 41.802 22.843 14.645a5.802 5.802 0 00-8.199 0 5.795 5.795 0 000 8.199l27.157 27.157-27.156 27.155a5.792 5.792 0 000 8.2 5.795 5.795 0 008.199 0l27.155-27.157 27.157 27.157a5.794 5.794 0 008.199 0 5.8 5.8 0 000-8.2z" fill-rule="nonzero"/></svg><view id="Z003-RexSlider" viewBox="2225.8 1493.75 20 20"/><svg width="20" height="20" viewBox="0 0 20 20" x="2225.8" y="1493.75" xmlns="http://www.w3.org/2000/svg"><g fill-rule="evenodd"><path d="M0 0h20v14H0V0zm6 3L2 7l4 3.845V3zm8 8l4-4-4-3.845V11zM5 16h2v2H5zM9 16h2v2H9zM13 16h2v2h-2z"/></g></svg><view id="Z004-Copy" viewBox="1845.8000000000002 1513.75 20 20"/><svg width="20" height="20" viewBox="0 0 20 20" x="1845.8000000000002" y="1513.75" xmlns="http://www.w3.org/2000/svg"><path d="M13 12h5V2H8v10h5zm-1 2H6V8H2v10h10v-4zM6 6V0h14v14h-6v6H0V6h6z" fill-rule="evenodd"/></svg><view id="Z005-Setting" viewBox="1865.8000000000002 1513.75 20 20"/><svg width="20" height="20" viewBox="0 0 20 20" x="1865.8000000000002" y="1513.75" xmlns="http://www.w3.org/2000/svg"><path d="M19.937 8.89c-.031-.282-.359-.493-.642-.493-.917 0-1.73-.538-2.071-1.37a2.227 2.227 0 01.56-2.473.555.555 0 00.06-.754 9.895 9.895 0 00-1.584-1.6.557.557 0 00-.76.062c-.596.66-1.667.905-2.495.56A2.221 2.221 0 0111.655.65a.555.555 0 00-.491-.584A9.984 9.984 0 008.914.06a.556.556 0 00-.495.572 2.225 2.225 0 01-1.37 2.133c-.817.334-1.88.091-2.475-.563a.558.558 0 00-.755-.064 9.933 9.933 0 00-1.617 1.6.556.556 0 00.06.76c.695.63.92 1.633.558 2.495-.345.822-1.198 1.352-2.175 1.352a.544.544 0 00-.578.49 10.017 10.017 0 00-.004 2.275c.031.282.369.491.655.491.871-.022 1.707.517 2.058 1.37.35.853.125 1.847-.56 2.474a.556.556 0 00-.06.753c.465.592.998 1.13 1.582 1.6.23.185.563.16.761-.06.598-.661 1.67-.906 2.493-.56a2.218 2.218 0 011.353 2.17.555.555 0 00.49.584 9.94 9.94 0 002.25.006.557.557 0 00.496-.572 2.223 2.223 0 011.368-2.133c.823-.336 1.882-.09 2.477.563a.559.559 0 00.754.064 9.956 9.956 0 001.618-1.6.555.555 0 00-.06-.76 2.216 2.216 0 01-.56-2.495 2.239 2.239 0 012.046-1.355l.124.003a.557.557 0 00.585-.49c.088-.752.09-1.517.004-2.274zm-9.921 4.467A3.34 3.34 0 016.68 10.02a3.34 3.34 0 013.336-3.335 3.34 3.34 0 013.335 3.335 3.34 3.34 0 01-3.335 3.336z" fill-rule="evenodd"/></svg><view id="Z006-Video" viewBox="1885.8000000000002 1513.75 20 20"/><svg width="20" height="20" viewBox="0 0 20 20" x="1885.8000000000002" y="1513.75" xmlns="http://www.w3.org/2000/svg"><path d="M20 10L0 20V0z" fill-rule="evenodd"/></svg><view id="Z007-Zoom" viewBox="1911.8000000000002 1471.75 21 21"/><svg width="21" height="21" viewBox="0 0 21 21" x="1911.8000000000002" y="1471.75" xmlns="http://www.w3.org/2000/svg"><path d="M14 12.586l7.014 7.014v1.385l-.03.03H19.6L12.586 14H0V0h14v12.586zM2 2v10h10V2H2zm6 4h2v2H8v2H6V8H4V6h2V4h2v2z" fill-rule="evenodd"/></svg><view id="Z008-Edit" viewBox="1905.8000000000002 1513.75 20 20"/><svg width="20" height="20" viewBox="0 0 20 20" x="1905.8000000000002" y="1513.75" xmlns="http://www.w3.org/2000/svg"><g fill-rule="evenodd"><path d="M.172 19.828c.168.17.424.22.644.124l5.363-2.298-3.833-3.833-2.299 5.362a.586.586 0 00.125.645zM13 3L15.293.707a1 1 0 011.414 0l2.586 2.586a1 1 0 010 1.414L16 8l-8.838 8.98-4.143-4.142L13 3z"/></g></svg><view id="Z009-More" viewBox="1925.8000000000002 1513.75 20 20"/><svg width="20" height="20" viewBox="0 0 20 20" x="1925.8000000000002" y="1513.75" xmlns="http://www.w3.org/2000/svg"><g transform="translate(8)" fill-rule="evenodd"><circle cx="2.5" cy="2.5" r="2.5"/><circle cx="2.5" cy="17.5" r="2.5"/><circle cx="2.5" cy="10" r="2.5"/></g></svg><view id="Z010-Logo" viewBox="2030.774 1443.45 24 9"/><svg width="24" height="9" viewBox="0 0 24 9" x="2030.774" y="1443.45" xmlns="http://www.w3.org/2000/svg"><path d="M24 .203l-4.418 8.613H4.418L0 .18l8.866 5.197L12 0l3.134 5.37z" fill-rule="evenodd"/></svg><view id="Z011-Arrow" viewBox="2229.1000000000004 988.45 16 23"/><svg width="16" height="23" viewBox="0 0 16 23" x="2229.1000000000004" y="988.45" xmlns="http://www.w3.org/2000/svg"><path d="M.726 15.323a.794.794 0 010-1.108c.29-.3.774-.3 1.064 0l5.452 5.621V1.287c0-.432.333-.787.752-.787.42 0 .764.355.764.787v18.549l5.441-5.621c.301-.3.785-.3 1.075 0 .301.31.301.798 0 1.108l-6.742 6.952c-.29.3-.774.3-1.064 0L.726 15.323z" fill-rule="evenodd"/></svg><view id="Z012-HeightBars" viewBox="1986.774 1443.45 20 26"/><svg width="20" height="26" viewBox="0 0 20 26" x="1986.774" y="1443.45" xmlns="http://www.w3.org/2000/svg"><g fill-rule="evenodd"><path d="M20 9.18l-3.682 7.656H3.682L0 9.16l7.388 4.62L10 9l2.612 4.774zM10.94 7V4.02H14L9.921 0 6 4.02h2.901V7zM9.06 19v2.98H6L10.079 26 14 21.98h-2.901V19z"/></g></svg><view id="Z012-Page" viewBox="1867.8000000000002 1471.75 22 22"/><svg width="22" height="22" viewBox="0 0 22 22" x="1867.8000000000002" y="1471.75" xmlns="http://www.w3.org/2000/svg"><path d="M9.685 2H5v18.063h12.096V9.375H9.685V2zm2 0v5.375h5.396L11.706 2h-.021zM3 2V0h9.534l6.562 6.562v15.5H3V2z" fill-rule="evenodd"/></svg><view id="Z013-Pages" viewBox="1889.8000000000002 1471.75 22 22"/><svg width="22" height="22" viewBox="0 0 22 22" x="1889.8000000000002" y="1471.75" xmlns="http://www.w3.org/2000/svg"><path d="M8.3 19.35h-2V16H2V0h7.108l1.337 1.3h6.879v2h3.064v18.536H8.3V19.35zm1.4 0v1.086h9.288V4.7h-1.664v14.65H9.7zM11.884 2.7L14 4.759V16H7.7v1.95h8.224V2.7h-4.04zm-4.9-1.25H3.49v13.1h9.018V6.799H6.886l.097-5.349zm1.49 0l-.07 3.899h4.094L8.49 1.45h-.015z" fill-rule="evenodd"/></svg><view id="Z014-Refresh" viewBox="1178.9 566.9 512 512"/><svg height="512" viewBox="0 0 512 512" width="512" x="1178.9" y="566.9" xmlns="http://www.w3.org/2000/svg"><path d="M61.496 279.61C60.508 271.374 60 263.194 60 256c0-107.402 88.598-196 196-196 50.098 0 97 20.2 131.5 51.7l-17.3 17.6c-3.9 3.9-5.4 9.598-3.9 15 1.802 5.098 6 9 11.4 10.2 3.019.605 102.214 32.57 95.898 31.3 8.035 2.677 19.918-5.894 17.703-17.698-.61-3.024-22.57-113.215-21.301-106.903-1.2-5.398-5.102-9.898-10.5-11.398-5.098-1.5-10.8 0-14.7 3.898l-14.698 14.399C384.8 25.8 322.598 0 256 0 115.3 0 0 115.3 0 256v.598c0 8.457.387 14.992.836 19.992a14.999 14.999 0 0012.004 13.36l30.816 6.16c10.032 2.007 19.051-6.403 17.84-16.5zm0 0M499.25 222.027l-30.906-6.297c-10.043-2.046-19.125 6.372-17.89 16.516C451.523 241 452 249.512 452 256c0 107.398-88.598 196-196 196-50.098 0-97-20.2-131.5-52l17.3-17.3c3.9-3.9 5.4-9.598 3.9-15-1.802-5.102-6-9-11.4-10.2-3.019-.61-102.214-32.57-95.898-31.3-5.101-.9-10.203.6-13.5 4.198-3.601 3.301-5.101 8.7-4.203 13.5.61 3.02 22.574 112.211 21.305 105.899 1.195 5.402 5.098 9.902 10.496 11.398 6.262 1.57 11.488-.328 14.7-3.898l14.402-14.399C126.898 485.2 189.102 512 256 512c140.7 0 256-115.3 256-256v-.902c0-6.649-.242-13.176-.797-19.664a14.994 14.994 0 00-11.953-13.407zm0 0"/></svg><view id="Z015-Question-Mark-Sign" viewBox="1959 1443.45 27.774 27.774"/><svg width="27.774" height="27.774" viewBox="0 0 27.774 27.774" x="1959" y="1443.45" xmlns="http://www.w3.org/2000/svg"><path d="M10.398 22.811h4.618v4.964h-4.618v-4.964zm10.66-21.217C19.854.532 17.612 0 14.33 0c-3.711 0-6.205.514-7.482 1.543-1.277 1.027-1.916 3.027-1.916 6l-.021 1.008h4.577l-.02-1.049c0-1.424.303-2.377.907-2.854.604-.477 1.814-.717 3.632-.717 1.936 0 3.184.228 3.74.676.559.451.837 1.457.837 3.017 0 1.883-.745 3.133-2.237 3.752l-1.797.766c-1.882.781-3.044 1.538-3.489 2.27-.442.732-.665 2.242-.665 4.529h4.68v-.646c0-1.41.987-2.533 2.965-3.365 2.03-.861 3.343-1.746 3.935-2.651.592-.908.888-2.498.888-4.771-.001-2.883-.603-4.853-1.806-5.914z"/></svg><view id="Z016-Checked" viewBox="0 1178.9 512 512"/><svg height="512" viewBox="0 0 515.556 515.556" width="512" y="1178.9" xmlns="http://www.w3.org/2000/svg"><path d="M0 274.226l176.549 176.886L515.556 112.44l-48.67-47.997-290.337 290L47.996 225.891z"/></svg><view id="Z016-Warning" viewBox="512 1178.9 512 512"/><svg viewBox="0 0 512 512" width="512" height="512" x="512" y="1178.9" xmlns="http://www.w3.org/2000/svg"><path d="M505.403 406.394L295.389 58.102c-8.274-13.721-23.367-22.245-39.39-22.245s-31.116 8.524-39.391 22.246L6.595 406.394c-8.551 14.182-8.804 31.95-.661 46.37 8.145 14.42 23.491 23.378 40.051 23.378h420.028c16.56 0 31.907-8.958 40.052-23.379 8.143-14.421 7.89-32.189-.662-46.369zm-28.364 29.978a12.684 12.684 0 01-11.026 6.436H45.985a12.68 12.68 0 01-11.025-6.435 12.683 12.683 0 01.181-12.765L245.156 75.316A12.732 12.732 0 01256 69.192c4.41 0 8.565 2.347 10.843 6.124l210.013 348.292a12.677 12.677 0 01.183 12.764z"/><path d="M256.154 173.005c-12.68 0-22.576 6.804-22.576 18.866 0 36.802 4.329 89.686 4.329 126.489.001 9.587 8.352 13.607 18.248 13.607 7.422 0 17.937-4.02 17.937-13.607 0-36.802 4.329-89.686 4.329-126.489 0-12.061-10.205-18.866-22.267-18.866zM256.465 353.306c-13.607 0-23.814 10.824-23.814 23.814 0 12.68 10.206 23.814 23.814 23.814 12.68 0 23.505-11.134 23.505-23.814 0-12.99-10.826-23.814-23.505-23.814z"/></svg></svg>