<!DOCTYPE svg PUBLIC "-//W3C//DTD SVG 1.1//EN" "http://www.w3.org/Graphics/SVG/1.1/DTD/svg11.dtd"><svg width="1005" height="712" viewBox="0 0 1005 712" xmlns="http://www.w3.org/2000/svg" xmlns:xlink="http://www.w3.org/1999/xlink"><view id="A001-Tablet" viewBox="100 612 100 100"/><svg width="100" height="100" viewBox="0 0 100 100" x="100" y="612" xmlns="http://www.w3.org/2000/svg"><path d="M76.36 100s9.367 0 9.367-9.09V9.09C85.727 0 76.36 0 76.36 0H22.37S13 0 13 9.09v81.82c0 9.09 9.368 9.09 9.368 9.09H76.36zm-27.11-3.436c-1.945 0-3.523-1.528-3.523-3.41 0-1.881 1.578-3.409 3.523-3.409s3.523 1.528 3.523 3.41c-.005 1.886-1.582 3.409-3.523 3.409zm-31.705-14.9V9.25c0-4.705 5.05-4.705 5.05-4.705h53.537s5.05 0 5.05 4.705v72.414c0 4.7-5.05 4.7-5.05 4.7H22.595s-5.05 0-5.05-4.7z" fill-rule="nonzero"/></svg><view id="A002-Redo" viewBox="0 612 100 100"/><svg width="100" height="100" viewBox="0 0 100 100" y="612" xmlns="http://www.w3.org/2000/svg"><path d="M2.14 83a2.13 2.13 0 0 0 1.984-1.315c.247-.593 6.432-14.656 29.558-17.441 4.817-.593 10.586-.897 17.593-.95v17.528c0 .81.43 1.543 1.14 1.93.704.373 1.547.32 2.203-.125l44.43-30.315c.6-.406.952-1.09.952-1.808a2.21 2.21 0 0 0-.952-1.813L54.6 18.372c-.656-.46-1.492-.49-2.205-.11a2.166 2.166 0 0 0-1.135 1.908v16.312C41.595 37.76 0 45.336 0 80.842c0 1.03.716 1.93 1.72 2.135.14.023.286.023.42.023z" fill="#000" fill-rule="nonzero"/></svg><view id="A003-Undo" viewBox="600 512 100 65"/><svg width="100" height="65" viewBox="0 0 100 65" x="600" y="512" xmlns="http://www.w3.org/2000/svg"><path d="M97.86 65a2.13 2.13 0 0 1-1.984-1.315c-.247-.593-6.432-14.656-29.558-17.441-4.817-.593-10.586-.897-17.593-.95v17.528c0 .81-.43 1.543-1.14 1.93a2.139 2.139 0 0 1-2.203-.125L.952 34.312A2.187 2.187 0 0 1 0 32.504c0-.726.352-1.387.952-1.813L45.4.372c.656-.46 1.492-.49 2.205-.11A2.166 2.166 0 0 1 48.74 2.17v16.312C58.405 19.76 100 27.336 100 62.842c0 1.03-.716 1.93-1.72 2.135-.14.023-.286.023-.42.023z" fill="#000" fill-rule="nonzero"/></svg><view id="A005-Save-Minimal" viewBox="300 612 100 100"/><svg width="100" height="100" viewBox="0 0 100 100" x="300" y="612" xmlns="http://www.w3.org/2000/svg"><path d="M1.154 52.308C.384 51.538 0 50.385 0 49.615c0-.769.385-1.923 1.154-2.692l5.384-5.385c1.539-1.538 3.847-1.538 5.385 0l.385.385 21.154 22.692c.769.77 1.923.77 2.692 0l51.538-53.461h.385c1.538-1.539 3.846-1.539 5.385 0l5.384 5.384c1.539 1.539 1.539 3.847 0 5.385L37.308 85.77c-.77.77-1.539 1.154-2.693 1.154-1.153 0-1.923-.385-2.692-1.154l-30-32.307-.77-1.154z" fill="#000" fill-rule="nonzero"/></svg><view id="A006-Save" viewBox="100 512 100 100"/><svg width="100" height="100" viewBox="0 0 100 100" x="100" y="512" xmlns="http://www.w3.org/2000/svg"><defs><path d="M50 100C22.386 100 0 77.614 0 50S22.386 0 50 0s50 22.386 50 50-22.386 50-50 50zM29.402 52.137l.342.513 13.333 14.359c.342.341.684.512 1.197.512.512 0 .854-.17 1.196-.512l27.35-28.377c.684-.683.684-1.709 0-2.393l-2.393-2.393c-.683-.684-1.71-.684-2.393 0h-.17l-22.907 23.76a.826.826 0 0 1-1.196 0l-9.402-10.085-.171-.17c-.684-.684-1.71-.684-2.393 0l-2.393 2.393c-.342.341-.513.854-.513 1.196 0 .342.17.855.513 1.197z" id="aea"/></defs><g fill-rule="evenodd"><mask id="aeb" fill="#fff"><use xlink:href="#aea"/></mask><use xlink:href="#aea"/></g></svg><view id="A007-Close" viewBox="200 512 100 100"/><svg width="100" height="100" viewBox="0 0 100 100" x="200" y="512" xmlns="http://www.w3.org/2000/svg"><path d="M98.966 72.493A3.597 3.597 0 0 1 100 75.06c0 .974-.345 1.86-1.034 2.569a3.472 3.472 0 0 1-5 0L50 32.46 6.034 77.63a3.472 3.472 0 0 1-5 0c-1.379-1.418-1.379-3.72 0-5.137L47.5 24.755a3.472 3.472 0 0 1 5 0l46.466 47.738z" fill-rule="nonzero"/></svg><view id="A008-Code" viewBox="300 512 100 100"/><svg width="100" height="100" viewBox="0 0 100 100" x="300" y="512" xmlns="http://www.w3.org/2000/svg"><g fill="#000" fill-rule="nonzero"><path d="M64.217 13.023l-3.428-.94c-.44-.146-.876-.1-1.298.14-.424.239-.71.598-.858 1.077L38.015 84.628c-.147.479-.101.93.138 1.353.24.424.599.71 1.079.857l3.427.94c.442.148.875.101 1.299-.138.424-.241.71-.6.856-1.077l20.62-71.33c.146-.478.1-.93-.14-1.354a1.794 1.794 0 0 0-1.077-.856zM31.034 26.934c0-.48-.178-.903-.533-1.272l-2.666-2.764c-.356-.368-.765-.553-1.227-.553-.462 0-.871.185-1.226.553L.533 48.66C.177 49.028 0 49.452 0 49.93c0 .48.178.904.533 1.272l24.848 25.762c.356.369.764.552 1.227.552.463 0 .871-.184 1.226-.552l2.667-2.763c.355-.368.533-.793.533-1.272s-.178-.903-.533-1.271L9.545 49.93l20.956-21.725c.356-.369.533-.793.533-1.272zM99.467 48.66l-24.85-25.762c-.356-.368-.765-.553-1.226-.553-.463 0-.87.185-1.227.553l-2.666 2.764c-.355.369-.532.792-.532 1.272s.177.903.532 1.271l20.958 21.727-20.958 21.727c-.355.368-.532.792-.532 1.27 0 .48.177.905.532 1.273l2.666 2.763c.356.369.764.552 1.227.552.461 0 .87-.184 1.226-.552l24.85-25.762c.355-.368.533-.793.533-1.272 0-.48-.178-.903-.533-1.271z"/></g></svg><view id="A009-Range" viewBox="400 512 100 100"/><svg width="100" height="100" viewBox="0 0 100 100" x="400" y="512" xmlns="http://www.w3.org/2000/svg"><defs><path id="aha" d="M74.942 49.744L66.198 41v7.222H33.744V41L25 49.744l8.744 8.744v-7.223h32.454v7.223z"/></defs><g fill="none" fill-rule="evenodd"><path stroke="#000" stroke-width="4" d="M2 2h96v96H2z"/><use fill="#000" fill-rule="nonzero" xlink:href="#aha"/></g></svg><view id="A010-Mobile" viewBox="500 512 100 100"/><svg width="100" height="100" viewBox="0 0 100 100" x="500" y="512" xmlns="http://www.w3.org/2000/svg"><path d="M69.704 0H30.73a7.15 7.15 0 0 0-7.15 7.149v84.818c0 3.949 3.2 7.149 7.15 7.149h38.975a7.15 7.15 0 0 0 7.151-7.149V7.149A7.15 7.15 0 0 0 69.705 0zm-24.27 4.227h9.565a.625.625 0 0 1 0 1.247h-9.565a.624.624 0 0 1 0-1.247zm-9.534-1.5a.998.998 0 1 1 0 1.995.998.998 0 0 1 0-1.995zm-4.521-.598a1.596 1.596 0 1 1 0 3.191 1.596 1.596 0 0 1 0-3.191zm21.334 93.358h-4.99a2.863 2.863 0 1 1 0-5.726h4.99a2.864 2.864 0 1 1 0 5.726zm21.114-7.99h-47.22v-75.88h47.22v75.88z" fill-rule="nonzero"/></svg><view id="A011-Desktop" viewBox="0 512 100 100"/><svg width="100" height="100" viewBox="0 0 100 100" y="512" xmlns="http://www.w3.org/2000/svg"><path d="M100 81.727V0H0v81.727h44.118V93.85H32.353v6.06h35.294v-6.06H55.883V81.727H100zM10 71.8V10h80v61.8H10z" fill-rule="nonzero"/></svg><view id="B001-Full" viewBox="868 512 24 24"/><svg id="akLivello_1" viewBox="-408 286.3 24 24" width="24" height="24" x="868" y="512" xmlns="http://www.w3.org/2000/svg"><style>.akst0{fill:none}.akst1{fill:#fff}</style><path class="akst0" d="M-2040 1431.5h24v24h-24v-24z"/><path d="M-387.8 291h-16.4c-1 0-1.8.8-1.8 1.8v10.9c0 1 .8 1.8 1.8 1.8h16.4c1 0 1.8-.8 1.8-1.8v-10.9c0-1-.8-1.8-1.8-1.8zm-16.4 1.8h2.2v10.9h-2.2v-10.9zm16.4 10.9h-2.2v-10.9h2.2v10.9z"/><path d="M-404.6 292.4h2.8V304h-2.8zM-390.2 292.6h2.8v11.6h-2.8z"/><path class="akst1" d="M-387.9 298.3l-2.9-1.8v1.3h-10.4v-1.3l-2.9 1.8 2.9 1.8v-1.4H-390.8v1.4z"/></svg><view id="B002-Boxed" viewBox="892 512 24 24"/><svg id="alLivello_1" viewBox="-408 286.3 24 24" width="24" height="24" x="892" y="512" xmlns="http://www.w3.org/2000/svg"><style>.alst0{fill:none}.alst1{fill:#fff}</style><path class="alst0" d="M-1632 1145.2h24v24h-24v-24z"/><path d="M-387.8 291h-16.4c-1 0-1.8.8-1.8 1.8v10.9c0 1 .8 1.8 1.8 1.8h16.4c1 0 1.8-.8 1.8-1.8v-10.9c0-1-.8-1.8-1.8-1.8zm-16.4 1.8h2.2v10.9h-2.2v-10.9zm16.4 10.9h-2.2v-10.9h2.2v10.9z"/><path class="alst1" d="M-398.5 298.7h5v1.4l2.9-1.8-2.9-1.8v1.3h-5v-1.3l-2.9 1.8 2.9 1.8v-1.4z"/></svg><view id="B003-Text" viewBox="700 512 24 24"/><svg id="amLivello_1" viewBox="-408 286.3 24 24" width="24" height="24" x="700" y="512" xmlns="http://www.w3.org/2000/svg"><style>.amst0{fill:none}</style><path class="amst0" d="M-408 286.3h24v24h-24v-24z"/><path class="amst1" d="M-406 303.7h20v3.3h-20v-3.3z"/><path d="M-396.8 289.5l-4.6 11.7h1.9l.9-2.5h5.2l.9 2.5h1.9l-4.6-11.7h-1.6zm-1.2 7.5l2-5.3 2 5.3h-4z"/></svg><view id="B004-Video" viewBox="916 512 24 24"/><svg viewBox="0 0 24 24" width="24" height="24" x="916" y="512" xmlns="http://www.w3.org/2000/svg"><path d="M7.6 17.6V6.4l8.8 5.7z"/></svg><view id="B005-Empty" viewBox="820 512 24 24"/><svg viewBox="0 0 24 24" width="24" height="24" x="820" y="512" xmlns="http://www.w3.org/2000/svg"><circle cx="20.9" cy="11.1" r="1.5"/><path d="M21.4 21.4H1.6V1.6h19.8v19.8zm-18.8-1h17.8V2.6H2.6v17.8z"/><circle cx="20.9" cy="20.9" r="1.5"/><circle cx="11.5" cy="20.9" r="1.5"/></svg><view id="B005-RexModel" viewBox="0 0 512 512"/><svg viewBox="0 0 512 512" width="512" height="512" xmlns="http://www.w3.org/2000/svg"><path d="M480 0H32C14.328 0 0 14.328 0 32v64c0 17.672 14.328 32 32 32s32-14.328 32-32V64h384v384H64v-32c0-17.672-14.328-32-32-32S0 398.328 0 416v64c0 17.672 14.328 32 32 32h448c17.672 0 32-14.328 32-32V32c0-17.672-14.328-32-32-32z"/><path d="M240.906 348.211A31.95 31.95 0 0 0 256 352a31.998 31.998 0 0 0 17.75-5.375l96-64C378.656 276.688 384 266.703 384 256s-5.344-20.688-14.25-26.625l-96-64c-9.828-6.555-22.484-7.156-32.844-1.586A31.989 31.989 0 0 0 224 192v32H32c-17.672 0-32 14.328-32 32s14.328 32 32 32h192v32c0 11.805 6.5 22.648 16.906 28.211z"/></svg><view id="B006-Colapse" viewBox="200 612 100 100"/><svg viewBox="0 0 100 100" width="100" height="100" x="200" y="612" xmlns="http://www.w3.org/2000/svg"><path d="M0 0v100h100V0H0zm97 81H3v-8h94v8zm0-27H3v-8h94v8zm0-27H3v-8h94v8z"/></svg><view id="B007-Move" viewBox="512 0 492.4 492.4"/><svg viewBox="0 0 492.4 492.4" width="492.4" height="492.4" x="512" xmlns="http://www.w3.org/2000/svg"><path d="M246.2 0L160 86.2h71.2v320H160l86.2 86.2 86.2-86.2h-71.2v-320h71.2z"/></svg><view id="B008-Lock-Close" viewBox="724 512 24 24"/><svg viewBox="0 0 24 24" width="24" height="24" x="724" y="512" xmlns="http://www.w3.org/2000/svg"><path d="M18.2 10.8h-.4v-3c0-3.1-2.5-5.8-5.6-5.8h-.3c-3.2.1-5.7 2.7-5.7 5.9v3c0 .7.5.8 1.1.8.7 0 1.3-.2 1.3-.9V7.9c0-1.9 1.5-3.4 3.4-3.4s3.4 1.5 3.4 3.4v3H5.8c-.6 0-1 .6-1 1.3v8.5c0 .7.5 1.3 1 1.3h12.3c.6 0 1-.6 1-1.3v-8.5c.1-.8-.4-1.4-.9-1.4zm-5 5.6V19c0 .3-.2.5-.5.5h-1.2c-.3 0-.5-.2-.5-.5v-2.6c-.3-.3-.5-.7-.5-1.1 0-.8.6-1.5 1.4-1.6h.3c.8 0 1.4.7 1.4 1.6 0 .4-.2.8-.4 1.1z"/></svg><view id="B009-Lock-Open" viewBox="748 512 24 24"/><svg viewBox="0 0 24 24" width="24" height="24" x="748" y="512" xmlns="http://www.w3.org/2000/svg"><path d="M18.2 10.8h-.4v-3c0-3.1-2.5-5.8-5.6-5.8h-.3c-3.2.1-5.7 2.7-5.7 5.9V8c0 .7.5.7 1.2.7s1.2 0 1.2-.7v-.1c0-1.9 1.5-3.4 3.4-3.4s3.4 1.5 3.4 3.4v3H5.8c-.6 0-1 .6-1 1.3v8.5c0 .7.5 1.3 1 1.3h12.3c.6 0 1-.6 1-1.3v-8.5c.1-.8-.4-1.4-.9-1.4zm-5 5.6V19c0 .3-.2.5-.5.5h-1.2c-.3 0-.5-.2-.5-.5v-2.6c-.3-.3-.5-.7-.5-1.1 0-.8.6-1.5 1.4-1.6h.3c.8 0 1.4.7 1.4 1.6 0 .4-.2.8-.4 1.1z"/></svg><view id="Z001-Plus" viewBox="400 612 100 100"/><svg width="100" height="100" viewBox="0 0 100 100" x="400" y="612" xmlns="http://www.w3.org/2000/svg"><path d="M94.203 44.203H55.797V5.8A5.8 5.8 0 0 0 50 0a5.8 5.8 0 0 0-5.797 5.798v38.405H5.797c-3.2 0-5.797 2.601-5.797 5.798a5.795 5.795 0 0 0 5.797 5.797h38.406v38.404A5.792 5.792 0 0 0 50 100a5.795 5.795 0 0 0 5.797-5.798V55.798h38.406A5.794 5.794 0 0 0 100 50.001a5.8 5.8 0 0 0-5.797-5.798z" fill-rule="nonzero"/></svg><view id="Z002-Image-Full" viewBox="796 512 24 24"/><svg id="avLivello_1" viewBox="-408 286.3 24 24" width="24" height="24" x="796" y="512" xmlns="http://www.w3.org/2000/svg"><style>.avst0{fill:none}</style><path class="avst0" d="M-408 286.3h24v24h-24v-24z"/><path d="M-387.8 291h-16.4c-1 0-1.8.8-1.8 1.8v10.9c0 1 .8 1.8 1.8 1.8h16.4c1 0 1.8-.8 1.8-1.8v-10.9c0-1-.8-1.8-1.8-1.8zm0 12.7h-16.4v-10.9h16.4v10.9z"/><path d="M-404.3 292v12.4h16.6V292h-16.6zm5.2 7.6l2.3 2.6 3.3-4.2 4.2 5.5H-402l2.9-3.9z"/></svg><view id="Z003-Close" viewBox="500 612 100 100"/><svg width="100" height="100" viewBox="0 0 100 100" x="500" y="612" xmlns="http://www.w3.org/2000/svg"><path d="M85.355 77.157L58.198 50l27.156-27.155a5.8 5.8 0 0 0 .001-8.2 5.8 5.8 0 0 0-8.199 0L50 41.802 22.843 14.645a5.802 5.802 0 0 0-8.199 0 5.795 5.795 0 0 0 0 8.199l27.157 27.157-27.156 27.155a5.792 5.792 0 0 0 0 8.2 5.795 5.795 0 0 0 8.199 0l27.155-27.157 27.157 27.157a5.794 5.794 0 0 0 8.199 0 5.8 5.8 0 0 0 0-8.2z" fill-rule="nonzero"/></svg><view id="Z003-RexSlider" viewBox="844 512 24 24"/><svg id="axLivello_1" viewBox="0 0 24 24" width="24" height="24" x="844" y="512" xmlns="http://www.w3.org/2000/svg"><style>.axst1{fill:none;stroke:#757575;stroke-width:.5;stroke-miterlimit:10}</style><path class="axst0" d="M22.8 12.3l-2.3 2.3c-.1.1-.4.1-.5 0s-.1-.4 0-.5l2-2.1-2-2.1c-.1-.1-.1-.4 0-.5s.4-.1.5 0l2.3 2.3c.1.1.1.2.1.3s0 .2-.1.3zM1.2 11.7l2.3-2.3c.1-.1.4-.1.5 0s.1.4 0 .5L2 12l2 2.1c.1.1.1.4 0 .5s-.4.1-.5 0l-2.3-2.3c-.1-.1-.1-.2-.1-.3s0-.2.1-.3z"/><g id="axPage-1"><g id="axTablet" transform="translate(-465 -617)"><g id="axGroup-7" transform="translate(465 617)"><path id="axRectangle-3" class="axst1" d="M6.4 7.2h11.2v9.6H6.4z"/></g></g></g><g id="axGroup-6" transform="translate(4.35 20.3)"><g id="axGroup-5"><ellipse id="axOval-3_3_" class="axst0" cx="4.4" cy="-1.2" rx=".9" ry=".9"/><path class="axst0" d="M4.4-.1c-.6 0-1.1-.5-1.1-1.1s.5-1.1 1.1-1.1 1.2.5 1.2 1.1S5-.1 4.4-.1zm0-1.8c-.4 0-.7.3-.7.7s.3.7.7.7.7-.3.7-.7-.3-.7-.7-.7zM7.6-.1C7-.1 6.5-.6 6.5-1.2S7-2.3 7.6-2.3s1.1.5 1.1 1.1S8.2-.1 7.6-.1zm0-1.8c-.4 0-.7.3-.7.7s.3.7.7.7c.4 0 .7-.3.7-.7s-.2-.7-.7-.7zM10.9-.1c-.6 0-1.1-.5-1.1-1.1s.5-1.1 1.1-1.1 1.1.4 1.1 1.1-.5 1.1-1.1 1.1zm0-1.8c-.4 0-.7.3-.7.7s.3.7.7.7.7-.3.7-.7-.3-.7-.7-.7z"/></g></g></svg><view id="Z004-Copy" viewBox="600 612 100 100"/><svg width="100" height="100" viewBox="0 0 100 100" x="600" y="612" xmlns="http://www.w3.org/2000/svg"><g fill-rule="nonzero"><path d="M74.812 100H3.76A3.76 3.76 0 0 1 0 96.24V25.188a3.76 3.76 0 0 1 3.76-3.76h71.052a3.76 3.76 0 0 1 3.76 3.76V96.24a3.76 3.76 0 0 1-3.76 3.76zM7.519 92.479h63.532V28.948H7.519v63.53z"/><path d="M96.24 78.571h-7.633a3.76 3.76 0 0 1 0-7.519h3.874V7.521H28.948v4.183a3.759 3.759 0 1 1-7.52 0V3.76A3.76 3.76 0 0 1 25.189 0H96.24A3.76 3.76 0 0 1 100 3.76v71.052a3.76 3.76 0 0 1-3.76 3.76z"/></g></svg><view id="Z005-Setting" viewBox="700 612 100 100"/><svg width="100" height="100" viewBox="0 0 100 100" x="700" y="612" xmlns="http://www.w3.org/2000/svg"><path d="M99.687 44.448c-.158-1.406-1.797-2.462-3.214-2.462-4.583 0-8.649-2.69-10.354-6.851-1.742-4.262-.619-9.232 2.796-12.365A2.777 2.777 0 0 0 89.22 19a49.478 49.478 0 0 0-7.92-8 2.783 2.783 0 0 0-3.801.308c-2.98 3.3-8.334 4.527-12.47 2.8-4.306-1.81-7.02-6.172-6.755-10.855A2.774 2.774 0 0 0 55.82.333a49.92 49.92 0 0 0-11.248-.03 2.782 2.782 0 0 0-2.476 2.861c.163 4.636-2.585 8.922-6.847 10.668-4.087 1.67-9.403.453-12.378-2.818a2.788 2.788 0 0 0-3.773-.317 49.664 49.664 0 0 0-8.089 7.997 2.781 2.781 0 0 0 .299 3.8c3.48 3.151 4.603 8.165 2.795 12.476-1.726 4.11-5.994 6.758-10.88 6.758-1.585-.05-2.714 1.013-2.887 2.455a50.086 50.086 0 0 0-.022 11.37c.157 1.412 1.846 2.46 3.279 2.46 4.354-.112 8.534 2.584 10.288 6.851 1.748 4.262.624 9.229-2.796 12.364a2.779 2.779 0 0 0-.304 3.768 49.657 49.657 0 0 0 7.91 8.002 2.78 2.78 0 0 0 3.806-.301c2.991-3.309 8.344-4.534 12.465-2.804 4.316 1.805 7.03 6.167 6.765 10.852a2.777 2.777 0 0 0 2.454 2.92 49.701 49.701 0 0 0 11.249.031 2.783 2.783 0 0 0 2.475-2.863c-.168-4.634 2.585-8.92 6.841-10.663 4.115-1.68 9.409-.45 12.384 2.817a2.794 2.794 0 0 0 3.773.316 49.78 49.78 0 0 0 8.09-7.997 2.776 2.776 0 0 0-.3-3.8c-3.48-3.152-4.609-8.166-2.801-12.474 1.7-4.055 5.809-6.778 10.229-6.778l.618.016c1.434.117 2.753-.988 2.927-2.451.44-3.76.446-7.584.022-11.37zM50.08 66.784c-9.197 0-16.678-7.481-16.678-16.678 0-9.197 7.481-16.678 16.678-16.678 9.197 0 16.678 7.481 16.678 16.678 0 9.197-7.481 16.678-16.678 16.678z" fill-rule="evenodd"/></svg><view id="Z006-Video" viewBox="772 512 24 24"/><svg viewBox="0 0 24 24" width="24" height="24" x="772" y="512" xmlns="http://www.w3.org/2000/svg"><path d="M7.6 17.6V6.4l8.8 5.7z"/></svg></svg>