<!DOCTYPE svg PUBLIC "-//W3C//DTD SVG 1.1//EN" "http://www.w3.org/Graphics/SVG/1.1/DTD/svg11.dtd"><svg xmlns="http://www.w3.org/2000/svg" xmlns:xlink="http://www.w3.org/1999/xlink"><symbol viewBox="0 0 20 20" id="A001-Tablet" xmlns="http://www.w3.org/2000/svg"><path d="M4 14h12V2H4v12zM18 0v20H2V0h16zM9 16v2h2v-2H9z" fill-rule="evenodd"/></symbol><symbol viewBox="0 0 20 20" id="A002-Redo" xmlns="http://www.w3.org/2000/svg"><path d="M.393 16.692c.172 0 2.506-3.846 11.204-3.846v3.077c0 .16 8.403-5.567 8.403-5.708 0-.143-8.403-6.216-8.403-6.06V7.36c-1.406.093-4.107.093-6.982 2.408-3.4 2.738-4.357 6.81-4.222 6.837.028.005-.027.086 0 .086z" fill-rule="evenodd"/></symbol><symbol viewBox="0 0 20 20" id="A003-Undo" xmlns="http://www.w3.org/2000/svg"><path d="M19.607 16.692c-.172 0-2.506-3.846-11.204-3.846v3.077c0 .16-8.403-5.567-8.403-5.708C0 10.072 8.403 4 8.403 4.155V7.36c1.406.093 4.107.093 6.982 2.408 3.4 2.738 4.357 6.81 4.222 6.837-.028.005.027.086 0 .086z" fill-rule="evenodd"/></symbol><symbol viewBox="0 0 20 20" id="A006-Save" xmlns="http://www.w3.org/2000/svg"><path d="M10 20C4.477 20 0 15.523 0 10S4.477 0 10 0s10 4.477 10 10-4.477 10-10 10zm6-15l-8 8-4-4H2l6 6L18 5h-2z" fill-rule="evenodd"/></symbol><symbol viewBox="0 0 20 20" id="A006-Save-Clear" xmlns="http://www.w3.org/2000/svg"><path d="M4.002 9H2l6.002 6 10-10h-2l-8 8-4-4z" fill-rule="evenodd"/></symbol><symbol viewBox="0 0 20 20" id="A007-Close" xmlns="http://www.w3.org/2000/svg"><path d="M2 15H0L10 5l10 10h-2l-8-8z" fill-rule="evenodd"/></symbol><symbol viewBox="0 0 20 20" id="A008-Code" xmlns="http://www.w3.org/2000/svg"><g fill-rule="evenodd"><path d="M14 5.846V4l6 5.94L14 16v-2.03l4-4.03zM6 14.154V16l-6-5.94L6 4v2.03l-4 4.03zM8.508 20H6.5l5.02-20h1.98z"/></g></symbol><symbol viewBox="0 0 20 20" id="A009-Range" xmlns="http://www.w3.org/2000/svg"><g fill-rule="evenodd"><path d="M2 2v16h16V2H2zm18-2v20H0V0h20z"/><path d="M18 10l-4-4v3H6V6l-4 4 4 3.845V11h8v3z"/></g></symbol><symbol viewBox="0 0 20 20" id="A010-Mobile" xmlns="http://www.w3.org/2000/svg"><path d="M7 14h6V2H7v12zm8-14v20H5V0h10zM9 16v2h2v-2H9z" fill-rule="nonzero"/></symbol><symbol viewBox="0 0 20 20" id="A011-Desktop" xmlns="http://www.w3.org/2000/svg"><path d="M9 18v-2H0V0h20v16h-9v2h2v2H7v-2h2zM2 2v12h16V2H2z" fill-rule="nonzero"/></symbol><symbol viewBox="0 0 20 20" id="A012-Models-List" xmlns="http://www.w3.org/2000/svg"><path d="M2 11.539v2.41l8 3.83 8-3.83v-2.41l-8 3.555-8-3.555zM2 9.35l8 3.556 8-3.556V6.475l-8 3.829-8-3.83V9.35zm15.82-5.007L10 1.986 2.18 4.343 10 8.086l7.82-3.743zM20 3.3v11.91l-10 4.786L0 15.21v-12L10 0l10 3.21v.09z" fill-rule="evenodd"/></symbol><symbol viewBox="0 0 20 20" id="B001-Full" xmlns="http://www.w3.org/2000/svg"><path d="M0 0h20v20H0V0zm18 10l-4-4v3H6V6l-4 4 4 3.845V11h8v3l4-4z" fill-rule="evenodd"/></symbol><symbol viewBox="0 0 20 20" id="B002-Boxed" xmlns="http://www.w3.org/2000/svg"><path d="M4 2h12v16H4V2zm12 8l-4-4v3H8V6l-4 4 4 3.845V11h4v2.944L16 10zM2 2v16h16V2H2zm18-2v20H0V0h20z" fill-rule="nonzero"/></symbol><symbol viewBox="0 0 20 20" id="B003-Text" xmlns="http://www.w3.org/2000/svg"><g fill-rule="evenodd"><path d="M20 20H0h20zM0 0h20v2H0z"/><path d="M11 0v20H9V0z"/></g></symbol><symbol viewBox="0 0 20 20" id="B005-RexModel" xmlns="http://www.w3.org/2000/svg"><path d="M2 11v7h16V2H2v7h10V6l4 4-4 4v-3H2zM0 0h20v20H0V0z" fill-rule="evenodd"/></symbol><symbol viewBox="0 0 20 20" id="B006-Collapse" xmlns="http://www.w3.org/2000/svg"><g fill-rule="evenodd"><path d="M0 0h20v4H0zM0 8h20v4H0zM0 16h20v4H0z"/></g></symbol><symbol viewBox="0 0 20 20" id="B007-Move" xmlns="http://www.w3.org/2000/svg"><path d="M10 0L6 4h3v12H6l4 4 4-4h-3V4h3z" fill-rule="evenodd"/></symbol><symbol viewBox="0 0 20 20" id="B010-Masonry" xmlns="http://www.w3.org/2000/svg"><g fill-rule="evenodd"><path d="M0 9h9v11H0zM11 14h9v6h-9zM11 0h9v12h-9zM0 0h9v7H0z"/></g></symbol><symbol viewBox="0 0 20 20" id="B011-Grid" xmlns="http://www.w3.org/2000/svg"><g fill-rule="evenodd"><path d="M0 0h9v9H0zM0 11h9v9H0zM11 0h9v9h-9zM11 11h9v9h-9z"/></g></symbol><symbol viewBox="0 0 20 20" id="B012-Full-Height" xmlns="http://www.w3.org/2000/svg"><g fill-rule="evenodd"><path d="M2 2v16h16V2H2zm18-2v20H0V0h20z"/><path d="M10 2L6 6h3v8H6l4 4 3.845-4H11V6h3z"/></g></symbol><symbol viewBox="0 0 20 20" id="B013-Row-ID" xmlns="http://www.w3.org/2000/svg"><g fill-rule="evenodd"><path d="M2 2v16h16V2H2zm18-2v20H0V0h20z" fill-rule="nonzero"/><path d="M14 5h2v2h-2zM14 9h2v2h-2zM14 13h2v2h-2z"/></g></symbol><symbol viewBox="0 0 20 20" id="B014-Closed" xmlns="http://www.w3.org/2000/svg"><path d="M5 8V4.042A4.038 4.038 0 0 1 9.032 0h1.936C13.196 0 15 1.81 15 4.042V8h2v6.138C17 17.376 14.285 20 10.934 20H9.067C5.716 20 3 17.376 3 14.138V8h2zm2.287 0h5.425V4.042c-.001-.966-.78-1.747-1.744-1.749H9.032a1.75 1.75 0 0 0-1.745 1.749V8zm3.602 5.46c.572-.228.976-.772.976-1.408 0-.843-.707-1.525-1.578-1.525-.872 0-1.578.682-1.578 1.525 0 .634.4 1.178.97 1.408v2.685c0 .323.27.584.605.584a.595.595 0 0 0 .605-.584v-2.684z" fill-rule="evenodd"/></symbol><symbol viewBox="0 0 20 20" id="B015-UnClosed" xmlns="http://www.w3.org/2000/svg"><path d="M12.712 8V4.042c-.001-.966-.78-1.747-1.744-1.749H9.032a1.75 1.75 0 0 0-1.745 1.749V6H5V4.042A4.038 4.038 0 0 1 9.032 0h1.936C13.196 0 15 1.81 15 4.042V8h2v6.138C17 17.376 14.285 20 10.934 20H9.067C5.716 20 3 17.376 3 14.138V8h9.712zm-1.823 5.46c.572-.228.976-.772.976-1.408 0-.843-.707-1.525-1.578-1.525-.872 0-1.578.682-1.578 1.525 0 .634.4 1.178.97 1.408v2.685c0 .323.27.584.605.584a.595.595 0 0 0 .605-.584v-2.684z" fill-rule="evenodd"/></symbol><symbol viewBox="0 0 20 20" id="B016-New-Adjacent-Row" xmlns="http://www.w3.org/2000/svg"><path d="M4 4v12h12V4H4zM0 0h20v20H0V0z" fill-rule="evenodd"/></symbol><symbol viewBox="0 0 20 20" id="B017-Grid-Layout" xmlns="http://www.w3.org/2000/svg"><g fill-rule="evenodd"><path d="M0 0h9v9H0zM0 11h9v9H0zM11 0h9v20h-9z"/></g></symbol><symbol viewBox="0 0 20 20" id="C001-Link" xmlns="http://www.w3.org/2000/svg"><path d="M2 16.59l.384-.385 5.637-5.636 8.456-8.455L14.363 0H20v5.637l-2.114-2.114-8.455 8.455-5.637 5.637-.386.385H18v-8h2v10H0V0h10v2H2v14.59z" fill-rule="evenodd"/></symbol><symbol viewBox="0 0 20 20" id="C002-No-Select" xmlns="http://www.w3.org/2000/svg"><path d="M5.381 16.533A8 8 0 0 0 16.533 5.38L5.38 16.533zM3.904 15.18L15.181 3.904A8 8 0 0 0 3.904 15.181zM10 20C4.477 20 0 15.523 0 10S4.477 0 10 0s10 4.477 10 10-4.477 10-10 10z" fill-rule="nonzero"/></symbol><symbol viewBox="0 0 20 20" id="C003-Image-Full" xmlns="http://www.w3.org/2000/svg"><g fill-rule="evenodd"><path d="M11.9 2H2v10.803L3.38 9.77l2.498 4.628L11.9 2zm2.267 0L18 7.918V2h-3.833zM20 0v20H0V0h20z"/><circle cx="3.287" cy="5.587" r="1.587"/></g></symbol><symbol viewBox="0 0 20 20" id="C004-Image-Natural" xmlns="http://www.w3.org/2000/svg"><g transform="translate(1 1)" fill-rule="evenodd"><path d="M7.426 13.815L12.49 3l4.6 7.37v7.307H9.435L1 17.64l4.618-7.302z"/><circle cx="5.328" cy="5.328" r="1.328"/><path d="M1 1v16h16V1H1zm18-2v20H-1V-1h20z"/></g></symbol><symbol viewBox="0 0 20 20" id="C005-Layout" xmlns="http://www.w3.org/2000/svg"><g fill-rule="evenodd"><path d="M10 12.5a2.5 2.5 0 1 1 0-5 2.5 2.5 0 0 1 0 5zM17.5 5a2.5 2.5 0 1 1 0-5 2.5 2.5 0 0 1 0 5zM17.5 12.5a2.5 2.5 0 1 1 0-5 2.5 2.5 0 0 1 0 5zM2.5 12.5a2.5 2.5 0 1 1 0-5 2.5 2.5 0 0 1 0 5zM17.5 20a2.5 2.5 0 1 1 0-5 2.5 2.5 0 0 1 0 5zM10.5 20a2.5 2.5 0 1 1 0-5 2.5 2.5 0 0 1 0 5zM10 5a2.5 2.5 0 1 1 0-5 2.5 2.5 0 0 1 0 5zM2.5 20a2.5 2.5 0 1 1 0-5 2.5 2.5 0 0 1 0 5zM2.5 5a2.5 2.5 0 1 1 0-5 2.5 2.5 0 0 1 0 5z"/></g></symbol><symbol viewBox="0 0 500 500" id="C006-Insert-Icon" xmlns="http://www.w3.org/2000/svg"><path d="M494.1 305.4l-62.7-29.7 62.7-30c3.5-1.7 5.6-4.7 5.6-8s-2.2-6.3-5.6-8l-159-75.5c-3.5-1.7-7.9-1.7-11.4 0l-10.1 4.8-1.3-7.7 62.3-60.7L288.5 78 250 0l-38.5 78-86.1 12.5 62.3 60.7-1.3 7.8-10.3-4.9c-3.5-1.7-7.9-1.7-11.4 0l-159 75.5c-3.5 1.7-5.6 4.7-5.6 8s2.1 6.4 5.6 8l62.7 30-62.8 29.8c-3.5 1.7-5.6 4.7-5.6 8s3.3 6.3 6.8 8L90 360.5v56.8c0 1.1-.5 2.1.7 2.7l157.8 75.1c.3.1.3.2.6.3.3.1.5.1.8.1.7 0 1.2-.1 1.8-.4l159.5-75.5c1.2-.6 2.3-1.6 2.3-2.7v-56.7l81-38.8c3.5-1.7 5.4-4.7 5.4-8 .1-3.3-2.3-6.3-5.8-8zM329.4 172.9l136.5 64.8-57 27.2-84-40-7.9-46.2 12.4-5.8zM33.9 237.7l136.5-64.8 12.6 6-7.9 45.9-84.3 40.1-56.9-27.2zm64.7 30.7l-.3.1-.6-.3c.3.1.7.1.9.2zm71.8 110.1l-136.5-65 56.9-27 136.5 64.8-56.9 27.2zm159 0l-57.1-27.3 136.6-64.8 57 27.1-136.5 65z"/></symbol><symbol viewBox="0 0 499.996 499.996" id="C007-Open-Box" xmlns="http://www.w3.org/2000/svg"><path d="M494.128 226.969l-62.656-36.38 62.688-36.656a11.345 11.345 0 0 0-.032-19.6L335.08 41.953a11.383 11.383 0 0 0-11.4-.008l-73.788 42.864-73.8-42.864a11.363 11.363 0 0 0-11.4.008L5.648 134.332a11.34 11.34 0 0 0-.032 19.6l62.688 36.656-62.656 36.38A11.355 11.355 0 0 0 0 236.776c0 4.036 3.312 7.764 6.796 9.8L90.044 294.4v69.52c0 1.348-.456 2.596.72 3.276l157.812 91.884c.292.168.312.296.632.38.312.088.496.12.824.12.66 0 1.24-.164 1.824-.5l159.48-92.38c1.164-.68 2.288-1.916 2.288-3.264v-69.408l80.964-47.448c3.488-2.036 5.408-5.764 5.408-9.8-.004-4.044-2.372-7.776-5.868-9.811zm-323.736 89.363L33.9 236.801l56.936-33.068 136.492 79.32-56.936 33.279zM97.704 181.488c.344.04.656.1.892.208l-.268.152-.624-.36zm-6.892-4.019l-56.944-33.288 136.524-79.304 56.944 33.072-136.524 79.52zM329.38 64.873l136.528 79.304-56.968 33.308-136.148-79.336-.356-.204 56.944-33.072zm.004 251.459l-57.144-33.404 136.632-79.236L465.88 236.8l-136.496 79.532z"/></symbol><symbol viewBox="0 0 306 306" id="C008-Star" xmlns="http://www.w3.org/2000/svg"><path d="M153 230.775l94.35 68.85-35.7-112.2 94.35-66.3H191.25L153 6.375l-38.25 114.75H0l94.35 66.3-35.7 112.2z"/></symbol><symbol viewBox="0 0 22 22" id="D001-Radius" xmlns="http://www.w3.org/2000/svg"><path d="M2 4.571V2l12.93.005C18.166 2.291 20 4.11 20 7.153V20h-2.575V7.153c0-1.655-.764-2.414-2.609-2.582H2z" fill-rule="evenodd"/></symbol><symbol viewBox="0 0 20 20" id="Z001-Plus" xmlns="http://www.w3.org/2000/svg"><path d="M9 9V0h2v9h9v2h-9v9H9v-9H0V9h9zm1 1.25V15v-4.75z" fill-rule="nonzero"/></symbol><symbol viewBox="0 0 20 20" id="Z002-Image-Full" xmlns="http://www.w3.org/2000/svg"><g transform="translate(0 3)" fill-rule="evenodd"><path d="M5 7l5 10H0z"/><path d="M12.5 2L20 17H5z"/><circle cx="5" cy="2" r="2"/></g></symbol><symbol viewBox="0 0 100 100" id="Z003-Close" xmlns="http://www.w3.org/2000/svg"><path d="M85.355 77.157L58.198 50l27.156-27.155a5.8 5.8 0 0 0 .001-8.2 5.8 5.8 0 0 0-8.199 0L50 41.802 22.843 14.645a5.802 5.802 0 0 0-8.199 0 5.795 5.795 0 0 0 0 8.199l27.157 27.157-27.156 27.155a5.792 5.792 0 0 0 0 8.2 5.795 5.795 0 0 0 8.199 0l27.155-27.157 27.157 27.157a5.794 5.794 0 0 0 8.199 0 5.8 5.8 0 0 0 0-8.2z" fill-rule="nonzero"/></symbol><symbol viewBox="0 0 20 20" id="Z003-RexSlider" xmlns="http://www.w3.org/2000/svg"><g fill-rule="evenodd"><path d="M0 0h20v14H0V0zm6 3L2 7l4 3.845V3zm8 8l4-4-4-3.845V11zM5 16h2v2H5zM9 16h2v2H9zM13 16h2v2h-2z"/></g></symbol><symbol viewBox="0 0 20 20" id="Z004-Copy" xmlns="http://www.w3.org/2000/svg"><path d="M13 12h5V2H8v10h5zm-1 2H6V8H2v10h10v-4zM6 6V0h14v14h-6v6H0V6h6z" fill-rule="evenodd"/></symbol><symbol viewBox="0 0 20 20" id="Z005-Setting" xmlns="http://www.w3.org/2000/svg"><path d="M19.937 8.89c-.031-.282-.359-.493-.642-.493-.917 0-1.73-.538-2.071-1.37a2.227 2.227 0 0 1 .56-2.473.555.555 0 0 0 .06-.754 9.895 9.895 0 0 0-1.584-1.6.557.557 0 0 0-.76.062c-.596.66-1.667.905-2.495.56A2.221 2.221 0 0 1 11.655.65a.555.555 0 0 0-.491-.584A9.984 9.984 0 0 0 8.914.06a.556.556 0 0 0-.495.572 2.225 2.225 0 0 1-1.37 2.133c-.817.334-1.88.091-2.475-.563a.558.558 0 0 0-.755-.064 9.933 9.933 0 0 0-1.617 1.6.556.556 0 0 0 .06.76c.695.63.92 1.633.558 2.495-.345.822-1.198 1.352-2.175 1.352a.544.544 0 0 0-.578.49 10.017 10.017 0 0 0-.004 2.275c.031.282.369.491.655.491.871-.022 1.707.517 2.058 1.37.35.853.125 1.847-.56 2.474a.556.556 0 0 0-.06.753c.465.592.998 1.13 1.582 1.6.23.185.563.16.761-.06.598-.661 1.67-.906 2.493-.56a2.218 2.218 0 0 1 1.353 2.17.555.555 0 0 0 .49.584 9.94 9.94 0 0 0 2.25.006.557.557 0 0 0 .496-.572 2.223 2.223 0 0 1 1.368-2.133c.823-.336 1.882-.09 2.477.563a.559.559 0 0 0 .754.064 9.956 9.956 0 0 0 1.618-1.6.555.555 0 0 0-.06-.76 2.216 2.216 0 0 1-.56-2.495 2.239 2.239 0 0 1 2.046-1.355l.124.003a.557.557 0 0 0 .585-.49c.088-.752.09-1.517.004-2.274zm-9.921 4.467A3.34 3.34 0 0 1 6.68 10.02a3.34 3.34 0 0 1 3.336-3.335 3.34 3.34 0 0 1 3.335 3.335 3.34 3.34 0 0 1-3.335 3.336z" fill-rule="evenodd"/></symbol><symbol viewBox="0 0 20 20" id="Z006-Video" xmlns="http://www.w3.org/2000/svg"><path d="M20 10L0 20V0z" fill-rule="evenodd"/></symbol><symbol viewBox="0 0 21 21" id="Z007-Zoom" xmlns="http://www.w3.org/2000/svg"><path d="M14 12.586l7.014 7.014v1.385l-.03.03H19.6L12.586 14H0V0h14v12.586zM2 2v10h10V2H2zm6 4h2v2H8v2H6V8H4V6h2V4h2v2z" fill-rule="evenodd"/></symbol><symbol viewBox="0 0 20 20" id="Z008-Edit" xmlns="http://www.w3.org/2000/svg"><g fill-rule="evenodd"><path d="M.172 19.828c.168.17.424.22.644.124l5.363-2.298-3.833-3.833-2.299 5.362a.586.586 0 0 0 .125.645zM13 3L15.293.707a1 1 0 0 1 1.414 0l2.586 2.586a1 1 0 0 1 0 1.414L16 8l-8.838 8.98-4.143-4.142L13 3z"/></g></symbol><symbol viewBox="0 0 20 20" id="Z009-More" xmlns="http://www.w3.org/2000/svg"><g transform="translate(8)" fill-rule="evenodd"><circle cx="2.5" cy="2.5" r="2.5"/><circle cx="2.5" cy="17.5" r="2.5"/><circle cx="2.5" cy="10" r="2.5"/></g></symbol><symbol viewBox="0 0 24 9" id="Z010-Logo" xmlns="http://www.w3.org/2000/svg"><path d="M24 .203l-4.418 8.613H4.418L0 .18l8.866 5.197L12 0l3.134 5.37z" fill-rule="evenodd"/></symbol><symbol viewBox="0 0 16 23" id="Z011-Arrow" xmlns="http://www.w3.org/2000/svg"><path d="M.726 15.323a.794.794 0 0 1 0-1.108c.29-.3.774-.3 1.064 0l5.452 5.621V1.287c0-.432.333-.787.752-.787.42 0 .764.355.764.787v18.549l5.441-5.621c.301-.3.785-.3 1.075 0 .301.31.301.798 0 1.108l-6.742 6.952c-.29.3-.774.3-1.064 0L.726 15.323z" fill-rule="evenodd"/></symbol><symbol viewBox="0 0 20 26" id="Z012-HeightBars" xmlns="http://www.w3.org/2000/svg"><g fill-rule="evenodd"><path d="M20 9.18l-3.682 7.656H3.682L0 9.16l7.388 4.62L10 9l2.612 4.774zM10.94 7V4.02H14L9.921 0 6 4.02h2.901V7zM9.06 19v2.98H6L10.079 26 14 21.98h-2.901V19z"/></g></symbol><symbol viewBox="0 0 22 22" id="Z012-Page" xmlns="http://www.w3.org/2000/svg"><path d="M9.685 2H5v18.063h12.096V9.375H9.685V2zm2 0v5.375h5.396L11.706 2h-.021zM3 2V0h9.534l6.562 6.562v15.5H3V2z" fill-rule="evenodd"/></symbol><symbol viewBox="0 0 22 22" id="Z013-Pages" xmlns="http://www.w3.org/2000/svg"><path d="M8.3 19.35h-2V16H2V0h7.108l1.337 1.3h6.879v2h3.064v18.536H8.3V19.35zm1.4 0v1.086h9.288V4.7h-1.664v14.65H9.7zM11.884 2.7L14 4.759V16H7.7v1.95h8.224V2.7h-4.04zm-4.9-1.25H3.49v13.1h9.018V6.799H6.886l.097-5.349zm1.49 0l-.07 3.899h4.094L8.49 1.45h-.015z" fill-rule="evenodd"/></symbol><symbol viewBox="0 0 20 20" id="_A001-Tablet" xmlns="http://www.w3.org/2000/svg"><path d="M3 1h14v18H3z" fill="none" fill-rule="evenodd"/></symbol><symbol viewBox="0 0 20 20" id="_A002-Redo" xmlns="http://www.w3.org/2000/svg"><path d="M17 11H2v7H0V9h17l-7-7V0l10 10-10 10v-2l7-7z" fill-rule="evenodd"/></symbol><symbol viewBox="0 0 20 20" id="_A003-Undo" xmlns="http://www.w3.org/2000/svg"><path d="M3 11h15v7h2V9H3l7-7V0L0 10l10 10v-2l-7-7z" fill-rule="evenodd"/></symbol><symbol viewBox="0 0 20 20" id="_A010-Mobile" xmlns="http://www.w3.org/2000/svg"><path d="M6 1h8v18H6z" fill="none" fill-rule="evenodd"/></symbol><symbol viewBox="0 0 20 20" id="_B002-Boxed" xmlns="http://www.w3.org/2000/svg"><g fill-rule="nonzero"><path d="M4 0h12v20H4V0zm12 10l-4-4v3H8V6l-4 4 4 3.845V11h4v2.944L16 10z"/><path d="M2 2v16h16V2H2zm18-2v20H0V0h20z"/></g></symbol><symbol viewBox="0 0 20 20" id="_C005-Layout" xmlns="http://www.w3.org/2000/svg"><g fill-rule="evenodd"><path d="M17.5 5a2.5 2.5 0 1 1 0-5 2.5 2.5 0 0 1 0 5zm0-1a1.5 1.5 0 1 0 0-3 1.5 1.5 0 0 0 0 3zM17.5 12.5a2.5 2.5 0 1 1 0-5 2.5 2.5 0 0 1 0 5zm0-1a1.5 1.5 0 1 0 0-3 1.5 1.5 0 0 0 0 3zM17.5 20a2.5 2.5 0 1 1 0-5 2.5 2.5 0 0 1 0 5zm0-1a1.5 1.5 0 1 0 0-3 1.5 1.5 0 0 0 0 3zM2.5 5a2.5 2.5 0 1 1 0-5 2.5 2.5 0 0 1 0 5zm0-1a1.5 1.5 0 1 0 0-3 1.5 1.5 0 0 0 0 3zM2.5 12.5a2.5 2.5 0 1 1 0-5 2.5 2.5 0 0 1 0 5zm0-1a1.5 1.5 0 1 0 0-3 1.5 1.5 0 0 0 0 3zM2.5 20a2.5 2.5 0 1 1 0-5 2.5 2.5 0 0 1 0 5zm0-1a1.5 1.5 0 1 0 0-3 1.5 1.5 0 0 0 0 3zM10 5a2.5 2.5 0 1 1 0-5 2.5 2.5 0 0 1 0 5zm0-1a1.5 1.5 0 1 0 0-3 1.5 1.5 0 0 0 0 3zM10 12.5a2.5 2.5 0 1 1 0-5 2.5 2.5 0 0 1 0 5zM10 20a2.5 2.5 0 1 1 0-5 2.5 2.5 0 0 1 0 5zm0-1a1.5 1.5 0 1 0 0-3 1.5 1.5 0 0 0 0 3z"/></g></symbol><symbol viewBox="0 0 20 20" id="_Z002-Image-Full" xmlns="http://www.w3.org/2000/svg"><g fill-rule="evenodd"><path d="M7.368 14.737L14 0l6.026 10.043V20H0l5-10 2.368 4.737zM20 20H0h20z"/><circle cx="5" cy="5" r="2"/></g></symbol><symbol viewBox="0 0 20 20" id="_Z005-Setting" xmlns="http://www.w3.org/2000/svg"><g fill-rule="evenodd"><path d="M20 20H0h20z"/><path d="M118.664 48.116c-.169-1.49-1.923-2.61-3.44-2.61-4.902 0-9.253-2.851-11.078-7.263-1.862-4.517-.66-9.785 2.992-13.104a2.926 2.926 0 0 0 .326-3.998 52.712 52.712 0 0 0-8.475-8.48 3 3 0 0 0-4.067.326c-3.188 3.499-8.917 4.799-13.343 2.97-4.605-1.92-7.512-6.544-7.226-11.508.094-1.56-1.057-2.915-2.627-3.096a53.892 53.892 0 0 0-12.036-.031 2.96 2.96 0 0 0-2.649 3.033 11.788 11.788 0 0 1-7.326 11.308c-4.373 1.77-10.062.48-13.244-2.989a3.002 3.002 0 0 0-4.037-.335 52.947 52.947 0 0 0-8.655 8.477 2.929 2.929 0 0 0 .319 4.027c3.724 3.341 4.925 8.654 2.991 13.225-1.846 4.357-6.413 7.164-11.64 7.164-1.697-.054-2.904 1.075-3.092 2.603a52.635 52.635 0 0 0-.022 12.051c.169 1.496 1.975 2.608 3.508 2.608 4.66-.118 9.131 2.738 11.01 7.261 1.868 4.518.665 9.783-2.993 13.107a2.923 2.923 0 0 0-.325 3.993 52.897 52.897 0 0 0 8.463 8.483 2.995 2.995 0 0 0 4.072-.32c3.202-3.507 8.929-4.805 13.337-2.971 4.619 1.914 7.524 6.537 7.24 11.502a2.95 2.95 0 0 0 2.625 3.097c2.045.237 4.101.354 6.163.354a53.54 53.54 0 0 0 5.874-.322 2.959 2.959 0 0 0 2.647-3.035c-.18-4.912 2.767-9.455 7.321-11.302 4.403-1.782 10.066-.478 13.25 2.985a3.008 3.008 0 0 0 4.038.335 53.017 53.017 0 0 0 8.654-8.478 2.924 2.924 0 0 0-.318-4.028c-3.724-3.34-4.931-8.655-2.998-13.22 1.818-4.299 6.215-7.185 10.944-7.185l.662.017c1.535.124 2.946-1.048 3.132-2.6.472-3.983.477-8.037.023-12.051zM65.5 84.556c-17.035 0-30.844-13.68-30.844-30.555S48.466 23.446 65.5 23.446s30.843 13.68 30.843 30.555a30.187 30.187 0 0 1-4.362 15.666l-13.506-13.38a18.535 18.535 0 0 0 1.494-7.314c0-5.004-1.967-9.708-5.54-13.245-3.57-3.538-8.318-5.486-13.368-5.486-1.686 0-3.363.222-4.986.66a2.132 2.132 0 0 0-1.481 1.478c-.194.721.024 1.46.594 2.025 0 0 6.667 6.656 8.898 8.866.234.231.233.783.2.982l-.02.146c-.225 2.43-.659 5.346-1.017 6.467-.048.047-.093.087-.142.135l-.148.15c-1.146.365-4.136.8-6.627 1.02v-.013l-.112.028a1.432 1.432 0 0 1-1.131-.426c-2.322-2.3-8.728-8.6-8.728-8.6-.575-.568-1.165-.688-1.557-.688-.916 0-1.736.656-1.994 1.596-1.764 6.465.106 13.42 4.88 18.15 3.572 3.537 8.32 5.486 13.371 5.486 2.58 0 5.079-.512 7.384-1.48l13.652 13.524A30.899 30.899 0 0 1 65.5 84.555zM19.937 8.89c-.031-.281-.36-.493-.643-.493a2.22 2.22 0 0 1-2.07-1.37 2.228 2.228 0 0 1 .559-2.473.556.556 0 0 0 .06-.754 9.9 9.9 0 0 0-1.583-1.6.557.557 0 0 0-.76.062c-.597.66-1.667.905-2.495.56A2.221 2.221 0 0 1 11.655.65a.555.555 0 0 0-.491-.584A9.98 9.98 0 0 0 8.914.06a.557.557 0 0 0-.495.572 2.225 2.225 0 0 1-1.37 2.134c-.817.333-1.88.09-2.475-.564a.557.557 0 0 0-.755-.064 9.941 9.941 0 0 0-1.617 1.6.556.556 0 0 0 .06.76c.695.63.92 1.633.558 2.495-.345.822-1.198 1.352-2.175 1.352a.544.544 0 0 0-.578.49 10.024 10.024 0 0 0-.004 2.275c.031.282.369.492.655.492.871-.023 1.707.516 2.058 1.37.35.852.125 1.846-.56 2.473a.555.555 0 0 0-.06.753c.465.592.998 1.13 1.582 1.6.23.185.562.16.761-.06.598-.661 1.669-.906 2.493-.56a2.218 2.218 0 0 1 1.353 2.17.555.555 0 0 0 .49.584 9.912 9.912 0 0 0 2.25.006.557.557 0 0 0 .496-.572 2.223 2.223 0 0 1 1.368-2.133c.823-.336 1.881-.09 2.477.563a.558.558 0 0 0 .754.064 9.954 9.954 0 0 0 1.618-1.6.555.555 0 0 0-.06-.76 2.216 2.216 0 0 1-.56-2.494 2.238 2.238 0 0 1 2.046-1.356l.123.003a.557.557 0 0 0 .586-.49 9.98 9.98 0 0 0 .004-2.274zM10 15.765a5.765 5.765 0 1 1 4.95-2.809l-2.525-2.524c.183-.431.28-.898.28-1.38a3.51 3.51 0 0 0-1.036-2.5A3.511 3.511 0 0 0 9.17 5.517c-.315 0-.628.042-.932.125a.4.4 0 0 0-.277.279.39.39 0 0 0 .111.382S9.32 7.559 9.736 7.976c.043.043.043.147.037.185l-.004.027c-.042.459-.123 1.01-.19 1.22l-.026.026-.028.029c-.214.068-.773.15-1.239.192v-.002l-.02.005a.266.266 0 0 1-.211-.08c-.435-.435-1.632-1.623-1.632-1.623a.407.407 0 0 0-.291-.13.396.396 0 0 0-.373.301c-.33 1.22.02 2.532.912 3.424a3.512 3.512 0 0 0 2.5 1.036c.481 0 .949-.097 1.38-.28l2.551 2.552a5.736 5.736 0 0 1-3.102.907z" fill-rule="nonzero"/></g></symbol><symbol viewBox="0 0 20 20" id="__A002-Redo" xmlns="http://www.w3.org/2000/svg"><path d="M11.42 5.133L11.44 0l8.56 8.205-8.632 8.131.024-5.208C4.838 11.554.007 13.845 2.112 20-.423 17-3.486 8 11.419 5.133z" fill-rule="evenodd"/></symbol><symbol viewBox="0 0 20 20" id="__A003-Undo" xmlns="http://www.w3.org/2000/svg"><path d="M8.581 5.133L8.56 0 0 8.205l8.632 8.131-.024-5.208c6.555.426 11.385 2.717 9.28 8.872 2.535-3 5.599-12-9.307-14.867z" fill-rule="evenodd"/></symbol></svg>