<svg xmlns="http://www.w3.org/2000/svg" xmlns:xlink="http://www.w3.org/1999/xlink"><symbol viewBox="0 0 100 100" id="A001-Tablet" xmlns="http://www.w3.org/2000/svg"><path d="M76.36 100s9.367 0 9.367-9.09V9.09C85.727 0 76.36 0 76.36 0H22.37S13 0 13 9.09v81.82c0 9.09 9.368 9.09 9.368 9.09H76.36zm-27.11-3.436c-1.945 0-3.523-1.528-3.523-3.41 0-1.881 1.578-3.409 3.523-3.409s3.523 1.528 3.523 3.41c-.005 1.886-1.582 3.409-3.523 3.409zm-31.705-14.9V9.25c0-4.705 5.05-4.705 5.05-4.705h53.537s5.05 0 5.05 4.705v72.414c0 4.7-5.05 4.7-5.05 4.7H22.595s-5.05 0-5.05-4.7z" fill-rule="nonzero"/></symbol><symbol viewBox="0 0 100 100" id="A002-Redo" xmlns="http://www.w3.org/2000/svg"><path d="M2.14 83a2.13 2.13 0 0 0 1.984-1.315c.247-.593 6.432-14.656 29.558-17.441 4.817-.593 10.586-.897 17.593-.95v17.528c0 .81.43 1.543 1.14 1.93.704.373 1.547.32 2.203-.125l44.43-30.315c.6-.406.952-1.09.952-1.808a2.21 2.21 0 0 0-.952-1.813L54.6 18.372c-.656-.46-1.492-.49-2.205-.11a2.166 2.166 0 0 0-1.135 1.908v16.312C41.595 37.76 0 45.336 0 80.842c0 1.03.716 1.93 1.72 2.135.14.023.286.023.42.023z" fill="#000" fill-rule="nonzero"/></symbol><symbol viewBox="0 0 100 65" id="A003-Undo" xmlns="http://www.w3.org/2000/svg"><path d="M97.86 65a2.13 2.13 0 0 1-1.984-1.315c-.247-.593-6.432-14.656-29.558-17.441-4.817-.593-10.586-.897-17.593-.95v17.528c0 .81-.43 1.543-1.14 1.93a2.139 2.139 0 0 1-2.203-.125L.952 34.312A2.187 2.187 0 0 1 0 32.504c0-.726.352-1.387.952-1.813L45.4.372c.656-.46 1.492-.49 2.205-.11A2.166 2.166 0 0 1 48.74 2.17v16.312C58.405 19.76 100 27.336 100 62.842c0 1.03-.716 1.93-1.72 2.135-.14.023-.286.023-.42.023z" fill="#000" fill-rule="nonzero"/></symbol><symbol viewBox="0 0 100 100" id="A004-Plus" xmlns="http://www.w3.org/2000/svg"><path d="M94.203 44.203H55.797V5.8A5.8 5.8 0 0 0 50 0a5.8 5.8 0 0 0-5.797 5.798v38.405H5.797c-3.2 0-5.797 2.601-5.797 5.798a5.795 5.795 0 0 0 5.797 5.797h38.406v38.404A5.792 5.792 0 0 0 50 100a5.795 5.795 0 0 0 5.797-5.798V55.798h38.406A5.794 5.794 0 0 0 100 50.001a5.8 5.8 0 0 0-5.797-5.798z" fill="#000" fill-rule="nonzero"/></symbol><symbol viewBox="0 0 100 100" id="A005-Save-Minimal" xmlns="http://www.w3.org/2000/svg"><path d="M1.154 52.308C.384 51.538 0 50.385 0 49.615c0-.769.385-1.923 1.154-2.692l5.384-5.385c1.539-1.538 3.847-1.538 5.385 0l.385.385 21.154 22.692c.769.77 1.923.77 2.692 0l51.538-53.461h.385c1.538-1.539 3.846-1.539 5.385 0l5.384 5.384c1.539 1.539 1.539 3.847 0 5.385L37.308 85.77c-.77.77-1.539 1.154-2.693 1.154-1.153 0-1.923-.385-2.692-1.154l-30-32.307-.77-1.154z" fill="#000" fill-rule="nonzero"/></symbol><symbol viewBox="0 0 100 100" id="A006-Save" xmlns="http://www.w3.org/2000/svg"><defs><path d="M50 100C22.386 100 0 77.614 0 50S22.386 0 50 0s50 22.386 50 50-22.386 50-50 50zM29.402 52.137l.342.513 13.333 14.359c.342.341.684.512 1.197.512.512 0 .854-.17 1.196-.512l27.35-28.377c.684-.683.684-1.709 0-2.393l-2.393-2.393c-.683-.684-1.71-.684-2.393 0h-.17l-22.907 23.76a.826.826 0 0 1-1.196 0l-9.402-10.085-.171-.17c-.684-.684-1.71-.684-2.393 0l-2.393 2.393c-.342.341-.513.854-.513 1.196 0 .342.17.855.513 1.197z" id="fa"/></defs><g fill-rule="evenodd"><mask id="fb" fill="#fff"><use xlink:href="#fa"/></mask><use xlink:href="#fa"/></g></symbol><symbol viewBox="0 0 100 100" id="A007-Close" xmlns="http://www.w3.org/2000/svg"><path d="M98.966 72.493A3.597 3.597 0 0 1 100 75.06c0 .974-.345 1.86-1.034 2.569a3.472 3.472 0 0 1-5 0L50 32.46 6.034 77.63a3.472 3.472 0 0 1-5 0c-1.379-1.418-1.379-3.72 0-5.137L47.5 24.755a3.472 3.472 0 0 1 5 0l46.466 47.738z" fill-rule="nonzero"/></symbol><symbol viewBox="0 0 100 100" id="A008-Code" xmlns="http://www.w3.org/2000/svg"><g fill="#000" fill-rule="nonzero"><path d="M64.217 13.023l-3.428-.94c-.44-.146-.876-.1-1.298.14-.424.239-.71.598-.858 1.077L38.015 84.628c-.147.479-.101.93.138 1.353.24.424.599.71 1.079.857l3.427.94c.442.148.875.101 1.299-.138.424-.241.71-.6.856-1.077l20.62-71.33c.146-.478.1-.93-.14-1.354a1.794 1.794 0 0 0-1.077-.856zM31.034 26.934c0-.48-.178-.903-.533-1.272l-2.666-2.764c-.356-.368-.765-.553-1.227-.553-.462 0-.871.185-1.226.553L.533 48.66C.177 49.028 0 49.452 0 49.93c0 .48.178.904.533 1.272l24.848 25.762c.356.369.764.552 1.227.552.463 0 .871-.184 1.226-.552l2.667-2.763c.355-.368.533-.793.533-1.272s-.178-.903-.533-1.271L9.545 49.93l20.956-21.725c.356-.369.533-.793.533-1.272zM99.467 48.66l-24.85-25.762c-.356-.368-.765-.553-1.226-.553-.463 0-.87.185-1.227.553l-2.666 2.764c-.355.369-.532.792-.532 1.272s.177.903.532 1.271l20.958 21.727-20.958 21.727c-.355.368-.532.792-.532 1.27 0 .48.177.905.532 1.273l2.666 2.763c.356.369.764.552 1.227.552.461 0 .87-.184 1.226-.552l24.85-25.762c.355-.368.533-.793.533-1.272 0-.48-.178-.903-.533-1.271z"/></g></symbol><symbol viewBox="0 0 100 100" id="A009-Range" xmlns="http://www.w3.org/2000/svg"><defs><path id="ia" d="M74.942 49.744L66.198 41v7.222H33.744V41L25 49.744l8.744 8.744v-7.223h32.454v7.223z"/></defs><g fill="none" fill-rule="evenodd"><path stroke="#000" stroke-width="4" d="M2 2h96v96H2z"/><use fill="#000" fill-rule="nonzero" xlink:href="#ia"/></g></symbol><symbol viewBox="0 0 100 100" id="A010-Mobile" xmlns="http://www.w3.org/2000/svg"><path d="M69.704 0H30.73a7.15 7.15 0 0 0-7.15 7.149v84.818c0 3.949 3.2 7.149 7.15 7.149h38.975a7.15 7.15 0 0 0 7.151-7.149V7.149A7.15 7.15 0 0 0 69.705 0zm-24.27 4.227h9.565a.625.625 0 0 1 0 1.247h-9.565a.624.624 0 0 1 0-1.247zm-9.534-1.5a.998.998 0 1 1 0 1.995.998.998 0 0 1 0-1.995zm-4.521-.598a1.596 1.596 0 1 1 0 3.191 1.596 1.596 0 0 1 0-3.191zm21.334 93.358h-4.99a2.863 2.863 0 1 1 0-5.726h4.99a2.864 2.864 0 1 1 0 5.726zm21.114-7.99h-47.22v-75.88h47.22v75.88z" fill-rule="nonzero"/></symbol><symbol viewBox="0 0 100 100" id="A011-Desktop" xmlns="http://www.w3.org/2000/svg"><path d="M100 81.727V0H0v81.727h44.118V93.85H32.353v6.06h35.294v-6.06H55.883V81.727H100zM10 71.8V10h80v61.8H10z" fill-rule="nonzero"/></symbol></svg>