<?xml version="1.0" encoding="UTF-8"?>
<svg width="100px" height="100px" viewBox="0 0 100 100" version="1.1" xmlns="http://www.w3.org/2000/svg" xmlns:xlink="http://www.w3.org/1999/xlink">
    <!-- Generator: Sketch 51.3 (57544) - http://www.bohemiancoding.com/sketch -->
    <title>Mobile</title>
    <desc>Created with Sketch.</desc>
    <defs></defs>
    <g id="Mobile" stroke="none" stroke-width="1" fill="" fill-rule="evenodd">
        <g id="tablet-digital-device" transform="translate(13.000000, 0.000000)" fill="#000000" fill-rule="nonzero">
            <path d="M63.3590909,100 C63.3590909,100 72.7272727,100 72.7272727,90.9090909 L72.7272727,9.09090909 C72.7272727,0 63.3590909,0 63.3590909,0 L9.36818182,0 C9.36818182,0 0,0 0,9.09090909 L0,90.9090909 C0,100 9.36818182,100 9.36818182,100 L63.3590909,100 Z M36.25,96.5636364 C34.3045455,96.5636364 32.7272727,95.0362374 32.7272727,93.1545455 C32.7272727,91.2727273 34.3045455,89.7454545 36.25,89.7454545 C38.1954545,89.7454545 39.7727273,91.2727273 39.7727273,93.1545455 C39.7681818,95.0409091 38.1909091,96.5636364 36.25,96.5636364 Z M4.54545455,81.6636364 L4.54545455,9.25 C4.54545455,4.54545455 9.59545455,4.54545455 9.59545455,4.54545455 L63.1318182,4.54545455 C63.1318182,4.54545455 68.1818182,4.54545455 68.1818182,9.25 L68.1818182,81.6637626 C68.1818182,86.3636364 63.1318182,86.3636364 63.1318182,86.3636364 L9.59545455,86.3636364 C9.59545455,86.3636364 4.54545455,86.3636364 4.54545455,81.6636364 Z" id="Shape"></path>
        </g>
    </g>
</svg>