<?xml version="1.0" encoding="UTF-8"?>
<svg width="100px" height="100px" viewBox="0 0 100 100" version="1.1" xmlns="http://www.w3.org/2000/svg" xmlns:xlink="http://www.w3.org/1999/xlink">
    <!-- Generator: Sketch 51.3 (57544) - http://www.bohemiancoding.com/sketch -->
    <title>Mobile</title>
    <desc>Created with Sketch.</desc>
    <defs></defs>
    <g id="Mobile" stroke="none" stroke-width="1" fill="none" fill-rule="evenodd">
        <g id="icon-(2)" transform="translate(50.000000, 50.500000) scale(-1, 1) translate(-50.000000, -50.500000) translate(0.000000, 18.000000)" fill="#000000" fill-rule="nonzero">
            <path d="M97.8594992,64.9996703 C97.0010496,64.9996703 96.2138252,64.501893 95.8764432,63.6849302 C95.6290298,63.0921573 89.4436947,49.0289983 66.3180387,46.2437253 C61.5009747,45.6509523 55.7317439,45.3469662 48.7254461,45.2937686 L48.7254461,62.8223696 C48.7254461,63.6317327 48.294347,64.3650992 47.585845,64.7526816 C46.8810916,65.1250646 46.0376368,65.071867 45.3816164,64.6272873 L0.952166742,34.3122691 C0.352376668,33.9056877 0,33.2217189 0,32.5035516 C0,31.7777847 0.352376668,31.1166148 0.952166742,30.6910342 L45.4003599,0.372216244 C46.0563803,-0.0875627978 46.8923377,-0.117961412 47.6045884,0.262021267 C48.3168391,0.6496036 48.7404408,1.38297017 48.7404408,2.16953432 L48.7404408,18.4821907 C58.4045584,19.7589325 100,27.3357872 100,62.8413687 C100,63.8711218 99.2840006,64.7716807 98.2793522,64.9768714 C98.1406508,64.9996703 97.9944519,64.9996703 97.8594992,64.9996703 Z" id="Shape"></path>
        </g>
    </g>
</svg>