<?xml version="1.0" encoding="UTF-8"?>
<svg width="100px" height="100px" viewBox="0 0 100 100" version="1.1" xmlns="http://www.w3.org/2000/svg" xmlns:xlink="http://www.w3.org/1999/xlink">
    <!-- Generator: Sketch 51.3 (57544) - http://www.bohemiancoding.com/sketch -->
    <title>Mobile</title>
    <desc>Created with Sketch.</desc>
    <defs></defs>
    <g id="Mobile" stroke="none" stroke-width="1" fill="none" fill-rule="evenodd">
        <g id="checked" transform="translate(0.000000, 10.000000)" fill="#000000" fill-rule="nonzero">
            <path d="M1.15384615,42.3076923 C0.384615385,41.5384615 0,40.3846154 0,39.6153846 C0,38.8461538 0.384615385,37.6923077 1.15384615,36.9230769 L6.53846154,31.5384615 C8.07692308,30 10.3846154,30 11.9230769,31.5384615 L12.3076923,31.9230769 L33.4615385,54.6153846 C34.2307692,55.3846154 35.3846154,55.3846154 36.1538462,54.6153846 L87.6923077,1.15384615 L88.0769231,1.15384615 C89.6153846,-0.384615385 91.9230769,-0.384615385 93.4615385,1.15384615 L98.8461538,6.53846154 C100.384615,8.07692308 100.384615,10.3846154 98.8461538,11.9230769 L37.3076923,75.7692308 C36.5384615,76.5384615 35.7692308,76.9230769 34.6153846,76.9230769 C33.4615385,76.9230769 32.6923077,76.5384615 31.9230769,75.7692308 L1.92307692,43.4615385 L1.15384615,42.3076923 Z" id="Shape"></path>
        </g>
    </g>
</svg>