<?xml version="1.0" encoding="UTF-8"?>
<svg width="100px" height="100px" viewBox="0 0 100 100" version="1.1" xmlns="http://www.w3.org/2000/svg" xmlns:xlink="http://www.w3.org/1999/xlink">
    <!-- Generator: Sketch 51.3 (57544) - http://www.bohemiancoding.com/sketch -->
    <title>Mobile</title>
    <desc>Created with Sketch.</desc>
    <defs>
        <path d="M50,100 C22.3857625,100 0,77.6142375 0,50 C0,22.3857625 22.3857625,0 50,0 C77.6142375,0 100,22.3857625 100,50 C100,77.6142375 77.6142375,100 50,100 Z M29.4017094,52.1367521 L29.7435897,52.6495726 L43.0769231,67.008547 C43.4188034,67.3504274 43.7606838,67.5213675 44.2735043,67.5213675 C44.7863248,67.5213675 45.1282051,67.3504274 45.4700855,67.008547 L72.8205128,38.6324786 C73.5042735,37.9487179 73.5042735,36.9230769 72.8205128,36.2393162 L70.4273504,33.8461538 C69.7435897,33.1623932 68.7179487,33.1623932 68.034188,33.8461538 L67.8632479,33.8461538 L44.957265,57.6068376 C44.6153846,57.9487179 44.1025641,57.9487179 43.7606838,57.6068376 L34.3589744,47.5213675 L34.1880342,47.3504274 C33.5042735,46.6666667 32.4786325,46.6666667 31.7948718,47.3504274 L29.4017094,49.7435897 C29.0598291,50.0854701 28.8888889,50.5982906 28.8888889,50.9401709 C28.8888889,51.2820513 29.0598291,51.7948718 29.4017094,52.1367521 Z" id="path-1"></path>
    </defs>
    <g id="Mobile" stroke="none" stroke-width="1" fill="" fill-rule="evenodd">
        <g id="checked">
            <mask id="mask-2" fill="white">
                <use xlink:href="#path-1"></use>
            </mask>
            <use id="Combined-Shape" fill="" xlink:href="#path-1"></use>
            <g mask="url(#mask-2)">
                <g transform="translate(28.888889, 33.333333)"></g>
            </g>
        </g>
    </g>
</svg>