<?xml version="1.0" encoding="UTF-8"?>
<svg width="100px" height="100px" viewBox="0 0 100 100" version="1.1" xmlns="http://www.w3.org/2000/svg" xmlns:xlink="http://www.w3.org/1999/xlink">
    <!-- Generator: Sketch 51.3 (57544) - http://www.bohemiancoding.com/sketch -->
    <title>Mobile</title>
    <desc>Created with Sketch.</desc>
    <defs></defs>
    <g id="Mobile" stroke="none" stroke-width="1" fill="none" fill-rule="evenodd">
        <g id="code" transform="translate(0.000000, 12.000000)" fill="#000000" fill-rule="nonzero">
            <path d="M64.2173885,1.02326561 L60.7893401,0.083936572 C60.3481042,-0.0631359603 59.913451,-0.0168855193 59.4908017,0.222300862 C59.066797,0.46168076 58.7804487,0.821040882 58.6333055,1.29980068 L38.0150635,72.6276566 C37.8679203,73.10661 37.9139994,73.5582774 38.1534942,73.9813045 C38.3929891,74.4051056 38.7517473,74.6905424 39.2315115,74.837615 L42.6585919,75.777331 C43.1007958,75.9255647 43.5339001,75.8791207 43.9577112,75.6395473 C44.3817158,75.3990063 44.6674833,75.0408073 44.8144329,74.5628215 L65.4332557,3.23380448 C65.5802053,2.75504468 65.5345135,2.30337719 65.2946314,1.87938256 C65.0549429,1.45558145 64.6965719,1.17014463 64.2173885,1.02326561 Z" id="Shape"></path>
            <path d="M31.0344828,14.9339443 C31.0344828,14.4548947 30.856494,14.0306435 30.5010767,13.6623523 L27.8346068,10.8980388 C27.4791895,10.5295541 27.0701702,10.3448276 26.608109,10.3448276 C26.1460479,10.3448276 25.7368418,10.5297477 25.3816113,10.8980388 L0.533406048,36.6598298 C0.177428482,37.0283146 0,37.4523722 0,37.9314217 C0,38.4104713 0.177988783,38.8345289 0.533406048,39.2028201 L25.3814245,64.964611 C25.736655,65.3336767 26.1451141,65.5172414 26.6079223,65.5172414 C27.0707305,65.5172414 27.4791895,65.3330958 27.83442,64.964611 L30.5008899,62.2018466 C30.8563072,61.8335554 31.034296,61.4093042 31.034296,60.9296737 C31.034296,60.4512051 30.8563072,60.0271474 30.5008899,59.6588563 L9.54509205,37.9314217 L30.5010767,16.2055363 C30.8570543,15.8372451 31.0344828,15.4129939 31.0344828,14.9339443 Z" id="Shape"></path>
            <path d="M99.4669322,36.6595527 L74.6165216,10.898033 C74.2612676,10.5297457 73.8520344,10.3448276 73.3906898,10.3448276 C72.9278509,10.3448276 72.520112,10.5297457 72.1635505,10.898033 L69.4980247,13.6621238 C69.1427707,14.0306047 68.9655172,14.4540769 68.9655172,14.9337024 C68.9655172,15.4133278 69.1425839,15.8369937 69.4980247,16.2052809 L90.4557703,37.9315186 L69.4980247,59.658918 C69.1427707,60.0272052 68.9655172,60.451452 68.9655172,60.929722 C68.9655172,61.4095411 69.1425839,61.8335942 69.4980247,62.2018815 L72.1635505,64.9646169 C72.520112,65.3336786 72.9280377,65.5172414 73.3906898,65.5172414 C73.8522211,65.5172414 74.2612676,65.3330977 74.6165216,64.9646169 L99.4669322,39.2032908 C99.822373,38.8350035 100,38.4101758 100,37.9311313 C100,37.4518931 99.822373,37.02784 99.4669322,36.6595527 Z" id="Shape"></path>
        </g>
    </g>
</svg>