<?xml version="1.0" encoding="UTF-8"?>
<svg width="100px" height="100px" viewBox="0 0 100 100" version="1.1" xmlns="http://www.w3.org/2000/svg" xmlns:xlink="http://www.w3.org/1999/xlink">
    <!-- Generator: Sketch 51.3 (57544) - http://www.bohemiancoding.com/sketch -->
    <title>Mobile</title>
    <desc>Created with Sketch.</desc>
    <defs></defs>
    <g id="Mobile" stroke="" stroke-width="1" fill="" fill-rule="evenodd">
        <g id="smartphone" transform="translate(23.000000, 0.000000)" fill="#000000" fill-rule="nonzero">
            <path d="M46.7042553,0 L7.7287234,0 C3.78085106,0 0.579787234,3.20106383 0.579787234,7.14893617 L0.579787234,91.9670213 C0.579787234,95.9159574 3.77978723,99.1159574 7.7287234,99.1159574 L46.7042553,99.1159574 C50.6542553,99.1159574 53.8553191,95.9159574 53.8553191,91.9670213 L53.8553191,7.14893617 C53.8542553,3.20106383 50.6542553,0 46.7042553,0 Z M22.4340426,4.22659574 L31.9989362,4.22659574 C32.3425532,4.22659574 32.6223404,4.50638298 32.6223404,4.85106383 C32.6223404,5.19468085 32.3425532,5.47446809 31.9989362,5.47446809 L22.4340426,5.47446809 C22.0893617,5.47446809 21.8106383,5.19468085 21.8106383,4.85106383 C21.8106383,4.50638298 22.0904255,4.22659574 22.4340426,4.22659574 Z M12.9,2.72659574 C13.4510638,2.72659574 13.8978723,3.17340426 13.8978723,3.72446809 C13.8978723,4.27553191 13.4521277,4.72234043 12.9,4.72234043 C12.3478723,4.72234043 11.9021277,4.27553191 11.9021277,3.72446809 C11.9021277,3.17340426 12.3489362,2.72659574 12.9,2.72659574 Z M8.3787234,2.1287234 C9.2606383,2.1287234 9.97446809,2.84361702 9.97446809,3.72446809 C9.97446809,4.60531915 9.2606383,5.32021277 8.3787234,5.32021277 C7.49680851,5.32021277 6.78297872,4.60531915 6.78297872,3.72446809 C6.78297872,2.84361702 7.49680851,2.1287234 8.3787234,2.1287234 Z M29.712766,95.487234 L24.7223404,95.487234 C23.1393617,95.487234 21.8574468,94.2053191 21.8574468,92.6244681 C21.8574468,91.0425532 23.1393617,89.7606383 24.7223404,89.7606383 L29.712766,89.7606383 C31.2957447,89.7606383 32.5776596,91.0425532 32.5776596,92.6244681 C32.5776596,94.2053191 31.2957447,95.487234 29.712766,95.487234 Z M50.8265957,87.4978723 L3.60744681,87.4978723 L3.60744681,11.6170213 L50.8265957,11.6170213 L50.8265957,87.4978723 Z" id="Shape"></path>
        </g>
    </g>
</svg>