<?xml version="1.0" encoding="utf-8"?>
<!-- Generator: Adobe Illustrator 19.1.0, SVG Export Plug-In . SVG Version: 6.00 Build 0)  -->
<svg version="1.1" id="Livello_1" xmlns="http://www.w3.org/2000/svg" xmlns:xlink="http://www.w3.org/1999/xlink" x="0px" y="0px"
	 viewBox="-408 286.3 24 24" style="enable-background:new -408 286.3 24 24;" xml:space="preserve">
<style type="text/css">
	.st0{fill:none;}
	.st1{fill:#FFFFFF;}
</style>
<path class="st0" d="M-1632,1145.2h24v24h-24V1145.2z"/>
<g>
	<path d="M-387.8,291h-16.4c-1,0-1.8,0.8-1.8,1.8v10.9c0,1,0.8,1.8,1.8,1.8h16.4c1,0,1.8-0.8,1.8-1.8v-10.9
		C-386,291.8-386.8,291-387.8,291z M-404.2,292.8h2.2v10.9h-2.2V292.8z M-387.8,303.7h-2.2v-10.9h2.2V303.7z"/>
</g>
<polygon class="st1" points="-398.5,298.7 -393.5,298.7 -393.5,298.7 -393.5,300.1 -390.6,298.3 -393.5,296.5 -393.5,297.8 
	-393.5,297.8 -398.5,297.8 -398.5,297.8 -398.5,296.5 -401.4,298.3 -398.5,300.1 -398.5,298.7 "/>
</svg>
