<?xml version="1.0" encoding="iso-8859-1"?>
<!-- Generator: Adobe Illustrator 18.0.0, SVG Export Plug-In . SVG Version: 6.00 Build 0)  -->
<!DOCTYPE svg PUBLIC "-//W3C//DTD SVG 1.1//EN" "http://www.w3.org/Graphics/SVG/1.1/DTD/svg11.dtd">
<svg version="1.1" id="Capa_1" xmlns="http://www.w3.org/2000/svg" xmlns:xlink="http://www.w3.org/1999/xlink" x="0px" y="0px"
	 viewBox="0 0 512 512" style="enable-background:new 0 0 512 512;" xml:space="preserve">
<g>
	<path d="M480,0H32C14.328,0,0,14.328,0,32v64c0,17.672,14.328,32,32,32s32-14.328,32-32V64h384v384H64v-32
		c0-17.672-14.328-32-32-32S0,398.328,0,416v64c0,17.672,14.328,32,32,32h448c17.672,0,32-14.328,32-32V32
		C512,14.328,497.672,0,480,0z"/>
	<path d="M240.906,348.211C245.625,350.742,250.828,352,256,352c6.203,0,12.391-1.805,17.75-5.375l96-64
		C378.656,276.688,384,266.703,384,256s-5.344-20.688-14.25-26.625l-96-64c-9.828-6.555-22.484-7.156-32.844-1.586
		C230.5,169.352,224,180.195,224,192v32H32c-17.672,0-32,14.328-32,32s14.328,32,32,32h192v32
		C224,331.805,230.5,342.648,240.906,348.211z"/>
</g>
<g>
</g>
<g>
</g>
<g>
</g>
<g>
</g>
<g>
</g>
<g>
</g>
<g>
</g>
<g>
</g>
<g>
</g>
<g>
</g>
<g>
</g>
<g>
</g>
<g>
</g>
<g>
</g>
<g>
</g>
</svg>
