<?xml version="1.0" encoding="utf-8"?>
<!-- Generator: Adobe Illustrator 21.0.2, SVG Export Plug-In . SVG Version: 6.00 Build 0)  -->
<svg version="1.1" id="Livello_1" xmlns="http://www.w3.org/2000/svg" xmlns:xlink="http://www.w3.org/1999/xlink" x="0px" y="0px"
	 viewBox="0 0 24 24" style="enable-background:new 0 0 24 24;" xml:space="preserve">
<g>
	<path d="M18.2,10.8h-0.4v-3c0-3.1-2.5-5.8-5.6-5.8c-0.1,0-0.3,0-0.3,0C8.7,2.1,6.2,4.7,6.2,7.9V8c0,0.7,0.5,0.7,1.2,0.7
		s1.2,0,1.2-0.7V7.9c0-1.9,1.5-3.4,3.4-3.4s3.4,1.5,3.4,3.4v3H5.8c-0.6,0-1,0.6-1,1.3v8.5c0,0.7,0.5,1.3,1,1.3h12.3
		c0.6,0,1-0.6,1-1.3v-8.5C19.2,11.4,18.7,10.8,18.2,10.8z M13.2,16.4V19c0,0.3-0.2,0.5-0.5,0.5h-1.2c-0.3,0-0.5-0.2-0.5-0.5v-2.6
		c-0.3-0.3-0.5-0.7-0.5-1.1c0-0.8,0.6-1.5,1.4-1.6c0.1,0,0.3,0,0.3,0c0.8,0,1.4,0.7,1.4,1.6C13.6,15.7,13.4,16.1,13.2,16.4z"/>
</g>
</svg>
