<?xml version="1.0" encoding="utf-8"?>
<!-- Generator: Adobe Illustrator 21.0.2, SVG Export Plug-In . SVG Version: 6.00 Build 0)  -->
<svg version="1.1" id="Livello_1" xmlns="http://www.w3.org/2000/svg" xmlns:xlink="http://www.w3.org/1999/xlink" x="0px" y="0px"
	 viewBox="0 0 24 24" style="enable-background:new 0 0 24 24;" xml:space="preserve">
<style type="text/css">
	<!-- .st0{fill:#757575;} -->
	.st1{fill:none;stroke:#757575;stroke-width:0.5;stroke-miterlimit:10;}
</style>
<g>
	<g>
		<path class="st0" d="M22.8,12.3l-2.3,2.3c-0.1,0.1-0.4,0.1-0.5,0s-0.1-0.4,0-0.5l2-2.1l-2-2.1c-0.1-0.1-0.1-0.4,0-0.5
			s0.4-0.1,0.5,0l2.3,2.3c0.1,0.1,0.1,0.2,0.1,0.3S22.9,12.2,22.8,12.3z"/>
	</g>
	<g>
		<path class="st0" d="M1.2,11.7l2.3-2.3c0.1-0.1,0.4-0.1,0.5,0s0.1,0.4,0,0.5L2,12l2,2.1c0.1,0.1,0.1,0.4,0,0.5s-0.4,0.1-0.5,0
			l-2.3-2.3c-0.1-0.1-0.1-0.2-0.1-0.3S1.1,11.8,1.2,11.7z"/>
	</g>
	<g>
		<g id="Page-1">
			<g id="Tablet" transform="translate(-465.000000, -617.000000)">
				<g id="Group-7" transform="translate(465.000000, 617.000000)">
					<rect id="Rectangle-3" x="6.4" y="7.2" class="st1" width="11.2" height="9.6"/>
				</g>
			</g>
		</g>
	</g>
</g>
<g id="Group-6" transform="translate(4.350000, 20.300000)">
	<g id="Group-5">
		<g>
			<ellipse id="Oval-3_3_" class="st0" cx="4.4" cy="-1.2" rx="0.9" ry="0.9"/>
			<path class="st0" d="M4.4-0.1c-0.6,0-1.1-0.5-1.1-1.1s0.5-1.1,1.1-1.1s1.2,0.5,1.2,1.1S5-0.1,4.4-0.1z M4.4-1.9
				C4-1.9,3.7-1.6,3.7-1.2S4-0.5,4.4-0.5s0.7-0.3,0.7-0.7S4.8-1.9,4.4-1.9z"/>
		</g>
		<path class="st0" d="M7.6-0.1C7-0.1,6.5-0.6,6.5-1.2s0.5-1.1,1.1-1.1s1.1,0.5,1.1,1.1S8.2-0.1,7.6-0.1z M7.6-1.9
			c-0.4,0-0.7,0.3-0.7,0.7s0.3,0.7,0.7,0.7c0.4,0,0.7-0.3,0.7-0.7S8.1-1.9,7.6-1.9z"/>
		<path class="st0" d="M10.9-0.1c-0.6,0-1.1-0.5-1.1-1.1s0.5-1.1,1.1-1.1S12-1.9,12-1.2S11.5-0.1,10.9-0.1z M10.9-1.9
			c-0.4,0-0.7,0.3-0.7,0.7s0.3,0.7,0.7,0.7s0.7-0.3,0.7-0.7S11.3-1.9,10.9-1.9z"/>
	</g>
</g>
</svg>
