<?xml version="1.0" encoding="UTF-8"?>
<svg width="100px" height="100px" viewBox="0 0 100 100" version="1.1" xmlns="http://www.w3.org/2000/svg" xmlns:xlink="http://www.w3.org/1999/xlink">
    <!-- Generator: Sketch 51.3 (57544) - http://www.bohemiancoding.com/sketch -->
    <title>copy-item</title>
    <desc>Created with Sketch.</desc>
    <defs></defs>
    <g id="Page-1" stroke="none" stroke-width="1" fill="none" fill-rule="evenodd">
        <g id="Mobile" fill="" fill-rule="nonzero">
            <g id="copy-item">
                <path d="M74.8117761,100 L3.75965251,100 C1.68275418,100 0,98.3172114 0,96.2402705 L0,25.1883009 C0,23.1113601 1.68275418,21.4285714 3.75965251,21.4285714 L74.8117761,21.4285714 C76.8886744,21.4285714 78.5714286,23.1129689 78.5714286,25.1883009 L78.5714286,96.2402705 C78.5714286,98.3156026 76.8886744,100 74.8117761,100 Z M7.51930502,92.4789322 L71.0505148,92.4789322 L71.0505148,28.9480304 L7.51930502,28.9480304 L7.51930502,92.4789322 Z" id="Shape"></path>
                <path d="M96.2403475,78.5714286 L88.6068211,78.5714286 C86.5299228,78.5714286 84.8471686,76.8870656 84.8471686,74.8117761 C84.8471686,72.7348777 86.5299228,71.0521236 88.6068211,71.0521236 L92.480695,71.0521236 L92.480695,7.52091377 L28.9478764,7.52091377 L28.9478764,11.703668 C28.9478764,13.7805663 27.2651223,15.4633205 25.1882239,15.4633205 C23.1113256,15.4633205 21.4285714,13.7789575 21.4285714,11.703668 L21.4285714,3.75965251 C21.4285714,1.68436293 23.1113256,0 25.1882239,0 L96.2403475,0 C98.3172458,0 100,1.68436293 100,3.75965251 L100,74.8117761 C100,76.8870656 98.3172458,78.5714286 96.2403475,78.5714286 Z" id="Shape"></path>
            </g>
        </g>
    </g>
</svg>