<?xml version="1.0" encoding="UTF-8"?>
<svg width="100px" height="100px" viewBox="0 0 100 100" version="1.1" xmlns="http://www.w3.org/2000/svg" xmlns:xlink="http://www.w3.org/1999/xlink">
    <!-- Generator: Sketch 51.3 (57544) - http://www.bohemiancoding.com/sketch -->
    <title>settings-work-tool</title>
    <desc>Created with Sketch.</desc>
    <defs></defs>
    <g id="Page-1" stroke="none" stroke-width="1" fill="none" fill-rule="evenodd">
        <g id="Mobile" fill="">
            <g id="settings-work-tool">
                <path d="M99.68709,44.4480833 C99.5289553,43.0423932 97.8899354,41.9860793 96.4726763,41.9860793 C91.8904902,41.9860793 87.8243814,39.2956229 86.119131,35.1347358 C84.3770444,30.8730171 85.5003591,25.9028722 88.9153249,22.7703936 C89.9902689,21.7877501 90.1208696,20.1428174 89.2193157,19.0001827 C86.8740847,16.0221142 84.2084914,13.3320298 81.2980684,11.0006233 C80.1583822,10.0860691 78.486247,10.2133179 77.497998,11.3075832 C74.5176236,14.6082386 69.1641122,15.8349617 65.0273079,14.1089172 C60.7223226,12.2980402 58.0076146,7.93586192 58.2732809,3.25332915 C58.3607201,1.78252645 57.2857761,0.503713172 55.8194021,0.332931881 C52.084446,-0.0990443238 48.3167468,-0.112438935 44.5706282,0.303166079 C43.1209979,0.463157266 42.0460539,1.71183267 42.0947966,3.16403175 C42.2577684,7.80042752 39.5103171,12.086331 35.2481213,13.8320953 C31.1608039,15.5015847 25.8448726,14.2852796 22.8704516,11.0140179 C21.8874117,9.93649591 20.2424385,9.80403809 19.0971711,10.6966401 C16.1004251,13.0477664 13.3749266,15.7400832 11.008115,18.6935949 C10.0849803,19.8418108 10.2207901,21.5060912 11.3065245,22.4939437 C14.7866046,25.645398 15.9102913,30.6587033 14.1023464,34.9695356 C12.3762594,39.0794487 8.1084823,41.7282331 3.22267753,41.7282331 C1.63723742,41.6772591 0.507969464,42.7413866 0.334579393,44.1827955 C-0.105221173,47.9392398 -0.110430317,51.7667499 0.312998655,55.5537041 C0.470017131,56.9653472 2.15889596,58.0123593 3.59178257,58.0123593 C7.94588259,57.9011097 12.1262205,60.5967751 13.8798415,64.8640749 C15.6278813,69.1257937 14.5041946,74.0929619 11.0840196,77.2280451 C10.0142847,78.2106886 9.87847493,79.8530167 10.7800289,80.9956515 C13.103307,83.9547443 15.7692724,86.6474332 18.6901137,88.9981874 C19.8357532,89.9212994 21.5026792,89.791074 22.4957653,88.6968087 C25.4873021,85.3879677 30.8404415,84.163477 34.9608742,85.8928701 C39.2766498,87.698166 41.9913579,92.0599722 41.7256916,96.7451095 C41.6389965,98.2166564 42.7191497,99.4977021 44.1795704,99.6658789 C46.0902099,99.8887503 48.0123839,100 49.9397671,100 C51.7692928,100 53.5991906,99.8995404 55.4287163,99.6960167 C56.8787187,99.5360256 57.9529185,98.2873502 57.9041758,96.8325466 C57.736367,92.1987553 60.4886553,87.9128519 64.7452699,86.1700641 C68.8601214,84.4894125 74.1537277,85.7194843 77.1285209,88.9873973 C78.117142,90.0626869 79.7505806,90.1925402 80.9021735,89.3029148 C83.8933382,86.9573696 86.6132554,84.2672852 88.9912296,81.3055879 C89.9139922,80.1599766 89.7837636,78.4930917 88.692448,77.5056112 C85.2123679,74.3541569 84.0830999,69.3401075 85.8910449,65.0322517 C87.5907141,60.9770332 91.6999843,58.2542065 96.1199428,58.2542065 L96.7383426,58.2702056 C98.1719734,58.3866643 99.491003,57.282353 99.6647651,55.8189918 C100.10531,52.0591989 100.110519,48.2350374 99.68709,44.4480833 Z M50.0792978,66.7835971 C40.8821824,66.7835971 33.4011078,59.3027069 33.4011078,50.1058181 C33.4011078,40.9093014 40.8821824,33.4280391 50.0792978,33.4280391 C59.2760411,33.4280391 66.7571157,40.9093014 66.7571157,50.1058181 C66.7571157,59.3027069 59.2760411,66.7835971 50.0792978,66.7835971 Z" id="Shape"></path>
            </g>
        </g>
    </g>
</svg>