<svg width="161" height="140" viewBox="0 0 161 140" xmlns="http://www.w3.org/2000/svg" xmlns:xlink="http://www.w3.org/1999/xlink"><view id="21-Models-list" viewBox="141 0 20 20"/><svg width="20" height="20" viewBox="0 0 20 20" x="141" xmlns="http://www.w3.org/2000/svg"><path d="M2 11.539v2.41l8 3.83 8-3.83v-2.41l-8 3.555-8-3.555zM2 9.35l8 3.556 8-3.556V6.475l-8 3.829-8-3.83V9.35zm15.82-5.007L10 1.986 2.18 4.343 10 8.086l7.82-3.743zM20 3.3v11.91l-10 4.786L0 15.21v-12L10 0l10 3.21v.09z" fill-rule="evenodd"/></svg><view id="A001-Tablet" viewBox="121 80 20 20"/><svg width="20" height="20" viewBox="0 0 20 20" x="121" y="80" xmlns="http://www.w3.org/2000/svg"><path d="M3 1h14v18H3z" fill="none" fill-rule="evenodd"/></svg><view id="A002-Redo" viewBox="100 21 20 20"/><svg width="20" height="20" viewBox="0 0 20 20" x="100" y="21" xmlns="http://www.w3.org/2000/svg"><path d="M17 11H2v7H0V9h17l-7-7V0l10 10-10 10v-2l7-7z" fill-rule="evenodd"/></svg><view id="A003-Undo" viewBox="100 41 20 20"/><svg width="20" height="20" viewBox="0 0 20 20" x="100" y="41" xmlns="http://www.w3.org/2000/svg"><path d="M3 11h15v7h2V9H3l7-7V0L0 10l10 10v-2l-7-7z" fill-rule="evenodd"/></svg><view id="A006-Save" viewBox="100 61 20 20"/><svg width="20" height="20" viewBox="0 0 20 20" x="100" y="61" xmlns="http://www.w3.org/2000/svg"><path d="M10 20C4.477 20 0 15.523 0 10S4.477 0 10 0s10 4.477 10 10-4.477 10-10 10zm6-15l-8 8-4-4H2l6 6L18 5h-2z" fill-rule="evenodd"/></svg><view id="A006-Save-Clear" viewBox="0 100 20 20"/><svg width="20" height="20" viewBox="0 0 20 20" y="100" xmlns="http://www.w3.org/2000/svg"><path d="M4.002 9H2l6.002 6 10-10h-2l-8 8-4-4z" fill-rule="evenodd"/></svg><view id="A007-Close" viewBox="20 100 20 20"/><svg width="20" height="20" viewBox="0 0 20 20" x="20" y="100" xmlns="http://www.w3.org/2000/svg"><path d="M2 15H0L10 5l10 10h-2l-8-8z" fill-rule="evenodd"/></svg><view id="A008-Code" viewBox="40 100 20 20"/><svg width="20" height="20" viewBox="0 0 20 20" x="40" y="100" xmlns="http://www.w3.org/2000/svg"><g fill-rule="evenodd"><path d="M14 5.846V4l6 5.94L14 16v-2.03l4-4.03zM6 14.154V16l-6-5.94L6 4v2.03l-4 4.03zM8.508 20H6.5l5.02-20h1.98z"/></g></svg><view id="A009-Range" viewBox="60 100 20 20"/><svg width="20" height="20" viewBox="0 0 20 20" x="60" y="100" xmlns="http://www.w3.org/2000/svg"><g fill-rule="evenodd"><path d="M2 2v16h16V2H2zm18-2v20H0V0h20z"/><path d="M18 10l-4-4v3H6V6l-4 4 4 3.845V11h8v3z"/></g></svg><view id="A010-Mobile" viewBox="80 100 20 20"/><svg width="20" height="20" viewBox="0 0 20 20" x="80" y="100" xmlns="http://www.w3.org/2000/svg"><path d="M6 1h8v18H6z" fill="none" fill-rule="evenodd"/></svg><view id="A011-Desktop" viewBox="100 100 20 20"/><svg width="20" height="20" viewBox="0 0 20 20" x="100" y="100" xmlns="http://www.w3.org/2000/svg"><path d="M9 18v-2H0V0h20v16h-9v2h2v2H7v-2h2zM2 2v12h16V2H2z" fill-rule="nonzero"/></svg><view id="B001-Full" viewBox="121 0 20 20"/><svg width="20" height="20" viewBox="0 0 20 20" x="121" xmlns="http://www.w3.org/2000/svg"><path d="M0 0h20v20H0V0zm18 10l-4-4v3H6V6l-4 4 4 3.845V11h8v3l4-4z" fill-rule="evenodd"/></svg><view id="B002-Boxed" viewBox="121 20 20 20"/><svg width="20" height="20" viewBox="0 0 20 20" x="121" y="20" xmlns="http://www.w3.org/2000/svg"><g fill-rule="nonzero"><path d="M4 0h12v20H4V0zm12 10l-4-4v3H8V6l-4 4 4 3.845V11h4v2.944L16 10z"/><path d="M2 2v16h16V2H2zm18-2v20H0V0h20z"/></g></svg><view id="B003-Text" viewBox="121 40 20 20"/><svg width="20" height="20" viewBox="0 0 20 20" x="121" y="40" xmlns="http://www.w3.org/2000/svg"><g fill-rule="evenodd"><path d="M20 20H0h20zM0 0h20v2H0z"/><path d="M11 0v20H9V0z"/></g></svg><view id="B005-RexModel" viewBox="121 60 20 20"/><svg width="20" height="20" viewBox="0 0 20 20" x="121" y="60" xmlns="http://www.w3.org/2000/svg"><path d="M2 11v7h16V2H2v7h10V6l4 4-4 4v-3H2zM0 0h20v20H0V0z" fill-rule="evenodd"/></svg><view id="B006-Collapse" viewBox="141 100 20 20"/><svg width="20" height="20" viewBox="0 0 20 20" x="141" y="100" xmlns="http://www.w3.org/2000/svg"><g fill-rule="evenodd"><path d="M0 0h20v4H0zM0 8h20v4H0zM0 16h20v4H0z"/></g></svg><view id="B007-Move" viewBox="121 100 20 20"/><svg width="20" height="20" viewBox="0 0 20 20" x="121" y="100" xmlns="http://www.w3.org/2000/svg"><path d="M10 0L6 4h3v12H6l4 4 4-4h-3V4h3z" fill-rule="evenodd"/></svg><view id="B010-Masonry" viewBox="0 120 20 20"/><svg width="20" height="20" viewBox="0 0 20 20" y="120" xmlns="http://www.w3.org/2000/svg"><g fill-rule="evenodd"><path d="M0 9h9v11H0zM11 14h9v6h-9zM11 0h9v12h-9zM0 0h9v7H0z"/></g></svg><view id="B011-Grid" viewBox="20 120 20 20"/><svg width="20" height="20" viewBox="0 0 20 20" x="20" y="120" xmlns="http://www.w3.org/2000/svg"><g fill-rule="evenodd"><path d="M0 0h9v9H0zM0 11h9v9H0zM11 0h9v9h-9zM11 11h9v9h-9z"/></g></svg><view id="B012-Full-Height" viewBox="40 120 20 20"/><svg width="20" height="20" viewBox="0 0 20 20" x="40" y="120" xmlns="http://www.w3.org/2000/svg"><g fill-rule="evenodd"><path d="M2 2v16h16V2H2zm18-2v20H0V0h20z"/><path d="M10 2L6 6h3v8H6l4 4 3.845-4H11V6h3z"/></g></svg><view id="B013-Row-ID" viewBox="60 120 20 20"/><svg width="20" height="20" viewBox="0 0 20 20" x="60" y="120" xmlns="http://www.w3.org/2000/svg"><g fill-rule="evenodd"><path d="M2 2v16h16V2H2zm18-2v20H0V0h20z" fill-rule="nonzero"/><path d="M14 5h2v2h-2zM14 9h2v2h-2zM14 13h2v2h-2z"/></g></svg><view id="C001-Link" viewBox="80 120 20 20"/><svg width="20" height="20" viewBox="0 0 20 20" x="80" y="120" xmlns="http://www.w3.org/2000/svg"><g fill="none" fill-rule="evenodd"><path d="M12 1H1v18h18V8"/><path d="M19.985.028h-5.657L16.45 2.15.843 17.2l1 2L17.864 3.564l2.121 2.121z"/></g></svg><view id="Z001-Plus" viewBox="100 120 20 20"/><svg width="20" height="20" viewBox="0 0 20 20" x="100" y="120" xmlns="http://www.w3.org/2000/svg"><path d="M9 9V0h2v9h9v2h-9v9H9v-9H0V9h9zm1 1.25V15v-4.75z" fill-rule="nonzero"/></svg><view id="Z002-Image-Full" viewBox="120 120 20 20"/><svg width="20" height="20" viewBox="0 0 20 20" x="120" y="120" xmlns="http://www.w3.org/2000/svg"><g fill-rule="evenodd"><path d="M7.368 14.737L14 0l6.026 10.043V20H0l5-10 2.368 4.737zM20 20H0h20z"/><circle cx="5" cy="5" r="2"/></g></svg><view id="Z003-Close" viewBox="0 0 100 100"/><svg width="100" height="100" viewBox="0 0 100 100" xmlns="http://www.w3.org/2000/svg"><path d="M85.355 77.157L58.198 50l27.156-27.155a5.8 5.8 0 0 0 .001-8.2 5.8 5.8 0 0 0-8.199 0L50 41.802 22.843 14.645a5.802 5.802 0 0 0-8.199 0 5.795 5.795 0 0 0 0 8.199l27.157 27.157-27.156 27.155a5.792 5.792 0 0 0 0 8.2 5.795 5.795 0 0 0 8.199 0l27.155-27.157 27.157 27.157a5.794 5.794 0 0 0 8.199 0 5.8 5.8 0 0 0 0-8.2z" fill-rule="nonzero"/></svg><view id="Z003-RexSlider" viewBox="141 20 20 20"/><svg width="20" height="20" viewBox="0 0 20 20" x="141" y="20" xmlns="http://www.w3.org/2000/svg"><g fill-rule="evenodd"><path d="M0 0h20v14H0V0zm6 3L2 7l4 3.845V3zm8 8l4-4-4-3.845V11zM5 16h2v2H5zM9 16h2v2H9zM13 16h2v2h-2z"/></g></svg><view id="Z004-Copy" viewBox="141 40 20 20"/><svg width="20" height="20" viewBox="0 0 20 20" x="141" y="40" xmlns="http://www.w3.org/2000/svg"><path d="M13 12h5V2H8v10h5zm-1 2H6V8H2v10h10v-4zM6 6V0h14v14h-6v6H0V6h6z" fill-rule="evenodd"/></svg><view id="Z005-Setting" viewBox="141 60 20 20"/><svg width="20" height="20" viewBox="0 0 20 20" x="141" y="60" xmlns="http://www.w3.org/2000/svg"><g fill-rule="evenodd"><path d="M20 20H0h20z"/><path d="M118.664 48.116c-.169-1.49-1.923-2.61-3.44-2.61-4.902 0-9.253-2.851-11.078-7.263-1.862-4.517-.66-9.785 2.992-13.104a2.926 2.926 0 0 0 .326-3.998 52.712 52.712 0 0 0-8.475-8.48 3 3 0 0 0-4.067.326c-3.188 3.499-8.917 4.799-13.343 2.97-4.605-1.92-7.512-6.544-7.226-11.508.094-1.56-1.057-2.915-2.627-3.096a53.892 53.892 0 0 0-12.036-.031 2.96 2.96 0 0 0-2.649 3.033 11.788 11.788 0 0 1-7.326 11.308c-4.373 1.77-10.062.48-13.244-2.989a3.002 3.002 0 0 0-4.037-.335 52.947 52.947 0 0 0-8.655 8.477 2.929 2.929 0 0 0 .319 4.027c3.724 3.341 4.925 8.654 2.991 13.225-1.846 4.357-6.413 7.164-11.64 7.164-1.697-.054-2.904 1.075-3.092 2.603a52.635 52.635 0 0 0-.022 12.051c.169 1.496 1.975 2.608 3.508 2.608 4.66-.118 9.131 2.738 11.01 7.261 1.868 4.518.665 9.783-2.993 13.107a2.923 2.923 0 0 0-.325 3.993 52.897 52.897 0 0 0 8.463 8.483 2.995 2.995 0 0 0 4.072-.32c3.202-3.507 8.929-4.805 13.337-2.971 4.619 1.914 7.524 6.537 7.24 11.502a2.95 2.95 0 0 0 2.625 3.097c2.045.237 4.101.354 6.163.354a53.54 53.54 0 0 0 5.874-.322 2.959 2.959 0 0 0 2.647-3.035c-.18-4.912 2.767-9.455 7.321-11.302 4.403-1.782 10.066-.478 13.25 2.985a3.008 3.008 0 0 0 4.038.335 53.017 53.017 0 0 0 8.654-8.478 2.924 2.924 0 0 0-.318-4.028c-3.724-3.34-4.931-8.655-2.998-13.22 1.818-4.299 6.215-7.185 10.944-7.185l.662.017c1.535.124 2.946-1.048 3.132-2.6.472-3.983.477-8.037.023-12.051zM65.5 84.556c-17.035 0-30.844-13.68-30.844-30.555S48.466 23.446 65.5 23.446s30.843 13.68 30.843 30.555a30.187 30.187 0 0 1-4.362 15.666l-13.506-13.38a18.535 18.535 0 0 0 1.494-7.314c0-5.004-1.967-9.708-5.54-13.245-3.57-3.538-8.318-5.486-13.368-5.486-1.686 0-3.363.222-4.986.66a2.132 2.132 0 0 0-1.481 1.478c-.194.721.024 1.46.594 2.025 0 0 6.667 6.656 8.898 8.866.234.231.233.783.2.982l-.02.146c-.225 2.43-.659 5.346-1.017 6.467-.048.047-.093.087-.142.135l-.148.15c-1.146.365-4.136.8-6.627 1.02v-.013l-.112.028a1.432 1.432 0 0 1-1.131-.426c-2.322-2.3-8.728-8.6-8.728-8.6-.575-.568-1.165-.688-1.557-.688-.916 0-1.736.656-1.994 1.596-1.764 6.465.106 13.42 4.88 18.15 3.572 3.537 8.32 5.486 13.371 5.486 2.58 0 5.079-.512 7.384-1.48l13.652 13.524A30.899 30.899 0 0 1 65.5 84.555zM19.937 8.89c-.031-.281-.36-.493-.643-.493a2.22 2.22 0 0 1-2.07-1.37 2.228 2.228 0 0 1 .559-2.473.556.556 0 0 0 .06-.754 9.9 9.9 0 0 0-1.583-1.6.557.557 0 0 0-.76.062c-.597.66-1.667.905-2.495.56A2.221 2.221 0 0 1 11.655.65a.555.555 0 0 0-.491-.584A9.98 9.98 0 0 0 8.914.06a.557.557 0 0 0-.495.572 2.225 2.225 0 0 1-1.37 2.134c-.817.333-1.88.09-2.475-.564a.557.557 0 0 0-.755-.064 9.941 9.941 0 0 0-1.617 1.6.556.556 0 0 0 .06.76c.695.63.92 1.633.558 2.495-.345.822-1.198 1.352-2.175 1.352a.544.544 0 0 0-.578.49 10.024 10.024 0 0 0-.004 2.275c.031.282.369.492.655.492.871-.023 1.707.516 2.058 1.37.35.852.125 1.846-.56 2.473a.555.555 0 0 0-.06.753c.465.592.998 1.13 1.582 1.6.23.185.562.16.761-.06.598-.661 1.669-.906 2.493-.56a2.218 2.218 0 0 1 1.353 2.17.555.555 0 0 0 .49.584 9.912 9.912 0 0 0 2.25.006.557.557 0 0 0 .496-.572 2.223 2.223 0 0 1 1.368-2.133c.823-.336 1.881-.09 2.477.563a.558.558 0 0 0 .754.064 9.954 9.954 0 0 0 1.618-1.6.555.555 0 0 0-.06-.76 2.216 2.216 0 0 1-.56-2.494 2.238 2.238 0 0 1 2.046-1.356l.123.003a.557.557 0 0 0 .586-.49 9.98 9.98 0 0 0 .004-2.274zM10 15.765a5.765 5.765 0 1 1 4.95-2.809l-2.525-2.524c.183-.431.28-.898.28-1.38a3.51 3.51 0 0 0-1.036-2.5A3.511 3.511 0 0 0 9.17 5.517c-.315 0-.628.042-.932.125a.4.4 0 0 0-.277.279.39.39 0 0 0 .111.382S9.32 7.559 9.736 7.976c.043.043.043.147.037.185l-.004.027c-.042.459-.123 1.01-.19 1.22l-.026.026-.028.029c-.214.068-.773.15-1.239.192v-.002l-.02.005a.266.266 0 0 1-.211-.08c-.435-.435-1.632-1.623-1.632-1.623a.407.407 0 0 0-.291-.13.396.396 0 0 0-.373.301c-.33 1.22.02 2.532.912 3.424a3.512 3.512 0 0 0 2.5 1.036c.481 0 .949-.097 1.38-.28l2.551 2.552a5.736 5.736 0 0 1-3.102.907z" fill-rule="nonzero"/></g></svg><view id="Z006-Video" viewBox="141 80 20 20"/><svg width="20" height="20" viewBox="0 0 20 20" x="141" y="80" xmlns="http://www.w3.org/2000/svg"><path d="M20 10L0 20V0z" fill-rule="evenodd"/></svg><view id="Z007-Zoom" viewBox="100 0 21 21"/><svg width="21" height="21" viewBox="0 0 21 21" x="100" xmlns="http://www.w3.org/2000/svg"><path d="M14 12.586l7.014 7.014v1.385l-.03.03H19.6L12.586 14H0V0h14v12.586zM2 2v10h10V2H2zm6 4h2v2H8v2H6V8H4V6h2V4h2v2z" fill-rule="evenodd"/></svg></svg>