<svg width="20" height="20" xmlns="http://www.w3.org/2000/svg" viewBox="0 0 20 20"><g fill-rule="evenodd"><path d="M17.5 5a2.5 2.5 0 110-5 2.5 2.5 0 010 5zm0-1a1.5 1.5 0 100-3 1.5 1.5 0 000 3zM17.5 12.5a2.5 2.5 0 110-5 2.5 2.5 0 010 5zm0-1a1.5 1.5 0 100-3 1.5 1.5 0 000 3zM17.5 20a2.5 2.5 0 110-5 2.5 2.5 0 010 5zm0-1a1.5 1.5 0 100-3 1.5 1.5 0 000 3zM2.5 5a2.5 2.5 0 110-5 2.5 2.5 0 010 5zm0-1a1.5 1.5 0 100-3 1.5 1.5 0 000 3zM2.5 12.5a2.5 2.5 0 110-5 2.5 2.5 0 010 5zm0-1a1.5 1.5 0 100-3 1.5 1.5 0 000 3zM2.5 20a2.5 2.5 0 110-5 2.5 2.5 0 010 5zm0-1a1.5 1.5 0 100-3 1.5 1.5 0 000 3zM10 5a2.5 2.5 0 110-5 2.5 2.5 0 010 5zm0-1a1.5 1.5 0 100-3 1.5 1.5 0 000 3zM10 12.5a2.5 2.5 0 110-5 2.5 2.5 0 010 5zM10 20a2.5 2.5 0 110-5 2.5 2.5 0 010 5zm0-1a1.5 1.5 0 100-3 1.5 1.5 0 000 3z"/></g></svg>