<svg width="20" height="20" xmlns="http://www.w3.org/2000/svg" viewBox="0 0 20 20"><g fill-rule="evenodd"><path d="M20 20H0h20z"/><path d="M118.664 48.116c-.169-1.49-1.923-2.61-3.44-2.61-4.902 0-9.253-2.851-11.078-7.263-1.862-4.517-.66-9.785 2.992-13.104a2.926 2.926 0 00.326-3.998 52.712 52.712 0 00-8.475-8.48 3 3 0 00-4.067.326c-3.188 3.499-8.917 4.799-13.343 2.97-4.605-1.92-7.512-6.544-7.226-11.508.094-1.56-1.057-2.915-2.627-3.096a53.892 53.892 0 00-12.036-.031 2.96 2.96 0 00-2.649 3.033 11.788 11.788 0 01-7.326 11.308c-4.373 1.77-10.062.48-13.244-2.989a3.002 3.002 0 00-4.037-.335 52.947 52.947 0 00-8.655 8.477 2.929 2.929 0 00.319 4.027c3.724 3.341 4.925 8.654 2.991 13.225-1.846 4.357-6.413 7.164-11.64 7.164-1.697-.054-2.904 1.075-3.092 2.603a52.635 52.635 0 00-.022 12.051c.169 1.496 1.975 2.608 3.508 2.608 4.66-.118 9.131 2.738 11.01 7.261 1.868 4.518.665 9.783-2.993 13.107a2.923 2.923 0 00-.325 3.993 52.897 52.897 0 008.463 8.483 2.995 2.995 0 004.072-.32c3.202-3.507 8.929-4.805 13.337-2.971 4.619 1.914 7.524 6.537 7.24 11.502a2.95 2.95 0 002.625 3.097c2.045.237 4.101.354 6.163.354a53.54 53.54 0 005.874-.322 2.959 2.959 0 002.647-3.035c-.18-4.912 2.767-9.455 7.321-11.302 4.403-1.782 10.066-.478 13.25 2.985a3.008 3.008 0 004.038.335 53.017 53.017 0 008.654-8.478 2.924 2.924 0 00-.318-4.028c-3.724-3.34-4.931-8.655-2.998-13.22 1.818-4.299 6.215-7.185 10.944-7.185l.662.017c1.535.124 2.946-1.048 3.132-2.6.472-3.983.477-8.037.023-12.051zM65.5 84.556c-17.035 0-30.844-13.68-30.844-30.555S48.466 23.446 65.5 23.446s30.843 13.68 30.843 30.555a30.187 30.187 0 01-4.362 15.666l-13.506-13.38a18.535 18.535 0 001.494-7.314c0-5.004-1.967-9.708-5.54-13.245-3.57-3.538-8.318-5.486-13.368-5.486-1.686 0-3.363.222-4.986.66a2.132 2.132 0 00-1.481 1.478c-.194.721.024 1.46.594 2.025 0 0 6.667 6.656 8.898 8.866.234.231.233.783.2.982l-.02.146c-.225 2.43-.659 5.346-1.017 6.467-.048.047-.093.087-.142.135l-.148.15c-1.146.365-4.136.8-6.627 1.02v-.013l-.112.028a1.432 1.432 0 01-1.131-.426c-2.322-2.3-8.728-8.6-8.728-8.6-.575-.568-1.165-.688-1.557-.688-.916 0-1.736.656-1.994 1.596-1.764 6.465.106 13.42 4.88 18.15 3.572 3.537 8.32 5.486 13.371 5.486 2.58 0 5.079-.512 7.384-1.48l13.652 13.524A30.899 30.899 0 0165.5 84.555zM19.937 8.89c-.031-.281-.36-.493-.643-.493a2.22 2.22 0 01-2.07-1.37 2.228 2.228 0 01.559-2.473.556.556 0 00.06-.754 9.9 9.9 0 00-1.583-1.6.557.557 0 00-.76.062c-.597.66-1.667.905-2.495.56A2.221 2.221 0 0111.655.65a.555.555 0 00-.491-.584A9.98 9.98 0 008.914.06a.557.557 0 00-.495.572 2.225 2.225 0 01-1.37 2.134c-.817.333-1.88.09-2.475-.564a.557.557 0 00-.755-.064 9.941 9.941 0 00-1.617 1.6.556.556 0 00.06.76c.695.63.92 1.633.558 2.495-.345.822-1.198 1.352-2.175 1.352a.544.544 0 00-.578.49 10.024 10.024 0 00-.004 2.275c.031.282.369.492.655.492.871-.023 1.707.516 2.058 1.37.35.852.125 1.846-.56 2.473a.555.555 0 00-.06.753c.465.592.998 1.13 1.582 1.6.23.185.562.16.761-.06.598-.661 1.669-.906 2.493-.56a2.218 2.218 0 011.353 2.17.555.555 0 00.49.584 9.912 9.912 0 002.25.006.557.557 0 00.496-.572 2.223 2.223 0 011.368-2.133c.823-.336 1.881-.09 2.477.563a.558.558 0 00.754.064 9.954 9.954 0 001.618-1.6.555.555 0 00-.06-.76 2.216 2.216 0 01-.56-2.494 2.238 2.238 0 012.046-1.356l.123.003a.557.557 0 00.586-.49 9.98 9.98 0 00.004-2.274zM10 15.765a5.765 5.765 0 114.95-2.809l-2.525-2.524c.183-.431.28-.898.28-1.38a3.51 3.51 0 00-1.036-2.5A3.511 3.511 0 009.17 5.517c-.315 0-.628.042-.932.125a.4.4 0 00-.277.279.39.39 0 00.111.382S9.32 7.559 9.736 7.976c.043.043.043.147.037.185l-.004.027c-.042.459-.123 1.01-.19 1.22l-.026.026-.028.029c-.214.068-.773.15-1.239.192v-.002l-.02.005a.266.266 0 01-.211-.08c-.435-.435-1.632-1.623-1.632-1.623a.407.407 0 00-.291-.13.396.396 0 00-.373.301c-.33 1.22.02 2.532.912 3.424a3.512 3.512 0 002.5 1.036c.481 0 .949-.097 1.38-.28l2.551 2.552a5.736 5.736 0 01-3.102.907z" fill-rule="nonzero"/></g></svg>