<svg width="20" height="20" xmlns="http://www.w3.org/2000/svg" viewBox="0 0 20 20"><path d="M12.712 8V4.042c-.001-.966-.78-1.747-1.744-1.749H9.032a1.75 1.75 0 00-1.745 1.749V6H5V4.042A4.038 4.038 0 019.032 0h1.936C13.196 0 15 1.81 15 4.042V8h2v6.138C17 17.376 14.285 20 10.934 20H9.067C5.716 20 3 17.376 3 14.138V8h9.712zm-1.823 5.46c.572-.228.976-.772.976-1.408 0-.843-.707-1.525-1.578-1.525-.872 0-1.578.682-1.578 1.525 0 .634.4 1.178.97 1.408v2.685c0 .323.27.584.605.584a.595.595 0 00.605-.584v-2.684z" fill-rule="evenodd"/></svg>