<svg xmlns="http://www.w3.org/2000/svg" viewBox="0 0 28.3 28.3" width="28.3" height="28.3"><path d="M7.6 11.5c-1.5 0-2.7 1.2-2.7 2.7s1.2 2.7 2.7 2.7 2.7-1.2 2.7-2.7-1.3-2.7-2.7-2.7zm0-2.7c-2.9 0-5.3 2.4-5.3 5.3s2.4 5.3 5.3 5.3 5.3-2.4 5.3-5.3-2.4-5.3-5.3-5.3zm0 9.6c-2.3 0-4.2-1.9-4.2-4.2S5.3 10 7.6 10s4.2 1.9 4.2 4.2-1.9 4.2-4.2 4.2zM20.7 8.8c-2.9 0-5.3 2.4-5.3 5.3s2.4 5.3 5.3 5.3S26 17 26 14.1s-2.3-5.3-5.3-5.3zm0 9.6c-2.3 0-4.2-1.9-4.2-4.2s1.9-4.2 4.2-4.2 4.2 1.9 4.2 4.2-1.8 4.2-4.2 4.2z"/></svg>