<svg xmlns="http://www.w3.org/2000/svg" viewBox="0 0 28.3 28.3" width="28.3" height="28.3"><path d="M22.7 10.4C22.5 7.9 20.3 6 17.6 6c-.5 0-1.1.1-1.6.2-1-1.3-2.5-2.1-4.2-2.1-2.8.1-5.2 2.3-5.2 5v.5c-1.5.9-2.5 2.5-2.5 4.2 0 2.7 2.3 4.9 5.2 4.9.5 0 .8-.4.8-.8s-.3-.9-.8-.9c-1.9 0-3.5-1.5-3.5-3.2 0-1.3.8-2.4 2.1-3 .4-.2.6-.6.5-1-.1-.2-.1-.5-.1-.7 0-1.8 1.6-3.2 3.5-3.2 1.3 0 2.5.7 3.1 1.8.2.3.7.5 1.1.3.5-.2 1-.4 1.6-.4 1.9 0 3.5 1.4 3.5 3.2 0 .2.1.4.3.6.7.6 1.1 1.4 1.1 2.3 0 1.8-1.6 3.2-3.5 3.2-.6 0-1.2-.2-1.8-.4-.4-.2-.9-.1-1.1.3-.2.4-.1.9.3 1.1.8.4 1.7.7 2.6.7 2.8 0 5.2-2.2 5.2-4.9-.1-1.2-.6-2.4-1.5-3.3z"/><path d="M16.3 13.8l-2.4-2.5c-.2-.2-.4-.3-.6-.3-.2 0-.4.1-.6.3l-2.4 2.5c-.3.3-.3.9 0 1.2.3.3.9.3 1.2 0l1-1v9.4c0 .5.4.8.8.8.5 0 .8-.4.8-.8V14l1 1c.3.3.8.3 1.2 0 .3-.4.3-.9 0-1.2z"/></svg>