<svg xmlns="http://www.w3.org/2000/svg" viewBox="0 0 28.3 28.3" width="28.3" height="28.3"><path d="M19.4 17.4l4.2-1.4c.3-.1.5-.4.5-.7s-.2-.6-.5-.7l-12.2-4.1c-.3-.1-.5 0-.7.2-.2.2-.3.5-.2.7l4.1 12.2c.1.3.4.5.7.5s.6-.2.7-.5l1.4-4.2 5.4 5.4c.3.3.6.4 1 .4s.7-.1 1-.4c.6-.6.6-1.5 0-2l-5.4-5.4zM11.9 9.1l3.5 1.2h6.9V6H6v4.3h3.2c.1-.2.3-.5.4-.7.5-.3 1-.6 1.6-.6.2 0 .4.1.7.1z"/><path d="M23 3.1H5.3c-1.2 0-2.2 1-2.2 2.2V11c0 1.2 1 2.2 2.2 2.2h4.3l-.4-1.3v-.1H5.3c-.4 0-.7-.3-.7-.7V5.3c0-.4.3-.7.7-.7H23c.4 0 .7.3.7.7V11c0 .4-.3.7-.7.7h-3.3l4 1.3c.9-.3 1.5-1.1 1.5-2V5.3c0-1.2-1-2.2-2.2-2.2z"/></svg>