<svg width="20" height="20" xmlns="http://www.w3.org/2000/svg" viewBox="0 0 20 20"><g fill-rule="evenodd"><path d="M10 12.5a2.5 2.5 0 1 1 0-5 2.5 2.5 0 0 1 0 5zM17.5 5a2.5 2.5 0 1 1 0-5 2.5 2.5 0 0 1 0 5zM17.5 12.5a2.5 2.5 0 1 1 0-5 2.5 2.5 0 0 1 0 5zM2.5 12.5a2.5 2.5 0 1 1 0-5 2.5 2.5 0 0 1 0 5zM17.5 20a2.5 2.5 0 1 1 0-5 2.5 2.5 0 0 1 0 5zM10.5 20a2.5 2.5 0 1 1 0-5 2.5 2.5 0 0 1 0 5zM10 5a2.5 2.5 0 1 1 0-5 2.5 2.5 0 0 1 0 5zM2.5 20a2.5 2.5 0 1 1 0-5 2.5 2.5 0 0 1 0 5zM2.5 5a2.5 2.5 0 1 1 0-5 2.5 2.5 0 0 1 0 5z"/></g></svg>