<svg xmlns="http://www.w3.org/2000/svg" viewBox="0 0 500 500" width="500" height="500"><path d="M494.1 305.4l-62.7-29.7 62.7-30c3.5-1.7 5.6-4.7 5.6-8s-2.2-6.3-5.6-8l-159-75.5c-3.5-1.7-7.9-1.7-11.4 0l-10.1 4.8-1.3-7.7 62.3-60.7L288.5 78 250 0l-38.5 78-86.1 12.5 62.3 60.7-1.3 7.8-10.3-4.9c-3.5-1.7-7.9-1.7-11.4 0l-159 75.5c-3.5 1.7-5.6 4.7-5.6 8s2.1 6.4 5.6 8l62.7 30-62.8 29.8c-3.5 1.7-5.6 4.7-5.6 8s3.3 6.3 6.8 8L90 360.5v56.8c0 1.1-.5 2.1.7 2.7l157.8 75.1c.3.1.3.2.6.3.3.1.5.1.8.1.7 0 1.2-.1 1.8-.4l159.5-75.5c1.2-.6 2.3-1.6 2.3-2.7v-56.7l81-38.8c3.5-1.7 5.4-4.7 5.4-8 .1-3.3-2.3-6.3-5.8-8zM329.4 172.9l136.5 64.8-57 27.2-84-40-7.9-46.2 12.4-5.8zM33.9 237.7l136.5-64.8 12.6 6-7.9 45.9-84.3 40.1-56.9-27.2zm64.7 30.7l-.3.1-.6-.3c.3.1.7.1.9.2zm71.8 110.1l-136.5-65 56.9-27 136.5 64.8-56.9 27.2zm159 0l-57.1-27.3 136.6-64.8 57 27.1-136.5 65z"/></svg>